LINESeedJP-Regular.glyphspackage
{
glyphname = exclam;
layers = (
{
hints = (
{
horizontal = 1;
place = (-36, 121);
place = (-36, 121);
type = Stem;
},
{
place = (82, 81);
place = (82, 81);
type = Stem;
},
{
place = (59, 123);
place = (59, 123);
type = Stem;
}
);
layerId = m01;
shapes = (
{
closed = 1;
nodes = (
(145,194,ls),
(151,194,o),
(155,197,o),
(155,205,cs),
(163,739,ls),
(163,747,o),
(159,751,o),
(151,751,cs),
(87,751,ls),
(80,751,o),
(76,747,o),
(76,739,cs),
(82,205,ls),
(82,197,o),
(87,194,o),
(94,194,cs)
);
},
{
closed = 1;
nodes = (
(155,-36,o),
(182,-10,o),
(182,25,cs),
(182,60,o),
(155,85,o),
(120,85,cs),
(86,85,o),
(59,60,o),
(59,25,cs),
(59,-10,o),
(86,-36,o),
(120,-36,cs)
);
}
);
vertWidth = 1000;
width = 282;
}
);
note = cid00002;
unicode = 33;
}
{
glyphname = quotedbl;
kernLeft = quotedbl;
kernRight = quotedbl;
layers = (
{
hints = (
{
horizontal = 1;
place = (509, 242);
place = (509, 242);
type = Stem;
},
{
place = (81, 83);
place = (81, 83);
type = Stem;
},
{
place = (247, 83);
place = (247, 83);
type = Stem;
}
);
layerId = m01;
shapes = (
{
closed = 1;
nodes = (
(144,509,ls),
(150,509,o),
(154,513,o),
(154,518,cs),
(164,741,ls),
(164,748,o),
(161,751,o),
(154,751,cs),
(91,751,ls),
(85,751,o),
(81,748,o),
(81,741,cs),
(91,518,ls),
(91,513,o),
(95,509,o),
(101,509,cs)
);
},
{
closed = 1;
nodes = (
(310,509,ls),
(316,509,o),
(320,513,o),
(320,518,cs),
(330,741,ls),
(330,748,o),
(327,751,o),
(320,751,cs),
(257,751,ls),
(251,751,o),
(247,748,o),
(247,741,cs),
(257,518,ls),
(257,513,o),
(261,509,o),
(267,509,cs)
);
}
);
vertWidth = 1000;
width = 499;
}
);
note = cid00003;
unicode = 34;
}
{
glyphname = numbersign;
layers = (
{
hints = (
{
horizontal = 1;
place = (181, 73);
place = (181, 73);
type = Stem;
},
{
horizontal = 1;
place = (473, 73);
place = (473, 73);
type = Stem;
},
{
place = (57, 690);
place = (57, 690);
type = Stem;
}
);
layerId = m01;
shapes = (
{
closed = 1;
nodes = (
(201,-25,ls),
(206,-25,o),
(211,-21,o),
(214,-15,c),
(260,181,l),
(457,181,l),
(411,-12,l),
(410,-20,o),
(414,-25,o),
(422,-25,cs),
(472,-25,ls),
(479,-25,o),
(484,-21,o),
(485,-15,cs),
(532,181,l),
(653,181,ls),
(660,181,o),
(664,185,o),
(666,192,cs),
(678,242,l),
(679,250,o),
(674,254,o),
(667,254,cs),
(550,254,l),
(601,473,l),
(723,473,ls),
(729,473,o),
(734,477,o),
(736,483,cs),
(747,534,ls),
(748,542,o),
(744,546,o),
(737,546,cs),
(619,546,l),
(665,738,ls),
(667,746,o),
(663,750,o),
(655,750,cs),
(602,750,ls),
(597,750,o),
(592,747,o),
(590,740,cs),
(543,546,l),
(347,546,l),
(392,738,ls),
(394,746,o),
(390,750,o),
(383,750,cs),
(330,750,ls),
(324,750,o),
(319,747,o),
(317,740,cs),
(271,546,l),
(151,546,ls),
(145,546,o),
(141,542,o),
(138,536,c),
(127,486,l),
(126,477,o),
(130,473,o),
(137,473,cs),
(254,473,l),
(202,254,l),
(81,254,ls),
(75,254,o),
(71,250,o),
(69,245,c),
(57,194,l),
(56,185,o),
(60,181,o),
(68,181,cs),
(184,181,l),
(138,-12,l),
(137,-20,o),
(142,-25,o),
(149,-25,cs)
);
},
{
closed = 1;
nodes = (
(475,254,l),
(277,254,l),
(330,473,l),
(526,473,l)
);
}
);
vertWidth = 1000;
width = 837;
}
);
note = cid00004;
unicode = 35;
}
{
glyphname = dollar;
layers = (
{
hints = (
{
horizontal = 1;
place = (-10, 21);
target = up;
type = BottomGhost;
},
{
horizontal = 1;
place = (614, 80);
place = (614, 80);
type = Stem;
},
{
place = (74, 89);
place = (74, 89);
type = Stem;
},
{
place = (281, 69);
place = (281, 69);
type = Stem;
},
{
place = (463, 89);
place = (463, 89);
type = Stem;
},
{
horizontal = 1;
place = (-11, 79);
place = (-11, 79);
type = Stem;
}
);
layerId = m01;
shapes = (
{
closed = 1;
nodes = (
(339,-111,ls),
(346,-111,o),
(350,-106,o),
(350,-99,cs),
(350,-10,l),
(469,3,o),
(552,77,o),
(552,177,cs),
(552,277,o),
(487,348,o),
(358,384,cs),
(350,386,l),
(350,611,l),
(411,602,o),
(450,569,o),
(471,509,c),
(474,503,o),
(479,499,o),
(485,501,cs),
(544,518,ls),
(552,520,o),
(555,525,o),
(553,532,cs),
(524,626,o),
(453,681,o),
(350,693,c),
(350,782,ls),
(350,788,o),
(346,792,o),
(339,792,cs),
(292,792,ls),
(285,792,o),
(281,788,o),
(281,782,cs),
(281,694,l),
(160,684,o),
(74,610,o),
(74,512,cs),
(74,423,o),
(138,356,o),
(262,323,cs),
(281,318,l),
(281,68,l),
(203,75,o),
(150,111,o),
(123,186,cs),
(120,194,o),
(116,197,o),
(109,195,cs),
(52,178,ls),
(45,176,o),
(42,171,o),
(44,164,cs),
(81,56,o),
(163,-3,o),
(281,-11,c),
(281,-99,ls),
(281,-106,o),
(285,-111,o),
(292,-111,cs)
);
},
{
closed = 1;
nodes = (
(163,568,o),
(209,606,o),
(281,614,c),
(281,405,l),
(199,431,o),
(163,463,o),
(163,514,cs)
);
},
{
closed = 1;
nodes = (
(463,119,o),
(422,80,o),
(350,70,c),
(350,299,l),
(426,273,o),
(463,235,o),
(463,177,cs)
);
}
);
vertWidth = 1000;
width = 645;
}
);
note = cid00005;
unicode = 36;
}
{
glyphname = percent;
layers = (
{
hints = (
{
horizontal = 1;
place = (-36, 64);
place = (-36, 64);
type = Stem;
},
{
horizontal = 1;
place = (347, 63);
place = (347, 63);
type = Stem;
},
{
horizontal = 1;
place = (698, 63);
place = (698, 63);
type = Stem;
},
{
place = (33, 75);
place = (33, 75);
type = Stem;
},
{
place = (314, 74);
place = (314, 74);
type = Stem;
},
{
place = (570, 75);
place = (570, 75);
type = Stem;
},
{
place = (851, 74);
place = (851, 74);
type = Stem;
},
{
horizontal = 1;
place = (315, 64);
place = (315, 64);
type = Stem;
}
);
layerId = m01;
shapes = (
{
closed = 1;
nodes = (
(268,-25,ls),
(274,-25,o),
(278,-23,o),
(281,-18,cs),
(765,737,l),
(771,744,o),
(766,751,o),
(758,751,cs),
(697,751,ls),
(690,751,o),
(687,749,o),
(683,743,cs),
(199,-11,ls),
(194,-19,o),
(198,-25,o),
(206,-25,cs)
);
},
{
closed = 1;
nodes = (
(857,-36,o),
(925,48,o),
(925,187,cs),
(925,327,o),
(857,410,o),
(747,410,cs),
(637,410,o),
(570,327,o),
(570,187,cs),
(570,48,o),
(637,-36,o),
(747,-36,cs)
);
},
{
closed = 1;
nodes = (
(320,315,o),
(388,399,o),
(388,538,cs),
(388,678,o),
(320,761,o),
(210,761,cs),
(100,761,o),
(33,678,o),
(33,538,cs),
(33,399,o),
(100,315,o),
(210,315,cs)
);
},
{
closed = 1;
nodes = (
(682,28,o),
(645,83,o),
(645,187,cs),
(645,292,o),
(682,347,o),
(747,347,cs),
(814,347,o),
(851,292,o),
(851,187,cs),
(851,83,o),
(814,28,o),
(747,28,cs)
);
},
{
closed = 1;
nodes = (
(145,379,o),
(108,434,o),
(108,538,cs),
(108,643,o),
(145,698,o),
(210,698,cs),
(277,698,o),
(314,643,o),
(314,538,cs),
(314,434,o),
(277,379,o),
(210,379,cs)
);
}
);
vertWidth = 1000;
width = 1009;
}
);
note = cid00006;
unicode = 37;
}
{
glyphname = ampersand;
layers = (
{
hints = (
{
horizontal = 1;
place = (-32, 76);
place = (-32, 76);
type = Stem;
},
{
horizontal = 1;
place = (699, 79);
place = (699, 79);
type = Stem;
},
{
place = (53, 80);
place = (53, 80);
type = Stem;
},
{
place = (127, 81);
place = (127, 81);
type = Stem;
}
);
layerId = m01;
shapes = (
{
closed = 1;
nodes = (
(710,21,ls),
(715,27,o),
(715,33,o),
(709,38,cs),
(597,136,l),
(631,180,o),
(659,226,o),
(687,276,cs),
(691,283,o),
(690,288,o),
(683,292,cs),
(637,323,ls),
(630,327,o),
(624,326,o),
(620,319,cs),
(595,270,o),
(569,227,o),
(539,188,c),
(428,287,o),
(327,380,o),
(273,438,cs),
(180,536,o),
(199,627,o),
(255,671,cs),
(278,689,o),
(306,699,o),
(336,699,cs),
(379,699,o),
(424,678,o),
(455,627,cs),
(459,619,o),
(465,618,o),
(471,623,cs),
(513,657,ls),
(519,662,o),
(520,667,o),
(516,674,cs),
(471,747,o),
(404,778,o),
(338,778,cs),
(288,778,o),
(240,761,o),
(202,731,cs),
(125,671,o),
(91,558,o),
(182,431,c),
(39,339,o),
(3,142,o),
(135,29,cs),
(185,-14,o),
(244,-32,o),
(303,-32,cs),
(393,-32,o),
(484,10,o),
(549,75,c),
(657,-23,ls),
(663,-28,o),
(669,-28,o),
(674,-22,cs)
);
},
{
closed = 1;
nodes = (
(283,320,o),
(383,227,o),
(492,127,c),
(444,78,o),
(377,44,o),
(311,44,cs),
(270,44,o),
(229,57,o),
(193,87,cs),
(95,168,o),
(125,308,o),
(230,374,c)
);
}
);
vertWidth = 1000;
width = 782;
}
);
note = cid00007;
unicode = 38;
}
{
glyphname = quotesingle;
kernLeft = quotedbl;
kernRight = quotedbl;
layers = (
{
hints = (
{
horizontal = 1;
place = (509, 242);
place = (509, 242);
type = Stem;
},
{
place = (81, 83);
place = (81, 83);
type = Stem;
}
);
layerId = m01;
shapes = (
{
closed = 1;
nodes = (
(144,509,ls),
(150,509,o),
(154,513,o),
(154,518,cs),
(164,741,ls),
(164,748,o),
(161,751,o),
(154,751,cs),
(91,751,ls),
(85,751,o),
(81,748,o),
(81,741,cs),
(91,518,ls),
(91,513,o),
(95,509,o),
(101,509,cs)
);
}
);
vertWidth = 1000;
width = 292;
}
);
note = cid00008;
unicode = 39;
}
{
glyphname = parenleft;
kernRight = parenleft;
layers = (
{
hints = (
{
horizontal = 1;
place = (-202, 1012);
place = (-202, 1012);
type = Stem;
},
{
place = (57, 91);
place = (57, 91);
type = Stem;
}
);
layerId = m01;
shapes = (
{
closed = 1;
nodes = (
(371,-204,o),
(375,-199,o),
(375,-192,cs),
(375,-114,ls),
(375,-106,o),
(371,-102,o),
(365,-102,cs),
(217,-91,o),
(148,36,o),
(148,313,cs),
(148,590,o),
(217,718,o),
(365,729,cs),
(371,730,o),
(375,734,o),
(375,740,cs),
(375,799,ls),
(375,806,o),
(371,810,o),
(364,810,cs),
(159,797,o),
(57,631,o),
(57,313,cs),
(57,-5,o),
(159,-191,o),
(364,-202,c)
);
}
);
vertWidth = 1000;
width = 427;
}
);
note = cid00009;
unicode = 40;
}
{
glyphname = parenright;
kernLeft = parenright;
layers = (
{
hints = (
{
horizontal = 1;
place = (-202, 1012);
place = (-202, 1012);
type = Stem;
},
{
place = (248, 91);
place = (248, 91);
type = Stem;
}
);
layerId = m01;
shapes = (
{
closed = 1;
nodes = (
(238,-191,o),
(339,-5,o),
(339,313,cs),
(339,631,o),
(238,797,o),
(33,810,cs),
(25,810,o),
(21,806,o),
(21,799,cs),
(21,740,ls),
(21,734,o),
(25,730,o),
(32,729,cs),
(180,718,o),
(248,590,o),
(248,313,cs),
(248,36,o),
(180,-91,o),
(32,-102,cs),
(25,-102,o),
(21,-106,o),
(21,-114,cs),
(21,-192,ls),
(21,-199,o),
(25,-204,o),
(33,-202,c)
);
}
);
vertWidth = 1000;
width = 427;
}
);
note = cid00010;
unicode = 41;
}
{
glyphname = asterisk;
kernLeft = asterisk;
kernRight = asterisk;
layers = (
{
hints = (
{
horizontal = 1;
place = (368, 383);
place = (368, 383);
type = Stem;
},
{
place = (220.5, 60);
place = (220.5, 60);
type = Stem;
}
);
layerId = m01;
shapes = (
{
closed = 1;
nodes = (
(118,370,l),
(124,367,o),
(130,367,o),
(134,372,cs),
(251,496,l),
(367,372,ls),
(371,367,o),
(377,367,o),
(383,370,c),
(403,385,ls),
(408,389,o),
(409,395,o),
(406,401,c),
(312,535,l),
(444,616,ls),
(450,620,o),
(450,625,o),
(448,631,c),
(435,655,ls),
(433,660,o),
(427,662,o),
(421,659,cs),
(285,598,l),
(276,740,ls),
(275,748,o),
(271,751,o),
(264,751,cs),
(237,751,ls),
(230,751,o),
(226,748,o),
(225,740,cs),
(216,598,l),
(80,659,ls),
(74,662,o),
(68,660,o),
(66,655,cs),
(53,631,l),
(51,625,o),
(51,620,o),
(57,616,cs),
(189,535,l),
(95,401,l),
(92,395,o),
(93,389,o),
(98,385,cs)
);
}
);
vertWidth = 1000;
width = 534;
}
);
note = cid00011;
unicode = 42;
}
{
glyphname = plus;
layers = (
{
hints = (
{
horizontal = 1;
place = (279, 82);
place = (279, 82);
type = Stem;
},
{
place = (276, 83);
place = (276, 83);
type = Stem;
}
);
layerId = m01;
shapes = (
{
closed = 1;
nodes = (
(348,73,ls),
(354,73,o),
(359,79,o),
(359,85,cs),
(359,279,l),
(552,279,ls),
(558,279,o),
(563,285,o),
(563,291,cs),
(563,349,ls),
(563,356,o),
(558,361,o),
(552,361,cs),
(359,361,l),
(359,555,ls),
(359,562,o),
(354,567,o),
(348,567,cs),
(286,567,ls),
(281,567,o),
(276,562,o),
(276,555,cs),
(276,361,l),
(82,361,ls),
(77,361,o),
(72,356,o),
(72,349,cs),
(72,291,ls),
(72,285,o),
(77,279,o),
(82,279,cs),
(276,279,l),
(276,85,ls),
(276,79,o),
(281,73,o),
(286,73,cs)
);
}
);
vertWidth = 1000;
width = 650;
}
);
note = cid00012;
unicode = 43;
}
{
glyphname = comma;
kernLeft = comma;
kernRight = comma;
layers = (
{
hints = (
{
horizontal = 1;
place = (-206, 291);
place = (-206, 291);
type = Stem;
},
{
place = (61, 123);
place = (61, 123);
type = Stem;
}
);
layerId = m01;
shapes = (
{
closed = 1;
nodes = (
(96,-206,ls),
(101,-206,o),
(106,-204,o),
(108,-198,cs),
(154,-73,ls),
(173,-22,o),
(184,0,o),
(184,25,cs),
(184,60,o),
(157,85,o),
(123,85,cs),
(89,85,o),
(61,60,o),
(61,25,cs),
(61,-1,o),
(75,-21,o),
(96,-30,c),
(50,-194,ls),
(48,-202,o),
(52,-206,o),
(58,-206,cs)
);
}
);
vertWidth = 1000;
width = 292;
}
);
note = cid00013;
unicode = 44;
}
{
glyphname = hyphen;
kernLeft = hyphen;
kernRight = hyphen;
layers = (
{
hints = (
{
horizontal = 1;
place = (279, 81);
place = (279, 81);
type = Stem;
},
{
place = (81, 333);
place = (81, 333);
type = Stem;
}
);
layerId = m01;
shapes = (
{
closed = 1;
nodes = (
(403,279,ls),
(410,279,o),
(414,284,o),
(414,290,cs),
(414,349,ls),
(414,356,o),
(410,360,o),
(403,360,cs),
(92,360,ls),
(86,360,o),
(81,356,o),
(81,349,cs),
(81,290,ls),
(81,284,o),
(86,279,o),
(92,279,cs)
);
}
);
vertWidth = 1000;
width = 504;
}
);
note = cid00014;
unicode = (45,8209);
}
{
glyphname = period;
kernLeft = comma;
kernRight = comma;
layers = (
{
hints = (
{
horizontal = 1;
place = (-36, 121);
place = (-36, 121);
type = Stem;
},
{
place = (61, 123);
place = (61, 123);
type = Stem;
}
);
layerId = m01;
shapes = (
{
closed = 1;
nodes = (
(157,-36,o),
(184,-10,o),
(184,25,cs),
(184,60,o),
(157,85,o),
(123,85,cs),
(88,85,o),
(61,60,o),
(61,25,cs),
(61,-10,o),
(88,-36,o),
(123,-36,cs)
);
}
);
vertWidth = 1000;
width = 292;
}
);
note = cid00015;
unicode = 46;
}
{
glyphname = slash;
kernLeft = slash;
kernRight = slash;
layers = (
{
hints = (
{
horizontal = 1;
place = (-141, 909);
place = (-141, 909);
type = Stem;
},
{
place = (43, 327);
place = (43, 327);
type = Stem;
}
);
layerId = m01;
shapes = (
{
closed = 1;
nodes = (
(116,-141,ls),
(122,-141,o),
(127,-138,o),
(128,-132,cs),
(370,755,ls),
(372,764,o),
(368,768,o),
(360,768,cs),
(298,768,ls),
(292,768,o),
(288,765,o),
(285,758,c),
(43,-129,l),
(42,-136,o),
(45,-141,o),
(53,-141,cs)
);
}
);
vertWidth = 1000;
width = 455;
}
);
note = cid00016;
unicode = 47;
}
{
glyphname = zero;
kernLeft = zero;
kernRight = zero;
layers = (
{
hints = (
{
horizontal = 1;
place = (-20, 87);
place = (-20, 87);
type = Stem;
},
{
horizontal = 1;
place = (699, 87);
place = (699, 87);
type = Stem;
},
{
place = (58, 92);
place = (58, 92);
type = Stem;
},
{
place = (541, 92);
place = (541, 92);
type = Stem;
}
);
layerId = m01;
shapes = (
{
closed = 1;
nodes = (
(526,-20,o),
(633,130,o),
(633,383,cs),
(633,636,o),
(526,786,o),
(346,786,cs),
(165,786,o),
(58,636,o),
(58,383,cs),
(58,130,o),
(165,-20,o),
(346,-20,cs)
);
},
{
closed = 1;
nodes = (
(222,67,o),
(150,175,o),
(150,383,cs),
(150,591,o),
(222,699,o),
(346,699,cs),
(469,699,o),
(541,591,o),
(541,383,cs),
(541,175,o),
(469,67,o),
(346,67,cs)
);
}
);
vertWidth = 1000;
width = 725;
}
);
note = cid00017;
unicode = 48;
}
{
glyphname = one;
kernLeft = one;
layers = (
{
hints = (
{
horizontal = 1;
place = (-5, 21);
target = up;
type = BottomGhost;
},
{
place = (225, 88);
place = (225, 88);
type = Stem;
}
);
layerId = m01;
shapes = (
{
closed = 1;
nodes = (
(302,-5,ls),
(309,-5,o),
(313,-1,o),
(313,7,cs),
(313,760,ls),
(313,767,o),
(309,771,o),
(302,771,cs),
(256,771,ls),
(251,771,o),
(246,770,o),
(242,766,cs),
(50,604,l),
(44,600,o),
(43,594,o),
(47,589,c),
(60,566,ls),
(64,558,o),
(69,557,o),
(75,560,cs),
(225,644,l),
(225,7,ls),
(225,-1,o),
(229,-5,o),
(236,-5,cs)
);
}
);
vertWidth = 1000;
width = 466;
}
);
note = cid00018;
unicode = 49;
}
{
glyphname = two;
kernLeft = two;
kernRight = two;
layers = (
{
hints = (
{
horizontal = 1;
place = (-5, 84);
place = (-5, 84);
type = Stem;
},
{
horizontal = 1;
place = (699, 87);
place = (699, 87);
type = Stem;
},
{
place = (455, 90);
place = (455, 90);
type = Stem;
}
);
layerId = m01;
shapes = (
{
closed = 1;
nodes = (
(565,-5,ls),
(572,-5,o),
(576,-1,o),
(576,7,cs),
(576,68,ls),
(576,74,o),
(572,79,o),
(565,79,cs),
(210,79,l),
(320,195,ls),
(516,401,o),
(545,480,o),
(545,580,cs),
(545,703,o),
(450,786,o),
(311,786,cs),
(185,786,o),
(93,717,o),
(55,599,cs),
(53,591,o),
(56,586,o),
(63,585,c),
(126,568,ls),
(132,566,o),
(137,569,o),
(140,575,c),
(167,656,o),
(226,699,o),
(308,699,cs),
(394,699,o),
(455,651,o),
(455,572,cs),
(455,493,o),
(425,432,o),
(257,248,cs),
(69,39,ls),
(66,35,o),
(63,31,o),
(63,26,cs),
(63,7,ls),
(63,-1,o),
(68,-5,o),
(75,-5,cs)
);
}
);
vertWidth = 1000;
width = 667;
}
);
note = cid00019;
unicode = 50;
}
{
glyphname = three;
kernLeft = three;
kernRight = three;
layers = (
{
hints = (
{
horizontal = 1;
place = (-20, 87);
place = (-20, 87);
type = Stem;
},
{
horizontal = 1;
place = (363, 77);
place = (363, 77);
type = Stem;
},
{
horizontal = 1;
place = (699, 87);
place = (699, 87);
type = Stem;
},
{
place = (488, 91);
place = (488, 91);
type = Stem;
},
{
place = (470, 92);
place = (470, 92);
type = Stem;
}
);
layerId = m01;
shapes = (
{
closed = 1;
nodes = (
(471,-20,o),
(579,80,o),
(579,210,cs),
(579,307,o),
(523,376,o),
(429,403,c),
(514,434,o),
(562,501,o),
(562,582,cs),
(562,699,o),
(457,786,o),
(314,786,cs),
(188,786,o),
(91,712,o),
(59,599,cs),
(57,591,o),
(59,587,o),
(67,585,cs),
(129,568,ls),
(135,566,o),
(141,569,o),
(143,575,cs),
(166,649,o),
(227,699,o),
(313,699,cs),
(404,699,o),
(470,644,o),
(470,568,cs),
(470,496,o),
(408,440,o),
(318,440,cs),
(274,440,ls),
(267,440,o),
(263,436,o),
(263,429,cs),
(263,374,ls),
(263,367,o),
(267,363,o),
(274,363,cs),
(316,363,ls),
(421,363,o),
(488,307,o),
(488,219,cs),
(488,132,o),
(418,67,o),
(315,67,cs),
(225,67,o),
(160,117,o),
(131,212,cs),
(129,218,o),
(124,220,o),
(117,219,c),
(56,202,ls),
(50,201,o),
(47,197,o),
(49,189,cs),
(81,55,o),
(187,-20,o),
(315,-20,cs)
);
}
);
vertWidth = 1000;
width = 669;
}
);
note = cid00020;
unicode = 51;
}
{
glyphname = four;
kernLeft = four;
kernRight = four;
layers = (
{
hints = (
{
horizontal = 1;
place = (-5, 21);
target = up;
type = BottomGhost;
},
{
horizontal = 1;
place = (165, 84);
place = (165, 84);
type = Stem;
},
{
place = (442, 89);
place = (442, 89);
type = Stem;
}
);
layerId = m01;
shapes = (
{
closed = 1;
nodes = (
(519,-5,ls),
(526,-5,o),
(531,-1,o),
(531,7,cs),
(531,165,l),
(637,165,ls),
(645,165,o),
(649,169,o),
(649,177,cs),
(649,238,ls),
(649,244,o),
(645,249,o),
(637,249,cs),
(531,249,l),
(531,760,ls),
(531,767,o),
(526,771,o),
(519,771,cs),
(472,771,ls),
(466,771,o),
(462,769,o),
(459,764,cs),
(44,212,ls),
(41,207,o),
(40,203,o),
(40,198,cs),
(40,177,ls),
(40,169,o),
(44,165,o),
(52,165,cs),
(442,165,l),
(442,7,ls),
(442,-1,o),
(446,-5,o),
(453,-5,cs)
);
},
{
closed = 1;
nodes = (
(442,249,l),
(167,249,l),
(442,620,l)
);
}
);
vertWidth = 1000;
width = 715;
}
);
note = cid00021;
unicode = 52;
}
{
glyphname = five;
kernLeft = five;
kernRight = five;
layers = (
{
hints = (
{
horizontal = 1;
place = (-20, 87);
place = (-20, 87);
type = Stem;
},
{
horizontal = 1;
place = (417, 78);
place = (417, 78);
type = Stem;
},
{
horizontal = 1;
place = (687, 84);
place = (687, 84);
type = Stem;
},
{
place = (496, 91);
place = (496, 91);
type = Stem;
}
);
layerId = m01;
shapes = (
{
closed = 1;
nodes = (
(480,-20,o),
(587,86,o),
(587,240,cs),
(587,393,o),
(489,495,o),
(345,495,cs),
(274,495,o),
(212,472,o),
(165,429,c),
(190,687,l),
(538,687,ls),
(544,687,o),
(549,692,o),
(549,699,cs),
(549,760,ls),
(549,767,o),
(544,771,o),
(538,771,cs),
(132,771,ls),
(126,771,o),
(122,768,o),
(120,760,c),
(85,363,ls),
(84,356,o),
(87,352,o),
(92,349,cs),
(125,334,ls),
(131,331,o),
(135,332,o),
(141,336,c),
(194,390,o),
(255,417,o),
(323,417,cs),
(429,417,o),
(496,349,o),
(496,241,cs),
(496,133,o),
(425,67,o),
(323,67,cs),
(237,67,o),
(167,113,o),
(137,212,cs),
(135,218,o),
(131,221,o),
(124,219,cs),
(64,204,ls),
(57,202,o),
(55,197,o),
(57,191,cs),
(91,56,o),
(198,-20,o),
(327,-20,cs)
);
}
);
vertWidth = 1000;
width = 669;
}
);
note = cid00022;
unicode = 53;
}
{
glyphname = six;
kernLeft = six;
kernRight = six;
layers = (
{
hints = (
{
horizontal = 1;
place = (-20, 87);
place = (-20, 87);
type = Stem;
},
{
horizontal = 1;
place = (417, 79);
place = (417, 79);
type = Stem;
},
{
place = (48, 90);
place = (48, 90);
type = Stem;
},
{
place = (486, 93);
place = (486, 93);
type = Stem;
}
);
layerId = m01;
shapes = (
{
closed = 1;
nodes = (
(472,-20,o),
(579,85,o),
(579,240,cs),
(579,392,o),
(479,496,o),
(333,496,cs),
(289,496,o),
(249,485,o),
(216,465,c),
(425,757,ls),
(430,764,o),
(427,771,o),
(419,771,cs),
(341,771,ls),
(336,771,o),
(331,769,o),
(328,764,cs),
(178,553,ls),
(80,414,o),
(48,337,o),
(48,243,cs),
(48,88,o),
(154,-20,o),
(313,-20,cs)
);
},
{
closed = 1;
nodes = (
(207,67,o),
(138,136,o),
(138,242,cs),
(138,349,o),
(207,417,o),
(313,417,cs),
(418,417,o),
(486,349,o),
(486,242,cs),
(486,136,o),
(418,67,o),
(313,67,cs)
);
}
);
vertWidth = 1000;
width = 660;
}
);
note = cid00023;
unicode = 54;
}
{
glyphname = seven;
kernLeft = seven;
kernRight = seven;
layers = (
{
hints = (
{
horizontal = 1;
place = (-5, 21);
target = up;
type = BottomGhost;
},
{
horizontal = 1;
place = (687, 84);
place = (687, 84);
type = Stem;
},
{
place = (42, 523);
place = (42, 523);
type = Stem;
}
);
layerId = m01;
shapes = (
{
closed = 1;
nodes = (
(237,-5,ls),
(243,-5,o),
(247,-2,o),
(251,3,c),
(562,725,ls),
(564,730,o),
(565,735,o),
(565,739,cs),
(565,760,ls),
(565,767,o),
(561,771,o),
(554,771,cs),
(54,771,ls),
(47,771,o),
(42,767,o),
(42,760,cs),
(42,699,ls),
(42,692,o),
(47,687,o),
(54,687,cs),
(451,687,l),
(153,8,ls),
(150,0,o),
(153,-5,o),
(162,-5,cs)
);
}
);
vertWidth = 1000;
width = 629;
}
);
note = cid00024;
unicode = 55;
}
{
glyphname = eight;
kernLeft = eight;
kernRight = three;
layers = (
{
hints = (
{
horizontal = 1;
place = (-20, 82);
place = (-20, 82);
type = Stem;
},
{
horizontal = 1;
place = (367, 70);
place = (367, 70);
type = Stem;
},
{
horizontal = 1;
place = (705, 81);
place = (705, 81);
type = Stem;
},
{
place = (53, 91);
place = (53, 91);
type = Stem;
},
{
place = (518, 91);
place = (518, 91);
type = Stem;
},
{
place = (76, 91);
place = (76, 91);
type = Stem;
},
{
place = (495, 91);
place = (495, 91);
type = Stem;
}
);
layerId = m01;
shapes = (
{
closed = 1;
nodes = (
(493,-20,o),
(609,73,o),
(609,207,cs),
(609,300,o),
(546,376,o),
(451,405,c),
(534,434,o),
(586,502,o),
(586,582,cs),
(586,701,o),
(480,786,o),
(331,786,cs),
(183,786,o),
(76,701,o),
(76,582,cs),
(76,502,o),
(128,434,o),
(210,405,c),
(114,376,o),
(53,300,o),
(53,207,cs),
(53,72,o),
(169,-20,o),
(331,-20,cs)
);
},
{
closed = 1;
nodes = (
(235,437,o),
(167,493,o),
(167,572,cs),
(167,648,o),
(235,705,o),
(331,705,cs),
(427,705,o),
(495,648,o),
(495,572,cs),
(495,493,o),
(427,437,o),
(331,437,cs)
);
},
{
closed = 1;
nodes = (
(222,62,o),
(144,126,o),
(144,216,cs),
(144,304,o),
(222,367,o),
(331,367,cs),
(440,367,o),
(518,304,o),
(518,216,cs),
(518,126,o),
(440,62,o),
(331,62,cs)
);
}
);
vertWidth = 1000;
width = 695;
}
);
note = cid00025;
unicode = 56;
}
{
glyphname = nine;
kernLeft = nine;
kernRight = nine;
layers = (
{
hints = (
{
horizontal = 1;
place = (-5, 21);
target = up;
type = BottomGhost;
},
{
horizontal = 1;
place = (271, 78);
place = (271, 78);
type = Stem;
},
{
horizontal = 1;
place = (699, 87);
place = (699, 87);
type = Stem;
},
{
place = (43, 92);
place = (43, 92);
type = Stem;
},
{
place = (483, 92);
place = (483, 92);
type = Stem;
}
);
layerId = m01;
shapes = (
{
closed = 1;
nodes = (
(270,-5,ls),
(276,-5,o),
(280,-2,o),
(283,2,cs),
(441,214,ls),
(542,350,o),
(575,429,o),
(575,522,cs),
(575,678,o),
(468,786,o),
(309,786,cs),
(150,786,o),
(43,682,o),
(43,527,cs),
(43,373,o),
(143,271,o),
(290,271,cs),
(333,271,o),
(370,280,o),
(403,299,c),
(187,9,ls),
(182,1,o),
(185,-5,o),
(193,-5,cs)
);
},
{
closed = 1;
nodes = (
(204,349,o),
(135,417,o),
(135,525,cs),
(135,631,o),
(204,699,o),
(310,699,cs),
(414,699,o),
(483,631,o),
(483,525,cs),
(483,417,o),
(414,349,o),
(310,349,cs)
);
}
);
vertWidth = 1000;
width = 658;
}
);
note = cid00026;
unicode = 57;
}
{
glyphname = colon;
kernLeft = colon;
layers = (
{
hints = (
{
horizontal = 1;
place = (-36, 121);
place = (-36, 121);
type = Stem;
},
{
horizontal = 1;
place = (394, 120);
place = (394, 120);
type = Stem;
},
{
place = (61, 123);
place = (61, 123);
type = Stem;
}
);
layerId = m01;
shapes = (
{
closed = 1;
nodes = (
(157,394,o),
(184,419,o),
(184,454,cs),
(184,489,o),
(157,514,o),
(123,514,cs),
(88,514,o),
(61,489,o),
(61,454,cs),
(61,419,o),
(88,394,o),
(123,394,cs)
);
},
{
closed = 1;
nodes = (
(157,-36,o),
(184,-10,o),
(184,25,cs),
(184,60,o),
(157,85,o),
(123,85,cs),
(88,85,o),
(61,60,o),
(61,25,cs),
(61,-10,o),
(88,-36,o),
(123,-36,cs)
);
}
);
vertWidth = 1000;
width = 292;
}
);
note = cid00027;
unicode = 58;
}
{
glyphname = semicolon;
kernLeft = colon;
layers = (
{
hints = (
{
horizontal = 1;
place = (394, 120);
place = (394, 120);
type = Stem;
},
{
place = (61, 123);
place = (61, 123);
type = Stem;
}
);
layerId = m01;
shapes = (
{
closed = 1;
nodes = (
(157,394,o),
(184,419,o),
(184,454,cs),
(184,489,o),
(157,514,o),
(123,514,cs),
(88,514,o),
(61,489,o),
(61,454,cs),
(61,419,o),
(88,394,o),
(123,394,cs)
);
},
{
closed = 1;
nodes = (
(96,-186,ls),
(101,-186,o),
(106,-184,o),
(108,-178,cs),
(154,-73,ls),
(176,-23,o),
(184,0,o),
(184,25,cs),
(184,60,o),
(157,85,o),
(123,85,cs),
(89,85,o),
(61,60,o),
(61,25,cs),
(61,-1,o),
(75,-21,o),
(96,-30,c),
(50,-174,ls),
(48,-182,o),
(52,-186,o),
(58,-186,cs)
);
}
);
vertWidth = 1000;
width = 292;
}
);
note = cid00028;
unicode = 59;
}
{
glyphname = less;
layers = (
{
hints = (
{
horizontal = 1;
place = (71, 492);
place = (71, 492);
type = Stem;
},
{
place = (84, 446);
place = (84, 446);
type = Stem;
}
);
layerId = m01;
shapes = (
{
closed = 1;
nodes = (
(530,147,ls),
(530,153,o),
(526,158,o),
(521,160,cs),
(203,317,l),
(521,475,ls),
(526,477,o),
(530,482,o),
(530,488,cs),
(530,552,ls),
(530,561,o),
(525,565,o),
(517,561,cs),
(92,347,ls),
(87,344,o),
(84,340,o),
(84,333,cs),
(84,299,ls),
(84,294,o),
(87,289,o),
(92,287,cs),
(517,73,ls),
(524,69,o),
(530,72,o),
(530,81,cs)
);
}
);
vertWidth = 1000;
width = 650;
}
);
note = cid00029;
unicode = 60;
}
{
glyphname = equal;
layers = (
{
hints = (
{
horizontal = 1;
place = (147, 81);
place = (147, 81);
type = Stem;
},
{
horizontal = 1;
place = (419, 80);
place = (419, 80);
type = Stem;
},
{
place = (72, 491);
place = (72, 491);
type = Stem;
}
);
layerId = m01;
shapes = (
{
closed = 1;
nodes = (
(552,419,ls),
(558,419,o),
(563,424,o),
(563,430,cs),
(563,489,ls),
(563,494,o),
(558,499,o),
(552,499,cs),
(82,499,ls),
(77,499,o),
(72,494,o),
(72,489,cs),
(72,430,ls),
(72,424,o),
(77,419,o),
(82,419,cs)
);
},
{
closed = 1;
nodes = (
(552,147,ls),
(558,147,o),
(563,153,o),
(563,158,cs),
(563,217,ls),
(563,222,o),
(558,228,o),
(552,228,cs),
(82,228,ls),
(77,228,o),
(72,222,o),
(72,217,cs),
(72,158,ls),
(72,153,o),
(77,147,o),
(82,147,cs)
);
}
);
vertWidth = 1000;
width = 650;
}
);
note = cid00030;
unicode = 61;
}
{
glyphname = greater;
layers = (
{
hints = (
{
horizontal = 1;
place = (71, 491);
place = (71, 491);
type = Stem;
},
{
place = (105, 446);
place = (105, 446);
type = Stem;
}
);
layerId = m01;
shapes = (
{
closed = 1;
nodes = (
(543,287,l),
(549,289,o),
(551,294,o),
(551,299,cs),
(551,333,ls),
(551,340,o),
(549,344,o),
(543,347,cs),
(117,561,ls),
(110,564,o),
(105,561,o),
(105,552,cs),
(105,487,ls),
(105,480,o),
(108,476,o),
(113,473,cs),
(433,316,l),
(113,159,ls),
(108,156,o),
(105,152,o),
(105,145,cs),
(105,81,ls),
(105,72,o),
(110,69,o),
(117,73,cs)
);
}
);
vertWidth = 1000;
width = 650;
}
);
note = cid00031;
unicode = 62;
}
{
glyphname = question;
kernLeft = question;
layers = (
{
hints = (
{
horizontal = 1;
place = (146, 239);
place = (146, 239);
type = Stem;
},
{
horizontal = 1;
place = (679, 87);
place = (679, 87);
type = Stem;
},
{
place = (209, 80);
place = (209, 80);
type = Stem;
},
{
place = (430, 92);
place = (430, 92);
type = Stem;
},
{
horizontal = 1;
place = (310, 75);
place = (310, 75);
type = Stem;
},
{
horizontal = 1;
place = (-36, 118);
place = (-36, 118);
type = Stem;
},
{
place = (188, 122);
place = (188, 122);
type = Stem;
}
);
layerId = m01;
shapes = (
{
closed = 1;
nodes = (
(278,146,ls),
(284,146,o),
(289,149,o),
(289,158,cs),
(291,310,l),
(437,319,o),
(522,421,o),
(522,550,cs),
(522,676,o),
(427,766,o),
(289,766,cs),
(165,766,o),
(74,698,o),
(35,582,cs),
(33,575,o),
(35,570,o),
(42,568,cs),
(105,551,ls),
(111,549,o),
(116,552,o),
(119,558,c),
(149,638,o),
(203,679,o),
(283,679,cs),
(375,679,o),
(430,622,o),
(430,543,cs),
(430,451,o),
(373,385,o),
(260,385,cs),
(218,385,ls),
(210,385,o),
(206,381,o),
(206,373,cs),
(209,158,ls),
(209,149,o),
(214,146,o),
(220,146,cs)
);
},
{
closed = 1;
nodes = (
(283,-36,o),
(310,-11,o),
(310,24,cs),
(310,59,o),
(283,82,o),
(248,82,cs),
(215,82,o),
(188,59,o),
(188,24,cs),
(188,-11,o),
(215,-36,o),
(248,-36,cs)
);
}
);
vertWidth = 1000;
width = 603;
}
);
note = cid00032;
unicode = 63;
}
{
glyphname = at;
kernLeft = at;
kernRight = at;
layers = (
{
hints = (
{
horizontal = 1;
place = (-239, 69);
place = (-239, 69);
type = Stem;
},
{
horizontal = 1;
place = (-36, 72);
place = (-36, 72);
type = Stem;
},
{
horizontal = 1;
place = (390, 71);
place = (390, 71);
type = Stem;
},
{
horizontal = 1;
place = (603, 69);
place = (603, 69);
type = Stem;
},
{
place = (61, 75);
place = (61, 75);
type = Stem;
},
{
place = (265, 80);
place = (265, 80);
type = Stem;
},
{
place = (672, 70);
place = (672, 70);
type = Stem;
},
{
place = (906, 75);
place = (906, 75);
type = Stem;
},
{
horizontal = 1;
place = (-36, 70);
place = (-36, 70);
type = Stem;
},
{
place = (676, 66);
place = (676, 66);
type = Stem;
},
{
place = (678, 64);
place = (678, 64);
type = Stem;
}
);
layerId = m01;
shapes = (
{
closed = 1;
nodes = (
(565,-239,o),
(605,-235,o),
(639,-227,cs),
(645,-226,o),
(647,-221,o),
(647,-215,cs),
(647,-170,ls),
(647,-162,o),
(644,-158,o),
(635,-160,cs),
(602,-167,o),
(569,-170,o),
(530,-170,cs),
(301,-170,o),
(136,-42,o),
(136,214,cs),
(136,473,o),
(305,603,o),
(528,603,cs),
(754,603,o),
(906,474,o),
(906,232,cs),
(906,119,o),
(866,34,o),
(805,34,cs),
(762,34,o),
(742,60,o),
(742,117,cs),
(742,440,ls),
(742,447,o),
(738,452,o),
(731,452,cs),
(688,452,ls),
(681,452,o),
(676,449,o),
(676,440,cs),
(673,362,l),
(639,422,o),
(573,461,o),
(498,461,cs),
(359,461,o),
(265,361,o),
(265,213,cs),
(265,66,o),
(359,-36,o),
(498,-36,cs),
(575,-36,o),
(645,7,o),
(678,72,c),
(684,2,o),
(729,-36,o),
(796,-36,cs),
(906,-36,o),
(981,76,o),
(981,232,cs),
(981,496,o),
(809,672,o),
(528,672,cs),
(249,672,o),
(61,491,o),
(61,214,cs),
(61,-55,o),
(237,-239,o),
(519,-239,cs)
);
},
{
closed = 1;
nodes = (
(411,36,o),
(345,107,o),
(345,213,cs),
(345,319,o),
(411,390,o),
(508,390,cs),
(606,390,o),
(672,319,o),
(672,213,cs),
(672,107,o),
(606,36,o),
(508,36,cs)
);
}
);
vertWidth = 1000;
width = 1125;
}
);
note = cid00033;
unicode = 64;
}
{
glyphname = B;
kernRight = B;
layers = (
{
hints = (
{
horizontal = 1;
place = (-25, 84);
place = (-25, 84);
type = Stem;
},
{
horizontal = 1;
place = (335, 82);
place = (335, 82);
type = Stem;
},
{
horizontal = 1;
place = (668, 83);
place = (668, 83);
type = Stem;
},
{
place = (95, 89);
place = (95, 89);
type = Stem;
},
{
place = (525, 90);
place = (525, 90);
type = Stem;
},
{
place = (561, 91);
place = (561, 91);
type = Stem;
}
);
layerId = m01;
shapes = (
{
closed = 1;
nodes = (
(373,-25,ls),
(570,-25,o),
(652,64,o),
(652,192,cs),
(652,289,o),
(600,357,o),
(498,381,c),
(575,408,o),
(615,471,o),
(615,554,cs),
(615,665,o),
(536,751,o),
(359,751,cs),
(107,751,ls),
(99,751,o),
(95,747,o),
(95,740,cs),
(95,-13,ls),
(95,-21,o),
(99,-25,o),
(107,-25,cs)
);
},
{
closed = 1;
nodes = (
(184,668,l),
(354,668,ls),
(469,668,o),
(525,620,o),
(525,543,cs),
(525,464,o),
(475,417,o),
(360,417,cs),
(184,417,l)
);
},
{
closed = 1;
nodes = (
(184,335,l),
(373,335,ls),
(501,335,o),
(561,286,o),
(561,198,cs),
(561,109,o),
(501,59,o),
(373,59,cs),
(184,59,l)
);
}
);
vertWidth = 1000;
width = 709;
}
);
note = cid00035;
unicode = 66;
}
{
glyphname = D;
kernRight = D;
layers = (
{
hints = (
{
horizontal = 1;
place = (-25, 84);
place = (-25, 84);
type = Stem;
},
{
horizontal = 1;
place = (667, 84);
place = (667, 84);
type = Stem;
},
{
place = (95, 89);
place = (95, 89);
type = Stem;
},
{
place = (637, 92);
place = (637, 92);
type = Stem;
}
);
layerId = m01;
shapes = (
{
closed = 1;
nodes = (
(338,-25,ls),
(602,-25,o),
(729,127,o),
(729,363,cs),
(729,600,o),
(602,751,o),
(338,751,cs),
(107,751,ls),
(99,751,o),
(95,747,o),
(95,740,cs),
(95,-13,ls),
(95,-21,o),
(99,-25,o),
(107,-25,cs)
);
},
{
closed = 1;
nodes = (
(184,667,l),
(328,667,ls),
(536,667,o),
(637,554,o),
(637,363,cs),
(637,173,o),
(536,59,o),
(328,59,cs),
(184,59,l)
);
}
);
vertWidth = 1000;
width = 791;
}
);
note = cid00037;
unicode = 68;
}
{
glyphname = E;
kernRight = E;
layers = (
{
hints = (
{
horizontal = 1;
place = (-25, 84);
place = (-25, 84);
type = Stem;
},
{
horizontal = 1;
place = (335, 83);
place = (335, 83);
type = Stem;
},
{
horizontal = 1;
place = (667, 84);
place = (667, 84);
type = Stem;
},
{
place = (95, 89);
place = (95, 89);
type = Stem;
}
);
layerId = m01;
shapes = (
{
closed = 1;
nodes = (
(587,-25,ls),
(593,-25,o),
(597,-21,o),
(597,-13,cs),
(597,48,ls),
(597,54,o),
(593,59,o),
(587,59,cs),
(184,59,l),
(184,335,l),
(540,335,ls),
(546,335,o),
(551,340,o),
(551,346,cs),
(551,406,ls),
(551,414,o),
(546,418,o),
(540,418,cs),
(184,418,l),
(184,667,l),
(574,667,ls),
(581,667,o),
(586,672,o),
(586,679,cs),
(586,740,ls),
(586,747,o),
(581,751,o),
(574,751,cs),
(107,751,ls),
(99,751,o),
(95,747,o),
(95,740,cs),
(95,-13,ls),
(95,-21,o),
(99,-25,o),
(107,-25,cs)
);
}
);
vertWidth = 1000;
width = 638;
}
);
note = cid00038;
unicode = 69;
}
{
glyphname = F;
kernRight = F;
layers = (
{
hints = (
{
horizontal = 1;
place = (316, 84);
place = (316, 84);
type = Stem;
},
{
horizontal = 1;
place = (667, 84);
place = (667, 84);
type = Stem;
},
{
place = (95, 89);
place = (95, 89);
type = Stem;
}
);
layerId = m01;
shapes = (
{
closed = 1;
nodes = (
(172,-25,ls),
(180,-25,o),
(184,-21,o),
(184,-13,cs),
(184,316,l),
(514,316,ls),
(521,316,o),
(525,321,o),
(525,328,cs),
(525,389,ls),
(525,396,o),
(521,400,o),
(514,400,cs),
(184,400,l),
(184,667,l),
(559,667,ls),
(567,667,o),
(571,672,o),
(571,679,cs),
(571,740,ls),
(571,747,o),
(567,751,o),
(559,751,cs),
(107,751,ls),
(99,751,o),
(95,747,o),
(95,740,cs),
(95,-13,ls),
(95,-21,o),
(99,-25,o),
(107,-25,cs)
);
}
);
vertWidth = 1000;
width = 609;
}
);
note = cid00039;
unicode = 70;
}
{
glyphname = H;
layers = (
{
hints = (
{
horizontal = 1;
place = (333, 84);
place = (333, 84);
type = Stem;
},
{
place = (95, 89);
place = (95, 89);
type = Stem;
},
{
place = (615, 88);
place = (615, 88);
type = Stem;
}
);
layerId = m01;
shapes = (
{
closed = 1;
nodes = (
(172,-25,ls),
(180,-25,o),
(184,-21,o),
(184,-13,cs),
(184,333,l),
(615,333,l),
(615,-13,ls),
(615,-21,o),
(619,-25,o),
(626,-25,cs),
(692,-25,ls),
(699,-25,o),
(703,-21,o),
(703,-13,cs),
(703,740,ls),
(703,747,o),
(699,751,o),
(692,751,cs),
(626,751,ls),
(619,751,o),
(615,747,o),
(615,740,cs),
(615,417,l),
(184,417,l),
(184,740,ls),
(184,747,o),
(180,751,o),
(172,751,cs),
(107,751,ls),
(99,751,o),
(95,747,o),
(95,740,cs),
(95,-13,ls),
(95,-21,o),
(99,-25,o),
(107,-25,cs)
);
}
);
vertWidth = 1000;
width = 798;
}
);
note = cid00041;
unicode = 72;
}
{
glyphname = I;
layers = (
{
hints = (
{
horizontal = 1;
place = (-25, 776);
place = (-25, 776);
type = Stem;
},
{
place = (95, 89);
place = (95, 89);
type = Stem;
}
);
layerId = m01;
shapes = (
{
closed = 1;
nodes = (
(172,-25,ls),
(180,-25,o),
(184,-21,o),
(184,-13,cs),
(184,740,ls),
(184,747,o),
(180,751,o),
(172,751,cs),
(107,751,ls),
(99,751,o),
(95,747,o),
(95,740,cs),
(95,-13,ls),
(95,-21,o),
(99,-25,o),
(107,-25,cs)
);
}
);
vertWidth = 1000;
width = 279;
}
);
note = cid00042;
unicode = 73;
}
{
glyphname = J;
kernLeft = J;
kernRight = J;
layers = (
{
hints = (
{
horizontal = 1;
place = (-40, 87);
place = (-40, 87);
type = Stem;
},
{
horizontal = 1;
place = (667, 84);
place = (667, 84);
type = Stem;
},
{
place = (353, 88);
place = (353, 88);
type = Stem;
}
);
layerId = m01;
shapes = (
{
closed = 1;
nodes = (
(368,-40,o),
(441,43,o),
(441,218,cs),
(441,740,ls),
(441,747,o),
(437,751,o),
(430,751,cs),
(128,751,ls),
(120,751,o),
(116,747,o),
(116,740,cs),
(116,679,ls),
(116,672,o),
(120,667,o),
(128,667,cs),
(353,667,l),
(353,234,ls),
(353,121,o),
(329,47,o),
(221,47,cs),
(159,47,o),
(118,82,o),
(97,144,cs),
(95,152,o),
(91,155,o),
(84,153,cs),
(22,135,ls),
(15,133,o),
(12,129,o),
(14,121,cs),
(45,11,o),
(122,-40,o),
(221,-40,cs)
);
}
);
vertWidth = 1000;
width = 526;
}
);
note = cid00043;
unicode = 74;
}
{
glyphname = K;
kernRight = K;
layers = (
{
hints = (
{
horizontal = 1;
place = (-25, 776);
place = (-25, 776);
type = Stem;
},
{
place = (95, 89);
place = (95, 89);
type = Stem;
}
);
layerId = m01;
shapes = (
{
closed = 1;
nodes = (
(172,-25,ls),
(180,-25,o),
(184,-21,o),
(184,-13,cs),
(184,213,l),
(339,386,l),
(592,-18,ls),
(595,-23,o),
(599,-25,o),
(605,-25,cs),
(684,-25,ls),
(692,-25,o),
(697,-19,o),
(692,-11,cs),
(397,452,l),
(652,737,l),
(657,744,o),
(655,751,o),
(646,751,cs),
(569,751,ls),
(563,751,o),
(558,750,o),
(555,746,cs),
(184,325,l),
(184,740,ls),
(184,747,o),
(180,751,o),
(172,751,cs),
(107,751,ls),
(99,751,o),
(95,747,o),
(95,740,cs),
(95,-13,ls),
(95,-21,o),
(99,-25,o),
(107,-25,cs)
);
}
);
vertWidth = 1000;
width = 735;
}
);
note = cid00044;
unicode = 75;
}
{
glyphname = L;
kernRight = L;
layers = (
{
hints = (
{
horizontal = 1;
place = (-25, 85);
place = (-25, 85);
type = Stem;
},
{
place = (95, 89);
place = (95, 89);
type = Stem;
}
);
layerId = m01;
shapes = (
{
closed = 1;
nodes = (
(590,-25,ls),
(597,-25,o),
(601,-21,o),
(601,-13,cs),
(601,49,ls),
(601,55,o),
(597,60,o),
(590,60,cs),
(184,60,l),
(184,740,ls),
(184,747,o),
(180,751,o),
(172,751,cs),
(107,751,ls),
(99,751,o),
(95,747,o),
(95,740,cs),
(95,-13,ls),
(95,-21,o),
(99,-25,o),
(107,-25,cs)
);
}
);
vertWidth = 1000;
width = 635;
}
);
note = cid00045;
unicode = 76;
}
{
glyphname = N;
layers = (
{
hints = (
{
horizontal = 1;
place = (-25, 776);
place = (-25, 776);
type = Stem;
},
{
place = (95, 86);
place = (95, 86);
type = Stem;
},
{
place = (610, 86);
place = (610, 86);
type = Stem;
}
);
layerId = m01;
shapes = (
{
closed = 1;
nodes = (
(170,-25,ls),
(177,-25,o),
(181,-21,o),
(181,-13,cs),
(181,610,l),
(600,-18,l),
(605,-23,o),
(608,-25,o),
(614,-25,cs),
(685,-25,ls),
(691,-25,o),
(696,-21,o),
(696,-13,cs),
(696,740,ls),
(696,747,o),
(691,751,o),
(685,751,cs),
(622,751,ls),
(614,751,o),
(610,747,o),
(610,740,cs),
(610,118,l),
(191,743,ls),
(187,749,o),
(184,751,o),
(178,751,cs),
(107,751,ls),
(99,751,o),
(95,747,o),
(95,740,cs),
(95,-13,ls),
(95,-21,o),
(99,-25,o),
(107,-25,cs)
);
}
);
vertWidth = 1000;
width = 791;
}
);
note = cid00047;
unicode = 78;
}
{
glyphname = O;
kernLeft = C;
kernRight = D;
layers = (
{
hints = (
{
horizontal = 1;
place = (-40, 87);
place = (-40, 87);
type = Stem;
},
{
horizontal = 1;
place = (679, 87);
place = (679, 87);
type = Stem;
},
{
place = (61, 92);
place = (61, 92);
type = Stem;
},
{
place = (723, 91);
place = (723, 91);
type = Stem;
}
);
layerId = m01;
shapes = (
{
closed = 1;
nodes = (
(659,-40,o),
(814,118,o),
(814,363,cs),
(814,609,o),
(659,766,o),
(438,766,cs),
(218,766,o),
(61,609,o),
(61,363,cs),
(61,118,o),
(218,-40,o),
(438,-40,cs)
);
},
{
closed = 1;
nodes = (
(258,47,o),
(153,181,o),
(153,363,cs),
(153,545,o),
(258,679,o),
(438,679,cs),
(618,679,o),
(723,546,o),
(723,363,cs),
(723,181,o),
(618,47,o),
(438,47,cs)
);
}
);
vertWidth = 1000;
width = 875;
}
);
note = cid00048;
unicode = 79;
}
{
glyphname = P;
kernRight = P;
layers = (
{
hints = (
{
horizontal = 1;
place = (237, 83);
place = (237, 83);
type = Stem;
},
{
horizontal = 1;
place = (668, 83);
place = (668, 83);
type = Stem;
},
{
place = (95, 89);
place = (95, 89);
type = Stem;
},
{
place = (531, 92);
place = (531, 92);
type = Stem;
}
);
layerId = m01;
shapes = (
{
closed = 1;
nodes = (
(172,-25,ls),
(180,-25,o),
(184,-21,o),
(184,-13,cs),
(184,237,l),
(332,237,ls),
(532,237,o),
(623,332,o),
(623,494,cs),
(623,654,o),
(531,751,o),
(332,751,cs),
(107,751,ls),
(99,751,o),
(95,747,o),
(95,740,cs),
(95,-13,ls),
(95,-21,o),
(99,-25,o),
(107,-25,cs)
);
},
{
closed = 1;
nodes = (
(184,668,l),
(327,668,ls),
(467,668,o),
(531,609,o),
(531,496,cs),
(531,378,o),
(467,320,o),
(327,320,cs),
(184,320,l)
);
}
);
vertWidth = 1000;
width = 672;
}
);
note = cid00049;
unicode = 80;
}
{
glyphname = Q;
kernLeft = C;
kernRight = Q;
layers = (
{
hints = (
{
horizontal = 1;
place = (-25, 82);
place = (-25, 82);
type = Stem;
},
{
horizontal = 1;
place = (679, 87);
place = (679, 87);
type = Stem;
},
{
place = (61, 92);
place = (61, 92);
type = Stem;
},
{
place = (713, 91);
place = (713, 91);
type = Stem;
},
{
horizontal = 1;
place = (-25, 87);
place = (-25, 87);
type = Stem;
}
);
layerId = m01;
shapes = (
{
closed = 1;
nodes = (
(818,-25,ls),
(824,-25,o),
(829,-21,o),
(829,-13,cs),
(829,47,ls),
(829,53,o),
(824,57,o),
(818,57,cs),
(632,57,l),
(739,112,o),
(804,231,o),
(804,381,cs),
(804,609,o),
(657,766,o),
(435,766,cs),
(212,766,o),
(61,608,o),
(61,368,cs),
(61,128,o),
(209,-25,o),
(439,-25,cs)
);
},
{
closed = 1;
nodes = (
(254,62,o),
(153,194,o),
(153,370,cs),
(153,545,o),
(254,679,o),
(433,679,cs),
(612,679,o),
(713,546,o),
(713,371,cs),
(713,194,o),
(612,62,o),
(433,62,cs)
);
}
);
vertWidth = 1000;
width = 890;
}
);
note = cid00050;
unicode = 81;
}
{
glyphname = R;
kernRight = R;
layers = (
{
hints = (
{
horizontal = 1;
place = (242, 83);
place = (242, 83);
type = Stem;
},
{
horizontal = 1;
place = (668, 83);
place = (668, 83);
type = Stem;
},
{
place = (95, 89);
place = (95, 89);
type = Stem;
},
{
place = (531, 92);
place = (531, 92);
type = Stem;
}
);
layerId = m01;
shapes = (
{
closed = 1;
nodes = (
(172,-25,ls),
(180,-25,o),
(184,-21,o),
(184,-13,cs),
(184,242,l),
(332,242,ls),
(356,242,o),
(378,243,o),
(398,247,c),
(550,-18,ls),
(552,-22,o),
(556,-25,o),
(562,-25,cs),
(638,-25,ls),
(647,-25,o),
(650,-19,o),
(646,-11,cs),
(484,269,l),
(580,309,o),
(623,393,o),
(623,497,cs),
(623,656,o),
(536,751,o),
(332,751,cs),
(107,751,ls),
(99,751,o),
(95,747,o),
(95,740,cs),
(95,-13,ls),
(95,-21,o),
(99,-25,o),
(107,-25,cs)
);
},
{
closed = 1;
nodes = (
(184,668,l),
(327,668,ls),
(470,668,o),
(531,610,o),
(531,497,cs),
(531,384,o),
(470,325,o),
(327,325,cs),
(184,325,l)
);
}
);
vertWidth = 1000;
width = 703;
}
);
note = cid00051;
unicode = 82;
}
{
glyphname = S;
kernLeft = S;
kernRight = S;
layers = (
{
hints = (
{
horizontal = 1;
place = (-40, 87);
place = (-40, 87);
type = Stem;
},
{
horizontal = 1;
place = (679, 87);
place = (679, 87);
type = Stem;
},
{
place = (63, 91);
place = (63, 91);
type = Stem;
},
{
place = (485, 91);
place = (485, 91);
type = Stem;
}
);
layerId = m01;
shapes = (
{
closed = 1;
nodes = (
(470,-40,o),
(576,47,o),
(576,172,cs),
(576,295,o),
(508,359,o),
(365,406,cs),
(313,423,ls),
(205,458,o),
(154,502,o),
(154,564,cs),
(154,632,o),
(217,679,o),
(307,679,cs),
(392,679,o),
(446,642,o),
(474,556,cs),
(476,550,o),
(480,547,o),
(487,549,cs),
(554,566,ls),
(560,567,o),
(563,572,o),
(561,580,cs),
(526,704,o),
(435,766,o),
(307,766,cs),
(168,766,o),
(63,682,o),
(63,562,cs),
(63,459,o),
(138,391,o),
(267,347,cs),
(326,327,ls),
(425,293,o),
(485,255,o),
(485,172,cs),
(485,91,o),
(418,47,o),
(318,47,cs),
(218,47,o),
(161,90,o),
(128,186,cs),
(125,194,o),
(120,196,o),
(114,194,cs),
(51,178,ls),
(44,176,o),
(41,172,o),
(43,164,cs),
(84,29,o),
(179,-40,o),
(318,-40,cs)
);
}
);
vertWidth = 1000;
width = 622;
}
);
note = cid00052;
unicode = 83;
}
{
glyphname = T;
kernLeft = T;
kernRight = T;
layers = (
{
hints = (
{
horizontal = 1;
place = (667, 84);
place = (667, 84);
type = Stem;
},
{
place = (300, 89);
place = (300, 89);
type = Stem;
}
);
layerId = m01;
shapes = (
{
closed = 1;
nodes = (
(377,-25,ls),
(385,-25,o),
(389,-21,o),
(389,-13,cs),
(389,667,l),
(644,667,ls),
(650,667,o),
(654,672,o),
(654,679,cs),
(654,740,ls),
(654,747,o),
(650,751,o),
(644,751,cs),
(45,751,ls),
(38,751,o),
(35,747,o),
(35,740,cs),
(35,679,ls),
(35,672,o),
(38,667,o),
(45,667,cs),
(300,667,l),
(300,-13,ls),
(300,-21,o),
(304,-25,o),
(312,-25,cs)
);
}
);
vertWidth = 1000;
width = 689;
}
);
note = cid00053;
unicode = 84;
}
{
glyphname = U;
kernLeft = U;
kernRight = U;
layers = (
{
hints = (
{
horizontal = 1;
place = (-40, 87);
place = (-40, 87);
type = Stem;
},
{
place = (86, 88);
place = (86, 88);
type = Stem;
},
{
place = (596, 89);
place = (596, 89);
type = Stem;
}
);
layerId = m01;
shapes = (
{
closed = 1;
nodes = (
(531,-40,o),
(685,45,o),
(685,291,cs),
(685,740,ls),
(685,747,o),
(681,751,o),
(673,751,cs),
(608,751,ls),
(600,751,o),
(596,747,o),
(596,740,cs),
(596,304,ls),
(596,122,o),
(501,47,o),
(385,47,cs),
(267,47,o),
(174,122,o),
(174,304,cs),
(174,740,ls),
(174,747,o),
(170,751,o),
(163,751,cs),
(97,751,ls),
(90,751,o),
(86,747,o),
(86,740,cs),
(86,291,ls),
(86,45,o),
(238,-40,o),
(385,-40,cs)
);
}
);
vertWidth = 1000;
width = 771;
}
);
note = cid00054;
unicode = 85;
}
{
glyphname = V;
kernLeft = V;
kernRight = V;
layers = (
{
hints = (
{
horizontal = 1;
place = (-25, 776);
place = (-25, 776);
type = Stem;
},
{
place = (27, 699);
place = (27, 699);
type = Stem;
}
);
layerId = m01;
shapes = (
{
closed = 1;
nodes = (
(408,-25,ls),
(413,-25,o),
(419,-23,o),
(421,-17,cs),
(725,738,ls),
(728,746,o),
(724,751,o),
(717,751,cs),
(643,751,ls),
(637,751,o),
(632,749,o),
(630,742,cs),
(378,88,l),
(126,742,ls),
(124,749,o),
(118,751,o),
(112,751,cs),
(37,751,ls),
(29,751,o),
(25,746,o),
(29,738,cs),
(332,-17,ls),
(335,-23,o),
(339,-25,o),
(346,-25,cs)
);
}
);
vertWidth = 1000;
width = 753;
}
);
note = cid00055;
unicode = 86;
}
{
glyphname = X;
kernLeft = X;
kernRight = X;
layers = (
{
hints = (
{
horizontal = 1;
place = (-25, 776);
place = (-25, 776);
type = Stem;
},
{
place = (31, 630);
place = (31, 630);
type = Stem;
}
);
layerId = m01;
shapes = (
{
closed = 1;
nodes = (
(113,-25,ls),
(119,-25,o),
(124,-23,o),
(126,-18,c),
(345,321,l),
(564,-18,l),
(568,-23,o),
(571,-25,o),
(577,-25,cs),
(651,-25,ls),
(660,-25,o),
(663,-19,o),
(659,-11,c),
(402,380,l),
(638,737,ls),
(643,746,o),
(639,751,o),
(631,751,cs),
(557,751,ls),
(552,751,o),
(548,749,o),
(544,743,cs),
(347,438,l),
(148,743,l),
(145,749,o),
(141,751,o),
(135,751,cs),
(60,751,ls),
(52,751,o),
(49,746,o),
(53,737,c),
(291,379,l),
(33,-11,l),
(29,-19,o),
(32,-25,o),
(40,-25,cs)
);
}
);
vertWidth = 1000;
width = 691;
}
);
note = cid00057;
unicode = 88;
}
{
glyphname = Y;
kernLeft = Y;
kernRight = Y;
layers = (
{
hints = (
{
horizontal = 1;
place = (-25, 776);
place = (-25, 776);
type = Stem;
},
{
place = (315, 88);
place = (315, 88);
type = Stem;
}
);
layerId = m01;
shapes = (
{
closed = 1;
nodes = (
(392,-25,ls),
(398,-25,o),
(403,-21,o),
(403,-13,cs),
(403,282,l),
(689,737,ls),
(693,744,o),
(689,751,o),
(681,751,cs),
(607,751,ls),
(600,751,o),
(596,749,o),
(594,743,c),
(360,359,l),
(125,743,l),
(123,749,o),
(118,751,o),
(112,751,cs),
(36,751,ls),
(27,751,o),
(24,744,o),
(29,737,cs),
(315,280,l),
(315,-13,ls),
(315,-21,o),
(319,-25,o),
(326,-25,cs)
);
}
);
vertWidth = 1000;
width = 717;
}
);
note = cid00058;
unicode = 89;
}
{
glyphname = Z;
kernLeft = Z;
kernRight = Z;
layers = (
{
hints = (
{
horizontal = 1;
place = (-25, 84);
place = (-25, 84);
type = Stem;
},
{
horizontal = 1;
place = (667, 84);
place = (667, 84);
type = Stem;
},
{
place = (42, 565);
place = (42, 565);
type = Stem;
}
);
layerId = m01;
shapes = (
{
closed = 1;
nodes = (
(595,-25,ls),
(602,-25,o),
(607,-21,o),
(607,-13,cs),
(607,48,ls),
(607,54,o),
(602,59,o),
(595,59,cs),
(175,59,l),
(595,705,ls),
(598,710,o),
(599,714,o),
(599,719,cs),
(599,740,ls),
(599,747,o),
(595,751,o),
(589,751,cs),
(66,751,ls),
(58,751,o),
(54,747,o),
(54,740,cs),
(54,679,ls),
(54,672,o),
(58,667,o),
(66,667,cs),
(466,667,l),
(47,20,l),
(43,16,o),
(42,12,o),
(42,7,cs),
(42,-13,ls),
(42,-21,o),
(47,-25,o),
(53,-25,cs)
);
}
);
vertWidth = 1000;
width = 655;
}
);
note = cid00059;
unicode = 90;
}
{
glyphname = bracketleft;
kernRight = parenleft;
layers = (
{
hints = (
{
horizontal = 1;
place = (-184, 80);
place = (-184, 80);
type = Stem;
},
{
horizontal = 1;
place = (732, 78);
place = (732, 78);
type = Stem;
},
{
place = (72, 85);
place = (72, 85);
type = Stem;
},
{
place = (72, 236);
place = (72, 236);
type = Stem;
}
);
layerId = m01;
shapes = (
{
closed = 1;
nodes = (
(296,-184,ls),
(303,-184,o),
(308,-179,o),
(308,-172,cs),
(308,-116,ls),
(308,-109,o),
(303,-104,o),
(296,-104,cs),
(157,-104,l),
(157,732,l),
(296,732,ls),
(303,732,o),
(308,736,o),
(308,742,cs),
(308,799,ls),
(308,806,o),
(303,810,o),
(296,810,cs),
(84,810,ls),
(76,810,o),
(72,806,o),
(72,799,cs),
(72,-172,ls),
(72,-179,o),
(76,-184,o),
(84,-184,cs)
);
}
);
vertWidth = 1000;
width = 377;
}
);
note = cid00060;
unicode = 91;
}
{
glyphname = backslash;
kernLeft = backslash;
kernRight = backslash;
layers = (
{
hints = (
{
horizontal = 1;
place = (-141, 909);
place = (-141, 909);
type = Stem;
},
{
place = (43, 327);
place = (43, 327);
type = Stem;
}
);
layerId = m01;
shapes = (
{
closed = 1;
nodes = (
(360,-141,ls),
(368,-141,o),
(372,-136,o),
(370,-129,cs),
(128,758,l),
(127,765,o),
(122,768,o),
(116,768,cs),
(53,768,ls),
(45,768,o),
(42,764,o),
(43,755,c),
(285,-132,l),
(288,-138,o),
(292,-141,o),
(298,-141,cs)
);
}
);
vertWidth = 1000;
width = 455;
}
);
note = cid00097;
unicode = 92;
}
{
glyphname = bracketright;
kernLeft = parenright;
layers = (
{
hints = (
{
horizontal = 1;
place = (-184, 80);
place = (-184, 80);
type = Stem;
},
{
horizontal = 1;
place = (732, 78);
place = (732, 78);
type = Stem;
},
{
place = (21, 236);
place = (21, 236);
type = Stem;
},
{
place = (171, 86);
place = (171, 86);
type = Stem;
}
);
layerId = m01;
shapes = (
{
closed = 1;
nodes = (
(245,-184,ls),
(253,-184,o),
(257,-179,o),
(257,-172,cs),
(257,799,ls),
(257,806,o),
(253,810,o),
(245,810,cs),
(33,810,ls),
(25,810,o),
(21,806,o),
(21,799,cs),
(21,742,ls),
(21,736,o),
(25,732,o),
(33,732,cs),
(171,732,l),
(171,-104,l),
(33,-104,ls),
(25,-104,o),
(21,-109,o),
(21,-116,cs),
(21,-172,ls),
(21,-179,o),
(25,-184,o),
(33,-184,cs)
);
}
);
vertWidth = 1000;
width = 377;
}
);
note = cid00062;
unicode = 93;
}
{
glyphname = asciicircum;
layers = (
{
hints = (
{
horizontal = 1;
place = (343, 408);
place = (343, 408);
type = Stem;
},
{
place = (74, 486);
place = (74, 486);
type = Stem;
}
);
layerId = m01;
shapes = (
{
closed = 1;
nodes = (
(150,343,ls),
(155,343,o),
(161,345,o),
(163,350,cs),
(318,646,l),
(474,350,ls),
(477,345,o),
(481,343,o),
(487,343,cs),
(551,343,ls),
(559,343,o),
(562,349,o),
(558,357,cs),
(348,743,ls),
(345,749,o),
(340,751,o),
(335,751,cs),
(300,751,ls),
(294,751,o),
(290,749,o),
(288,743,c),
(76,357,ls),
(72,349,o),
(76,343,o),
(85,343,cs)
);
}
);
vertWidth = 1000;
width = 650;
}
);
note = cid00063;
unicode = 94;
}
{
glyphname = underscore;
kernLeft = underscore;
kernRight = underscore;
layers = (
{
hints = (
{
horizontal = 1;
place = (-182, 81);
place = (-182, 81);
type = Stem;
},
{
place = (48, 501);
place = (48, 501);
type = Stem;
}
);
layerId = m01;
shapes = (
{
closed = 1;
nodes = (
(538,-182,ls),
(543,-182,o),
(549,-177,o),
(549,-171,cs),
(549,-113,ls),
(549,-107,o),
(543,-101,o),
(538,-101,cs),
(58,-101,ls),
(54,-101,o),
(48,-107,o),
(48,-113,cs),
(48,-171,ls),
(48,-177,o),
(54,-182,o),
(58,-182,cs)
);
}
);
vertWidth = 1000;
width = 613;
}
);
note = cid00064;
unicode = (95,818);
}
{
glyphname = grave;
layers = (
{
hints = (
{
horizontal = 1;
place = (588, 154);
place = (588, 154);
type = Stem;
},
{
place = (88, 180);
place = (88, 180);
type = Stem;
}
);
layerId = m01;
shapes = (
{
closed = 1;
nodes = (
(96,742,ls),
(87,742,o),
(86,739,o),
(90,732,cs),
(180,598,ls),
(185,591,o),
(191,588,o),
(199,588,cs),
(260,588,ls),
(268,588,o),
(270,591,o),
(266,598,cs),
(185,732,ls),
(181,739,o),
(175,742,o),
(167,742,cs)
);
}
);
vertWidth = 1000;
width = 359;
}
);
note = cid00065;
unicode = (96,768);
}
{
glyphname = a;
kernLeft = a;
kernRight = a;
layers = (
{
hints = (
{
horizontal = 1;
place = (-36, 79);
place = (-36, 79);
type = Stem;
},
{
horizontal = 1;
place = (441, 78);
place = (441, 78);
type = Stem;
},
{
place = (44, 87);
place = (44, 87);
type = Stem;
},
{
place = (499, 77);
place = (499, 77);
type = Stem;
}
);
layerId = m01;
shapes = (
{
closed = 1;
nodes = (
(384,-36,o),
(458,6,o),
(496,72,c),
(499,-13,ls),
(499,-22,o),
(504,-25,o),
(511,-25,cs),
(565,-25,ls),
(572,-25,o),
(576,-21,o),
(576,-13,cs),
(576,498,ls),
(576,505,o),
(572,509,o),
(565,509,cs),
(511,509,ls),
(504,509,o),
(499,506,o),
(499,498,cs),
(496,413,l),
(458,478,o),
(384,519,o),
(299,519,cs),
(144,519,o),
(44,404,o),
(44,242,cs),
(44,80,o),
(144,-36,o),
(299,-36,cs)
);
},
{
closed = 1;
nodes = (
(206,43,o),
(131,123,o),
(131,242,cs),
(131,361,o),
(206,441,o),
(315,441,cs),
(424,441,o),
(499,361,o),
(499,242,cs),
(499,123,o),
(424,43,o),
(315,43,cs)
);
}
);
vertWidth = 1000;
width = 659;
}
);
note = cid00066;
unicode = 97;
}
{
glyphname = b;
kernLeft = b;
kernRight = b;
layers = (
{
hints = (
{
horizontal = 1;
place = (-36, 79);
place = (-36, 79);
type = Stem;
},
{
horizontal = 1;
place = (441, 78);
place = (441, 78);
type = Stem;
},
{
place = (82, 85);
place = (82, 85);
type = Stem;
},
{
place = (527, 88);
place = (527, 88);
type = Stem;
},
{
place = (82, 78);
place = (82, 78);
type = Stem;
}
);
layerId = m01;
shapes = (
{
closed = 1;
nodes = (
(516,-36,o),
(615,80,o),
(615,242,cs),
(615,404,o),
(516,519,o),
(359,519,cs),
(278,519,o),
(206,481,o),
(167,418,c),
(167,757,ls),
(167,764,o),
(163,768,o),
(156,768,cs),
(94,768,ls),
(87,768,o),
(82,764,o),
(82,757,cs),
(82,-13,ls),
(82,-21,o),
(87,-25,o),
(94,-25,cs),
(148,-25,ls),
(155,-25,o),
(160,-22,o),
(160,-13,cs),
(164,72,l),
(203,6,o),
(276,-36,o),
(359,-36,cs)
);
},
{
closed = 1;
nodes = (
(235,43,o),
(160,123,o),
(160,242,cs),
(160,361,o),
(235,441,o),
(344,441,cs),
(452,441,o),
(527,361,o),
(527,242,cs),
(527,123,o),
(452,43,o),
(344,43,cs)
);
}
);
vertWidth = 1000;
width = 659;
}
);
note = cid00067;
unicode = 98;
}
{
glyphname = d;
kernLeft = a;
layers = (
{
hints = (
{
horizontal = 1;
place = (-36, 79);
place = (-36, 79);
type = Stem;
},
{
horizontal = 1;
place = (441, 78);
place = (441, 78);
type = Stem;
},
{
place = (44, 87);
place = (44, 87);
type = Stem;
},
{
place = (492, 84);
place = (492, 84);
type = Stem;
},
{
place = (499, 77);
place = (499, 77);
type = Stem;
}
);
layerId = m01;
shapes = (
{
closed = 1;
nodes = (
(384,-36,o),
(458,6,o),
(496,72,c),
(499,-13,ls),
(499,-22,o),
(504,-25,o),
(511,-25,cs),
(565,-25,ls),
(572,-25,o),
(576,-21,o),
(576,-13,cs),
(576,757,ls),
(576,764,o),
(572,768,o),
(565,768,cs),
(503,768,ls),
(496,768,o),
(492,764,o),
(492,757,cs),
(492,419,l),
(452,481,o),
(381,519,o),
(299,519,cs),
(144,519,o),
(44,404,o),
(44,242,cs),
(44,80,o),
(144,-36,o),
(299,-36,cs)
);
},
{
closed = 1;
nodes = (
(206,43,o),
(131,123,o),
(131,242,cs),
(131,361,o),
(206,441,o),
(315,441,cs),
(424,441,o),
(499,361,o),
(499,242,cs),
(499,123,o),
(424,43,o),
(315,43,cs)
);
}
);
vertWidth = 1000;
width = 659;
}
);
note = cid00069;
unicode = 100;
}
{
glyphname = f;
kernRight = f;
layers = (
{
hints = (
{
horizontal = 1;
place = (433, 76);
place = (433, 76);
type = Stem;
},
{
horizontal = 1;
place = (697, 78);
place = (697, 78);
type = Stem;
},
{
place = (114, 85);
place = (114, 85);
type = Stem;
}
);
layerId = m01;
shapes = (
{
closed = 1;
nodes = (
(188,-25,ls),
(194,-25,o),
(199,-21,o),
(199,-13,cs),
(199,433,l),
(350,433,ls),
(357,433,o),
(361,437,o),
(361,443,cs),
(361,498,ls),
(361,505,o),
(357,509,o),
(350,509,cs),
(199,509,l),
(199,577,ls),
(199,658,o),
(230,697,o),
(285,697,cs),
(321,697,o),
(348,681,o),
(367,642,cs),
(370,636,o),
(375,634,o),
(382,636,c),
(431,656,ls),
(438,659,o),
(440,664,o),
(438,671,c),
(405,741,o),
(352,775,o),
(280,775,cs),
(182,775,o),
(114,706,o),
(114,579,cs),
(114,509,l),
(29,509,ls),
(21,509,o),
(17,505,o),
(17,498,cs),
(17,443,ls),
(17,437,o),
(21,433,o),
(29,433,cs),
(114,433,l),
(114,-13,ls),
(114,-21,o),
(118,-25,o),
(126,-25,cs)
);
}
);
vertWidth = 1000;
width = 391;
}
);
note = cid00071;
unicode = 102;
}
{
glyphname = g;
kernLeft = a;
layers = (
{
hints = (
{
horizontal = 1;
place = (-266, 78);
place = (-266, 78);
type = Stem;
},
{
horizontal = 1;
place = (-36, 79);
place = (-36, 79);
type = Stem;
},
{
horizontal = 1;
place = (441, 78);
place = (441, 78);
type = Stem;
},
{
place = (44, 87);
place = (44, 87);
type = Stem;
},
{
place = (499, 77);
place = (499, 77);
type = Stem;
},
{
place = (492, 84);
place = (492, 84);
type = Stem;
}
);
layerId = m01;
shapes = (
{
closed = 1;
nodes = (
(460,-266,o),
(576,-189,o),
(576,-17,cs),
(576,498,ls),
(576,505,o),
(572,509,o),
(565,509,cs),
(511,509,ls),
(504,509,o),
(499,506,o),
(499,498,cs),
(496,413,l),
(458,478,o),
(384,519,o),
(299,519,cs),
(144,519,o),
(44,404,o),
(44,242,cs),
(44,80,o),
(144,-36,o),
(299,-36,cs),
(381,-36,o),
(452,4,o),
(492,66,c),
(492,-25,ls),
(492,-148,o),
(404,-188,o),
(311,-188,cs),
(221,-188,o),
(171,-150,o),
(143,-89,cs),
(140,-84,o),
(134,-81,o),
(128,-84,cs),
(77,-103,ls),
(70,-105,o),
(68,-110,o),
(71,-117,cs),
(110,-214,o),
(198,-266,o),
(313,-266,cs)
);
},
{
closed = 1;
nodes = (
(206,43,o),
(131,123,o),
(131,242,cs),
(131,361,o),
(206,441,o),
(315,441,cs),
(424,441,o),
(499,361,o),
(499,242,cs),
(499,123,o),
(424,43,o),
(315,43,cs)
);
}
);
vertWidth = 1000;
width = 659;
}
);
note = cid00072;
unicode = 103;
}
{
glyphname = i;
layers = (
{
hints = (
{
horizontal = 1;
place = (629, 108);
place = (629, 108);
type = Stem;
},
{
place = (84, 82);
place = (84, 82);
type = Stem;
},
{
place = (69, 112);
place = (69, 112);
type = Stem;
}
);
layerId = m01;
shapes = (
{
closed = 1;
nodes = (
(96,509,ls),
(88,509,o),
(84,505,o),
(84,497,cs),
(84,-13,ls),
(84,-21,o),
(88,-25,o),
(96,-25,cs),
(154,-25,ls),
(162,-25,o),
(166,-21,o),
(166,-13,cs),
(166,497,ls),
(166,505,o),
(162,509,o),
(154,509,cs)
);
},
{
closed = 1;
nodes = (
(156,629,o),
(181,651,o),
(181,683,cs),
(181,715,o),
(156,737,o),
(125,737,cs),
(93,737,o),
(69,715,o),
(69,683,cs),
(69,651,o),
(93,629,o),
(125,629,cs)
);
}
);
vertWidth = 1000;
width = 249;
}
);
note = cid00074;
unicode = 105;
}
{
glyphname = k;
kernLeft = b;
kernRight = k;
layers = (
{
hints = (
{
horizontal = 1;
place = (-25, 793);
place = (-25, 793);
type = Stem;
},
{
place = (82, 85);
place = (82, 85);
type = Stem;
}
);
layerId = m01;
shapes = (
{
closed = 1;
nodes = (
(156,-25,ls),
(163,-25,o),
(167,-21,o),
(167,-13,cs),
(167,167,l),
(259,254,l),
(444,-18,ls),
(447,-22,o),
(451,-25,o),
(458,-25,cs),
(533,-25,ls),
(541,-25,o),
(544,-19,o),
(540,-11,c),
(321,313,l),
(514,495,ls),
(521,502,o),
(518,509,o),
(508,509,cs),
(427,509,ls),
(422,509,o),
(418,508,o),
(413,503,cs),
(167,265,l),
(167,757,ls),
(167,764,o),
(163,768,o),
(156,768,cs),
(94,768,ls),
(87,768,o),
(82,764,o),
(82,757,cs),
(82,-13,ls),
(82,-21,o),
(87,-25,o),
(94,-25,cs)
);
}
);
vertWidth = 1000;
width = 577;
}
);
note = cid00076;
unicode = 107;
}
{
glyphname = l;
kernLeft = b;
layers = (
{
hints = (
{
horizontal = 1;
place = (-25, 793);
place = (-25, 793);
type = Stem;
},
{
place = (82, 85);
place = (82, 85);
type = Stem;
}
);
layerId = m01;
shapes = (
{
closed = 1;
nodes = (
(156,-25,ls),
(163,-25,o),
(167,-21,o),
(167,-13,cs),
(167,757,ls),
(167,764,o),
(163,768,o),
(156,768,cs),
(94,768,ls),
(87,768,o),
(82,764,o),
(82,757,cs),
(82,-13,ls),
(82,-21,o),
(87,-25,o),
(94,-25,cs)
);
}
);
vertWidth = 1000;
width = 249;
}
);
note = cid00077;
unicode = 108;
}
{
glyphname = m;
kernLeft = m;
kernRight = h;
layers = (
{
hints = (
{
horizontal = 1;
place = (441, 78);
place = (441, 78);
type = Stem;
},
{
place = (82, 85);
place = (82, 85);
type = Stem;
},
{
place = (448, 85);
place = (448, 85);
type = Stem;
},
{
place = (814, 84);
place = (814, 84);
type = Stem;
},
{
place = (82, 78);
place = (82, 78);
type = Stem;
}
);
layerId = m01;
shapes = (
{
closed = 1;
nodes = (
(156,-25,ls),
(163,-25,o),
(167,-21,o),
(167,-13,cs),
(167,257,ls),
(167,384,o),
(251,441,o),
(326,441,cs),
(407,441,o),
(448,389,o),
(448,287,cs),
(448,-13,ls),
(448,-21,o),
(452,-25,o),
(460,-25,cs),
(522,-25,ls),
(528,-25,o),
(533,-21,o),
(533,-13,cs),
(533,257,ls),
(533,384,o),
(616,441,o),
(691,441,cs),
(773,441,o),
(814,389,o),
(814,287,cs),
(814,-13,ls),
(814,-21,o),
(818,-25,o),
(826,-25,cs),
(888,-25,ls),
(894,-25,o),
(898,-21,o),
(898,-13,cs),
(898,322,ls),
(898,445,o),
(828,519,o),
(713,519,cs),
(635,519,o),
(557,480,o),
(520,401,c),
(496,476,o),
(434,519,o),
(348,519,cs),
(275,519,o),
(201,482,o),
(164,410,c),
(160,498,ls),
(160,506,o),
(155,509,o),
(148,509,cs),
(94,509,ls),
(87,509,o),
(82,505,o),
(82,498,cs),
(82,-13,ls),
(82,-21,o),
(87,-25,o),
(94,-25,cs)
);
}
);
vertWidth = 1000;
width = 978;
}
);
note = cid00078;
unicode = 109;
}
{
glyphname = p;
kernLeft = m;
kernRight = b;
layers = (
{
hints = (
{
horizontal = 1;
place = (-36, 79);
place = (-36, 79);
type = Stem;
},
{
horizontal = 1;
place = (441, 78);
place = (441, 78);
type = Stem;
},
{
place = (82, 85);
place = (82, 85);
type = Stem;
},
{
place = (527, 88);
place = (527, 88);
type = Stem;
},
{
place = (82, 78);
place = (82, 78);
type = Stem;
}
);
layerId = m01;
shapes = (
{
closed = 1;
nodes = (
(156,-255,ls),
(163,-255,o),
(167,-251,o),
(167,-244,cs),
(167,67,l),
(206,4,o),
(278,-36,o),
(359,-36,cs),
(516,-36,o),
(615,80,o),
(615,242,cs),
(615,404,o),
(516,519,o),
(359,519,cs),
(276,519,o),
(203,478,o),
(164,413,c),
(160,498,ls),
(160,506,o),
(155,509,o),
(148,509,cs),
(94,509,ls),
(87,509,o),
(82,505,o),
(82,498,cs),
(82,-244,ls),
(82,-251,o),
(87,-255,o),
(94,-255,cs)
);
},
{
closed = 1;
nodes = (
(235,43,o),
(160,123,o),
(160,242,cs),
(160,361,o),
(235,441,o),
(344,441,cs),
(452,441,o),
(527,361,o),
(527,242,cs),
(527,123,o),
(452,43,o),
(344,43,cs)
);
}
);
vertWidth = 1000;
width = 659;
}
);
note = cid00081;
unicode = 112;
}
{
glyphname = q;
kernLeft = a;
layers = (
{
hints = (
{
horizontal = 1;
place = (-36, 79);
place = (-36, 79);
type = Stem;
},
{
horizontal = 1;
place = (441, 78);
place = (441, 78);
type = Stem;
},
{
place = (44, 87);
place = (44, 87);
type = Stem;
},
{
place = (492, 84);
place = (492, 84);
type = Stem;
},
{
place = (499, 77);
place = (499, 77);
type = Stem;
}
);
layerId = m01;
shapes = (
{
closed = 1;
nodes = (
(565,-255,ls),
(572,-255,o),
(576,-251,o),
(576,-244,cs),
(576,498,ls),
(576,505,o),
(572,509,o),
(565,509,cs),
(511,509,ls),
(504,509,o),
(499,506,o),
(499,498,cs),
(496,413,l),
(458,478,o),
(384,519,o),
(299,519,cs),
(144,519,o),
(44,404,o),
(44,242,cs),
(44,80,o),
(144,-36,o),
(299,-36,cs),
(381,-36,o),
(452,4,o),
(492,66,c),
(492,-244,l),
(493,-251,o),
(497,-255,o),
(503,-255,cs)
);
},
{
closed = 1;
nodes = (
(206,43,o),
(131,123,o),
(131,242,cs),
(131,361,o),
(206,441,o),
(315,441,cs),
(424,441,o),
(499,361,o),
(499,242,cs),
(499,123,o),
(424,43,o),
(315,43,cs)
);
}
);
vertWidth = 1000;
width = 659;
}
);
note = cid00082;
unicode = 113;
}
{
glyphname = r;
kernLeft = m;
kernRight = r;
layers = (
{
hints = (
{
horizontal = 1;
place = (434, 82);
place = (434, 82);
type = Stem;
},
{
place = (82, 85);
place = (82, 85);
type = Stem;
},
{
place = (82, 78);
place = (82, 78);
type = Stem;
}
);
layerId = m01;
shapes = (
{
closed = 1;
nodes = (
(156,-25,ls),
(163,-25,o),
(167,-21,o),
(167,-13,cs),
(167,265,ls),
(167,361,o),
(248,434,o),
(336,434,cs),
(352,434,o),
(363,432,o),
(372,431,cs),
(379,430,o),
(384,433,o),
(384,441,cs),
(384,502,ls),
(384,509,o),
(382,513,o),
(374,514,cs),
(367,516,o),
(358,516,o),
(346,516,cs),
(271,516,o),
(203,476,o),
(164,406,c),
(160,498,ls),
(160,506,o),
(155,509,o),
(148,509,cs),
(94,509,ls),
(87,509,o),
(82,505,o),
(82,498,cs),
(82,-13,ls),
(82,-21,o),
(87,-25,o),
(94,-25,cs)
);
}
);
vertWidth = 1000;
width = 405;
}
);
note = cid00083;
unicode = 114;
}
{
glyphname = t;
kernLeft = t;
kernRight = t;
layers = (
{
hints = (
{
horizontal = 1;
place = (-36, 79);
place = (-36, 79);
type = Stem;
},
{
horizontal = 1;
place = (433, 76);
place = (433, 76);
type = Stem;
},
{
place = (113, 85);
place = (113, 85);
type = Stem;
}
);
layerId = m01;
shapes = (
{
closed = 1;
nodes = (
(324,-36,o),
(376,-9,o),
(410,59,cs),
(414,67,o),
(412,73,o),
(406,76,cs),
(358,97,ls),
(352,100,o),
(347,98,o),
(344,91,cs),
(328,57,o),
(304,43,o),
(275,43,cs),
(222,43,o),
(198,78,o),
(198,158,cs),
(198,433,l),
(346,433,ls),
(352,433,o),
(356,437,o),
(356,443,cs),
(356,498,ls),
(356,505,o),
(352,509,o),
(346,509,cs),
(198,509,l),
(198,673,ls),
(198,679,o),
(193,683,o),
(186,683,cs),
(124,683,ls),
(117,683,o),
(113,679,o),
(113,673,cs),
(113,509,l),
(19,509,ls),
(13,509,o),
(8,505,o),
(8,498,cs),
(8,443,ls),
(8,437,o),
(13,433,o),
(19,433,cs),
(113,433,l),
(113,160,ls),
(113,25,o),
(171,-36,o),
(267,-36,cs)
);
}
);
vertWidth = 1000;
width = 420;
}
);
note = cid00085;
unicode = 116;
}
{
glyphname = u;
kernLeft = u;
kernRight = a;
layers = (
{
hints = (
{
horizontal = 1;
place = (-36, 79);
place = (-36, 79);
type = Stem;
},
{
place = (79, 85);
place = (79, 85);
type = Stem;
},
{
place = (456, 84);
place = (456, 84);
type = Stem;
},
{
place = (463, 77);
place = (463, 77);
type = Stem;
}
);
layerId = m01;
shapes = (
{
closed = 1;
nodes = (
(342,-36,o),
(421,0,o),
(460,72,c),
(463,-13,ls),
(463,-22,o),
(468,-25,o),
(475,-25,cs),
(530,-25,ls),
(536,-25,o),
(540,-21,o),
(540,-13,cs),
(540,498,ls),
(540,505,o),
(536,509,o),
(530,509,cs),
(467,509,ls),
(460,509,o),
(456,505,o),
(456,498,cs),
(456,227,ls),
(456,100,o),
(367,43,o),
(292,43,cs),
(204,43,o),
(164,95,o),
(164,198,cs),
(164,498,ls),
(164,505,o),
(160,509,o),
(152,509,cs),
(90,509,ls),
(84,509,o),
(79,505,o),
(79,498,cs),
(79,162,ls),
(79,39,o),
(150,-36,o),
(270,-36,cs)
);
}
);
vertWidth = 1000;
width = 623;
}
);
note = cid00086;
unicode = 117;
}
{
glyphname = v;
kernLeft = v;
kernRight = v;
layers = (
{
hints = (
{
horizontal = 1;
place = (-25, 534);
place = (-25, 534);
type = Stem;
},
{
place = (27, 519);
place = (27, 519);
type = Stem;
}
);
layerId = m01;
shapes = (
{
closed = 1;
nodes = (
(305,-25,ls),
(312,-25,o),
(316,-22,o),
(319,-17,c),
(544,496,ls),
(548,505,o),
(544,509,o),
(536,509,cs),
(466,509,ls),
(460,509,o),
(456,507,o),
(452,500,c),
(289,100,l),
(125,500,ls),
(122,507,o),
(117,509,o),
(111,509,cs),
(37,509,ls),
(29,509,o),
(24,505,o),
(29,496,c),
(254,-17,ls),
(256,-22,o),
(261,-25,o),
(266,-25,cs)
);
}
);
vertWidth = 1000;
width = 572;
}
);
note = cid00087;
unicode = 118;
}
{
glyphname = x;
kernLeft = x;
kernRight = x;
layers = (
{
hints = (
{
horizontal = 1;
place = (-25, 534);
place = (-25, 534);
type = Stem;
},
{
place = (29, 489);
place = (29, 489);
type = Stem;
}
);
layerId = m01;
shapes = (
{
closed = 1;
nodes = (
(108,-25,ls),
(113,-25,o),
(117,-23,o),
(122,-18,c),
(272,193,l),
(422,-18,ls),
(425,-22,o),
(430,-25,o),
(435,-25,cs),
(509,-25,ls),
(518,-25,o),
(521,-19,o),
(516,-11,cs),
(326,251,l),
(502,495,ls),
(507,503,o),
(504,509,o),
(495,509,cs),
(426,509,ls),
(420,509,o),
(415,507,o),
(412,502,cs),
(276,312,l),
(140,502,ls),
(136,507,o),
(132,509,o),
(126,509,cs),
(53,509,ls),
(43,509,o),
(40,502,o),
(45,495,cs),
(222,252,l),
(32,-11,l),
(25,-19,o),
(30,-25,o),
(38,-25,cs)
);
}
);
vertWidth = 1000;
width = 548;
}
);
note = cid00089;
unicode = 120;
}
{
glyphname = y;
kernLeft = v;
kernRight = v;
layers = (
{
hints = (
{
horizontal = 1;
place = (-255, 764);
place = (-255, 764);
type = Stem;
},
{
place = (27, 516);
place = (27, 516);
type = Stem;
}
);
layerId = m01;
shapes = (
{
closed = 1;
nodes = (
(228,-255,ls),
(235,-255,o),
(239,-253,o),
(242,-247,cs),
(542,496,ls),
(545,503,o),
(542,509,o),
(534,509,cs),
(465,509,ls),
(460,509,o),
(456,507,o),
(452,500,c),
(293,97,l),
(125,500,ls),
(122,507,o),
(117,509,o),
(111,509,cs),
(37,509,ls),
(29,509,o),
(25,505,o),
(29,496,cs),
(249,-7,l),
(154,-243,l),
(152,-250,o),
(155,-255,o),
(163,-255,cs)
);
}
);
vertWidth = 1000;
width = 571;
}
);
note = cid00090;
unicode = 121;
}
{
glyphname = z;
kernLeft = z;
kernRight = z;
layers = (
{
hints = (
{
horizontal = 1;
place = (-25, 76);
place = (-25, 76);
type = Stem;
},
{
horizontal = 1;
place = (433, 76);
place = (433, 76);
type = Stem;
},
{
place = (56, 421);
place = (56, 421);
type = Stem;
}
);
layerId = m01;
shapes = (
{
closed = 1;
nodes = (
(465,-25,ls),
(472,-25,o),
(477,-21,o),
(477,-13,cs),
(477,41,ls),
(477,47,o),
(472,51,o),
(465,51,cs),
(184,51,l),
(467,468,ls),
(470,472,o),
(471,476,o),
(471,481,cs),
(471,498,ls),
(471,505,o),
(467,509,o),
(461,509,cs),
(75,509,ls),
(69,509,o),
(64,505,o),
(64,498,cs),
(64,444,ls),
(64,437,o),
(69,433,o),
(75,433,cs),
(344,433,l),
(60,17,ls),
(57,13,o),
(56,9,o),
(56,4,cs),
(56,-13,ls),
(56,-20,o),
(60,-25,o),
(67,-25,cs)
);
}
);
vertWidth = 1000;
width = 533;
}
);
note = cid00091;
unicode = 122;
}
{
glyphname = braceleft;
kernRight = parenleft;
layers = (
{
hints = (
{
horizontal = 1;
place = (-184, 80);
place = (-184, 80);
type = Stem;
},
{
horizontal = 1;
place = (275, 76);
place = (275, 76);
type = Stem;
},
{
horizontal = 1;
place = (731, 79);
place = (731, 79);
type = Stem;
},
{
place = (148, 85);
place = (148, 85);
type = Stem;
}
);
layerId = m01;
shapes = (
{
closed = 1;
nodes = (
(388,-184,ls),
(394,-184,o),
(398,-179,o),
(398,-172,cs),
(398,-115,ls),
(398,-109,o),
(394,-104,o),
(388,-104,cs),
(382,-104,ls),
(279,-104,o),
(233,-56,o),
(233,41,cs),
(233,231,ls),
(233,273,o),
(220,304,o),
(189,314,c),
(220,324,o),
(233,354,o),
(233,397,cs),
(233,587,ls),
(233,683,o),
(279,731,o),
(382,731,cs),
(388,731,ls),
(394,731,o),
(398,735,o),
(398,742,cs),
(398,799,ls),
(398,806,o),
(394,810,o),
(388,810,cs),
(376,810,ls),
(242,810,o),
(148,751,o),
(148,597,cs),
(148,414,ls),
(148,367,o),
(136,351,o),
(105,351,cs),
(71,351,ls),
(63,351,o),
(59,347,o),
(59,341,cs),
(59,287,ls),
(59,279,o),
(63,275,o),
(71,275,cs),
(105,275,ls),
(136,275,o),
(148,260,o),
(148,214,cs),
(148,31,ls),
(148,-123,o),
(242,-184,o),
(376,-184,cs)
);
}
);
vertWidth = 1000;
width = 455;
}
);
note = cid00092;
unicode = 123;
}
{
glyphname = bar;
layers = (
{
hints = (
{
horizontal = 1;
place = (-141, 909);
place = (-141, 909);
type = Stem;
},
{
place = (104, 84);
place = (104, 84);
type = Stem;
}
);
layerId = m01;
shapes = (
{
closed = 1;
nodes = (
(177,-141,ls),
(183,-141,o),
(188,-136,o),
(188,-130,cs),
(188,757,ls),
(188,762,o),
(183,768,o),
(177,768,cs),
(114,768,ls),
(109,768,o),
(104,762,o),
(104,757,cs),
(104,-130,ls),
(104,-136,o),
(109,-141,o),
(114,-141,cs)
);
}
);
vertWidth = 1000;
width = 327;
}
);
note = cid00099;
unicode = 124;
}
{
glyphname = braceright;
kernLeft = parenright;
layers = (
{
hints = (
{
horizontal = 1;
place = (-184, 80);
place = (-184, 80);
type = Stem;
},
{
horizontal = 1;
place = (275, 76);
place = (275, 76);
type = Stem;
},
{
horizontal = 1;
place = (731, 79);
place = (731, 79);
type = Stem;
},
{
place = (187, 85);
place = (187, 85);
type = Stem;
}
);
layerId = m01;
shapes = (
{
closed = 1;
nodes = (
(43,-184,ls),
(179,-184,o),
(272,-123,o),
(272,31,cs),
(272,214,ls),
(272,260,o),
(283,275,o),
(316,275,cs),
(350,275,ls),
(356,275,o),
(360,279,o),
(360,287,cs),
(360,341,ls),
(360,347,o),
(356,351,o),
(350,351,cs),
(316,351,ls),
(283,351,o),
(272,367,o),
(272,414,cs),
(272,597,ls),
(272,751,o),
(179,810,o),
(43,810,cs),
(33,810,ls),
(25,810,o),
(21,806,o),
(21,799,cs),
(21,742,ls),
(21,735,o),
(25,731,o),
(33,731,cs),
(39,731,ls),
(141,731,o),
(187,683,o),
(187,587,cs),
(187,397,ls),
(187,354,o),
(200,324,o),
(230,313,c),
(200,304,o),
(187,273,o),
(187,231,cs),
(187,41,ls),
(187,-56,o),
(141,-104,o),
(39,-104,cs),
(33,-104,ls),
(25,-104,o),
(21,-109,o),
(21,-115,cs),
(21,-172,ls),
(21,-179,o),
(25,-184,o),
(33,-184,cs)
);
}
);
vertWidth = 1000;
width = 455;
}
);
note = cid00094;
unicode = 125;
}
{
glyphname = asciitilde;
layers = (
{
hints = (
{
horizontal = 1;
place = (198, 81);
place = (198, 81);
type = Stem;
},
{
horizontal = 1;
place = (350, 82);
place = (350, 82);
type = Stem;
},
{
place = (52, 72);
place = (52, 72);
type = Stem;
},
{
place = (512, 71);
place = (512, 71);
type = Stem;
}
);
layerId = m01;
shapes = (
{
closed = 1;
nodes = (
(113,216,ls),
(119,216,o),
(124,220,o),
(124,228,cs),
(128,306,o),
(159,350,o),
(206,350,cs),
(299,350,o),
(293,198,o),
(435,198,cs),
(524,198,o),
(579,273,o),
(583,398,cs),
(583,408,o),
(579,414,o),
(573,414,cs),
(522,414,ls),
(516,414,o),
(512,409,o),
(512,403,cs),
(507,325,o),
(477,279,o),
(429,279,cs),
(336,279,o),
(342,432,o),
(200,432,cs),
(110,432,o),
(55,356,o),
(52,228,cs),
(52,220,o),
(56,216,o),
(62,216,cs)
);
}
);
vertWidth = 1000;
width = 634;
}
);
note = cid00100;
unicode = (126,8764);
}
{
glyphname = exclamdown;
layers = (
{
hints = (
{
horizontal = 1;
place = (388, 125);
place = (388, 125);
type = Stem;
},
{
place = (61, 122);
place = (61, 122);
type = Stem;
},
{
place = (84.5, 74);
place = (84.5, 74);
type = Stem;
}
);
layerId = m01;
shapes = (
{
closed = 1;
nodes = (
(156,388,o),
(183,416,o),
(183,451,cs),
(183,486,o),
(156,513,o),
(122,513,cs),
(88,513,o),
(61,486,o),
(61,451,cs),
(61,416,o),
(88,388,o),
(122,388,cs)
);
},
{
closed = 1;
nodes = (
(83,-305,l),
(160,-305,l),
(157,78,l),
(149,274,l),
(95,274,l),
(86,77,l)
);
}
);
vertWidth = 1000;
width = 244;
}
);
note = cid00101;
unicode = 161;
}
{
glyphname = cent;
layers = (
{
hints = (
{
horizontal = 1;
place = (-25, 776);
place = (-25, 776);
type = Stem;
},
{
place = (44, 87);
place = (44, 87);
type = Stem;
},
{
place = (272, 69);
place = (272, 69);
type = Stem;
},
{
horizontal = 1;
place = (79, 79);
place = (79, 79);
type = Stem;
},
{
horizontal = 1;
place = (552, 79);
place = (552, 79);
type = Stem;
}
);
layerId = m01;
shapes = (
{
closed = 1;
nodes = (
(330,-25,ls),
(337,-25,o),
(341,-21,o),
(341,-13,cs),
(341,79,l),
(435,88,o),
(507,137,o),
(542,229,cs),
(545,235,o),
(543,240,o),
(536,242,cs),
(479,257,ls),
(472,259,o),
(468,257,o),
(465,251,cs),
(441,197,o),
(401,165,o),
(341,158,c),
(341,552,l),
(398,546,o),
(438,516,o),
(462,464,cs),
(465,458,o),
(469,455,o),
(476,457,cs),
(528,473,ls),
(536,475,o),
(538,480,o),
(536,487,cs),
(502,574,o),
(435,623,o),
(341,631,c),
(341,740,ls),
(341,747,o),
(337,751,o),
(330,751,cs),
(283,751,ls),
(276,751,o),
(272,747,o),
(272,740,cs),
(272,630,l),
(132,613,o),
(44,506,o),
(44,356,cs),
(44,205,o),
(131,97,o),
(272,80,c),
(272,-13,ls),
(272,-21,o),
(276,-25,o),
(283,-25,cs)
);
},
{
closed = 1;
nodes = (
(131,449,o),
(177,532,o),
(272,550,c),
(272,160,l),
(177,179,o),
(131,261,o),
(131,356,cs)
);
}
);
vertWidth = 1000;
width = 628;
}
);
note = cid00102;
unicode = 162;
}
{
glyphname = sterling;
layers = (
{
hints = (
{
horizontal = 1;
place = (-25, 84);
place = (-25, 84);
type = Stem;
},
{
horizontal = 1;
place = (311, 70);
place = (311, 70);
type = Stem;
},
{
horizontal = 1;
place = (679, 87);
place = (679, 87);
type = Stem;
},
{
place = (115, 91);
place = (115, 91);
type = Stem;
},
{
place = (154, 88);
place = (154, 88);
type = Stem;
}
);
layerId = m01;
shapes = (
{
closed = 1;
nodes = (
(583,-25,ls),
(590,-25,o),
(594,-21,o),
(594,-13,cs),
(594,48,ls),
(594,54,o),
(590,59,o),
(583,59,cs),
(187,59,l),
(230,140,o),
(242,198,o),
(242,273,cs),
(242,286,o),
(241,298,o),
(240,311,c),
(418,311,ls),
(425,311,o),
(429,315,o),
(429,323,cs),
(429,369,ls),
(429,377,o),
(425,381,o),
(418,381,cs),
(227,381,l),
(218,430,o),
(206,479,o),
(206,525,cs),
(206,625,o),
(262,679,o),
(355,679,cs),
(434,679,o),
(494,636,o),
(521,555,cs),
(523,549,o),
(528,546,o),
(535,548,cs),
(597,565,l),
(605,566,o),
(608,571,o),
(606,579,cs),
(569,696,o),
(476,766,o),
(351,766,cs),
(208,766,o),
(115,675,o),
(115,539,cs),
(115,484,o),
(126,432,o),
(136,381,c),
(78,381,ls),
(72,381,o),
(68,377,o),
(68,369,cs),
(68,323,ls),
(68,315,o),
(72,311,o),
(78,311,cs),
(149,311,l),
(152,290,o),
(154,270,o),
(154,250,cs),
(154,161,o),
(135,107,o),
(81,19,cs),
(78,15,o),
(77,11,o),
(77,6,cs),
(77,-13,ls),
(77,-21,o),
(81,-25,o),
(88,-25,cs)
);
}
);
vertWidth = 1000;
width = 689;
}
);
note = cid00103;
unicode = 163;
}
{
glyphname = currency;
layers = (
{
hints = (
{
horizontal = 1;
place = (176, 70);
place = (176, 70);
type = Stem;
},
{
horizontal = 1;
place = (521, 69);
place = (521, 69);
type = Stem;
},
{
place = (87, 75);
place = (87, 75);
type = Stem;
},
{
place = (433, 75);
place = (433, 75);
type = Stem;
}
);
layerId = m01;
shapes = (
{
closed = 1;
nodes = (
(80,143,ls),
(85,138,o),
(92,139,o),
(96,143,cs),
(166,215,l),
(201,190,o),
(245,176,o),
(297,176,cs),
(349,176,o),
(394,191,o),
(429,216,c),
(499,143,ls),
(503,139,o),
(511,138,o),
(515,143,c),
(548,174,ls),
(553,178,o),
(553,185,o),
(549,190,c),
(475,264,l),
(497,296,o),
(508,338,o),
(508,383,cs),
(508,428,o),
(497,470,o),
(475,502,c),
(549,577,ls),
(553,582,o),
(553,589,o),
(548,593,cs),
(515,624,l),
(511,629,o),
(503,629,o),
(499,624,cs),
(428,551,l),
(393,576,o),
(349,590,o),
(297,590,cs),
(245,590,o),
(201,576,o),
(167,551,c),
(96,624,ls),
(92,628,o),
(85,629,o),
(80,624,cs),
(48,593,l),
(42,589,o),
(42,582,o),
(47,577,cs),
(120,502,l),
(98,470,o),
(87,430,o),
(87,383,cs),
(87,338,o),
(98,296,o),
(119,264,c),
(47,190,ls),
(42,185,o),
(42,178,o),
(48,174,c)
);
},
{
closed = 1;
nodes = (
(218,246,o),
(162,301,o),
(162,383,cs),
(162,467,o),
(218,521,o),
(297,521,cs),
(377,521,o),
(433,467,o),
(433,383,cs),
(433,301,o),
(377,246,o),
(297,246,cs)
);
}
);
vertWidth = 1000;
width = 640;
}
);
note = cid00107;
unicode = 164;
}
{
glyphname = yen;
layers = (
{
hints = (
{
horizontal = 1;
place = (129, 58);
place = (129, 58);
type = Stem;
},
{
horizontal = 1;
place = (276, 58);
place = (276, 58);
type = Stem;
},
{
place = (315, 88);
place = (315, 88);
type = Stem;
}
);
layerId = m01;
shapes = (
{
closed = 1;
nodes = (
(315,129,l),
(315,-13,ls),
(315,-21,o),
(319,-25,o),
(326,-25,cs),
(392,-25,ls),
(398,-25,o),
(403,-21,o),
(403,-13,cs),
(403,129,l),
(579,129,ls),
(586,129,o),
(590,134,o),
(590,140,cs),
(590,177,ls),
(590,183,o),
(586,187,o),
(579,187,cs),
(403,187,l),
(403,276,l),
(579,276,ls),
(586,276,o),
(590,280,o),
(590,287,cs),
(590,324,ls),
(590,330,o),
(586,334,o),
(579,334,cs),
(435,334,l),
(689,737,ls),
(693,744,o),
(689,751,o),
(681,751,cs),
(608,751,ls),
(601,751,o),
(597,749,o),
(595,743,c),
(359,358,l),
(124,743,l),
(122,749,o),
(117,751,o),
(111,751,cs),
(36,751,ls),
(27,751,o),
(24,744,o),
(29,737,cs),
(281,334,l),
(140,334,ls),
(132,334,o),
(128,330,o),
(128,324,cs),
(128,287,ls),
(128,280,o),
(132,276,o),
(140,276,cs),
(315,276,l),
(315,187,l),
(140,187,ls),
(132,187,o),
(128,183,o),
(128,177,cs),
(128,140,ls),
(128,134,o),
(132,129,o),
(140,129,cs)
);
}
);
vertWidth = 1000;
width = 770;
}
);
note = cid00061;
unicode = 165;
}
{
glyphname = brokenbar;
layers = (
{
hints = (
{
horizontal = 1;
place = (-142, 918);
place = (-142, 918);
type = Stem;
},
{
place = (105, 81);
place = (105, 81);
type = Stem;
}
);
layerId = m01;
shapes = (
{
closed = 1;
nodes = (
(174,415,ls),
(182,415,o),
(186,419,o),
(186,427,cs),
(186,764,ls),
(186,772,o),
(182,776,o),
(174,776,cs),
(117,776,ls),
(109,776,o),
(105,772,o),
(105,764,cs),
(105,427,ls),
(105,419,o),
(109,415,o),
(117,415,cs)
);
},
{
closed = 1;
nodes = (
(174,-142,ls),
(182,-142,o),
(186,-138,o),
(186,-130,cs),
(186,206,ls),
(186,214,o),
(182,218,o),
(174,218,cs),
(117,218,ls),
(109,218,o),
(105,214,o),
(105,206,cs),
(105,-130,ls),
(105,-138,o),
(109,-142,o),
(117,-142,cs)
);
}
);
vertWidth = 1000;
width = 327;
}
);
note = cid00093;
unicode = 166;
}
{
glyphname = section.full;
layers = (
{
hints = (
{
horizontal = 1;
place = (-72, 73);
place = (-72, 73);
type = Stem;
},
{
horizontal = 1;
place = (180, 67);
place = (180, 67);
type = Stem;
},
{
horizontal = 1;
place = (511, 68);
place = (511, 68);
type = Stem;
},
{
horizontal = 1;
place = (758, 73);
place = (758, 73);
type = Stem;
},
{
place = (298, 75);
place = (298, 75);
type = Stem;
},
{
place = (631, 75);
place = (631, 75);
type = Stem;
},
{
place = (563, 82);
place = (563, 82);
type = Stem;
},
{
place = (349, 83);
place = (349, 83);
type = Stem;
}
);
layerId = m01;
shapes = (
{
closed = 1;
nodes = (
(580,-72,o),
(645,-4,o),
(645,80,cs),
(645,125,o),
(633,163,o),
(608,205,c),
(670,238,o),
(706,301,o),
(706,379,cs),
(706,495,o),
(625,579,o),
(502,579,cs),
(487,579,o),
(472,578,o),
(458,576,c),
(443,607,o),
(432,640,o),
(432,675,cs),
(432,722,o),
(467,758,o),
(524,758,cs),
(568,758,o),
(599,736,o),
(622,685,cs),
(625,677,o),
(631,676,o),
(636,677,cs),
(690,691,ls),
(697,693,o),
(700,699,o),
(697,706,cs),
(668,792,o),
(604,831,o),
(520,831,cs),
(415,831,o),
(349,763,o),
(349,678,cs),
(349,633,o),
(362,594,o),
(389,551,c),
(332,516,o),
(298,454,o),
(298,379,cs),
(298,263,o),
(378,180,o),
(502,180,cs),
(513,180,o),
(526,181,o),
(537,182,c),
(552,151,o),
(563,117,o),
(563,83,cs),
(563,37,o),
(528,1,o),
(471,1,cs),
(427,1,o),
(396,23,o),
(373,74,cs),
(370,80,o),
(364,82,o),
(359,81,cs),
(305,67,ls),
(298,65,o),
(295,60,o),
(298,53,cs),
(327,-33,o),
(391,-72,o),
(475,-72,cs)
);
},
{
closed = 1;
nodes = (
(427,247,o),
(373,300,o),
(373,379,cs),
(373,459,o),
(427,511,o),
(502,511,cs),
(577,511,o),
(631,459,o),
(631,379,cs),
(631,300,o),
(577,247,o),
(502,247,cs)
);
}
);
vertWidth = 1000;
width = 1000;
}
);
note = cid00720;
unicode = 167;
}
{
glyphname = dieresis;
layers = (
{
hints = (
{
horizontal = 1;
place = (610, 102);
place = (610, 102);
type = Stem;
},
{
place = (351, 104);
place = (351, 104);
type = Stem;
},
{
place = (517, 103);
place = (517, 103);
type = Stem;
}
);
layerId = m01;
shapes = (
{
closed = 1;
nodes = (
(374,712,o),
(351,690,o),
(351,661,cs),
(351,632,o),
(374,610,o),
(403,610,cs),
(432,610,o),
(455,632,o),
(455,661,cs),
(455,690,o),
(433,712,o),
(403,712,cs)
);
},
{
closed = 1;
nodes = (
(539,712,o),
(517,690,o),
(517,661,cs),
(517,632,o),
(539,610,o),
(569,610,cs),
(598,610,o),
(620,632,o),
(620,661,cs),
(620,690,o),
(598,712,o),
(569,712,cs)
);
}
);
vertWidth = 1000;
width = 1000;
}
);
note = cid00647;
unicode = 168;
}
{
glyphname = copyright;
layers = (
{
hints = (
{
horizontal = 1;
place = (-40, 54);
place = (-40, 54);
type = Stem;
},
{
horizontal = 1;
place = (145, 64);
place = (145, 64);
type = Stem;
},
{
horizontal = 1;
place = (518, 63);
place = (518, 63);
type = Stem;
},
{
horizontal = 1;
place = (712, 54);
place = (712, 54);
type = Stem;
},
{
place = (58, 57);
place = (58, 57);
type = Stem;
},
{
place = (252, 69);
place = (252, 69);
type = Stem;
},
{
place = (798, 56);
place = (798, 56);
type = Stem;
}
);
layerId = m01;
shapes = (
{
closed = 1;
nodes = (
(687,-40,o),
(854,125,o),
(854,363,cs),
(854,601,o),
(687,766,o),
(457,766,cs),
(225,766,o),
(58,601,o),
(58,363,cs),
(58,125,o),
(225,-40,o),
(457,-40,cs)
);
},
{
closed = 1;
nodes = (
(246,14,o),
(115,167,o),
(115,363,cs),
(115,558,o),
(246,712,o),
(457,712,cs),
(667,712,o),
(798,560,o),
(798,363,cs),
(798,167,o),
(667,14,o),
(457,14,cs)
);
},
{
closed = 1;
nodes = (
(541,145,o),
(610,184,o),
(641,260,c),
(643,268,o),
(639,272,o),
(633,274,cs),
(591,287,ls),
(585,289,o),
(579,286,o),
(577,279,c),
(557,233,o),
(516,209,o),
(462,209,cs),
(366,209,o),
(321,279,o),
(321,363,cs),
(321,445,o),
(367,518,o),
(461,518,cs),
(513,518,o),
(553,495,o),
(574,452,cs),
(577,445,o),
(582,443,o),
(588,444,cs),
(628,455,ls),
(635,457,o),
(638,462,o),
(635,469,cs),
(607,544,o),
(541,581,o),
(458,581,cs),
(334,581,o),
(252,491,o),
(252,363,cs),
(252,236,o),
(331,145,o),
(459,145,cs)
);
}
);
vertWidth = 1000;
width = 934;
}
);
note = cid00152;
unicode = 169;
}
{
glyphname = ordfeminine;
layers = (
{
hints = (
{
horizontal = 1;
place = (325, 66);
place = (325, 66);
type = Stem;
},
{
horizontal = 1;
place = (707, 65);
place = (707, 65);
type = Stem;
},
{
place = (51, 84);
place = (51, 84);
type = Stem;
},
{
place = (408, 73);
place = (408, 73);
type = Stem;
},
{
place = (414, 67);
place = (414, 67);
type = Stem;
}
);
layerId = m01;
shapes = (
{
closed = 1;
nodes = (
(135,772,o),
(51,679,o),
(51,549,cs),
(51,418,o),
(135,325,o),
(256,325,cs),
(327,325,o),
(385,357,o),
(413,408,c),
(414,344,ls),
(414,337,o),
(417,334,o),
(424,334,cs),
(471,334,ls),
(477,334,o),
(481,338,o),
(481,344,cs),
(481,753,ls),
(481,760,o),
(477,764,o),
(471,764,cs),
(424,764,ls),
(417,764,o),
(414,761,o),
(414,753,cs),
(413,690,l),
(385,740,o),
(327,772,o),
(256,772,cs)
);
},
{
closed = 1;
nodes = (
(353,707,o),
(408,643,o),
(408,549,cs),
(408,455,o),
(353,391,o),
(273,391,cs),
(191,391,o),
(135,455,o),
(135,549,cs),
(135,643,o),
(191,707,o),
(273,707,cs)
);
}
);
vertWidth = 1000;
width = 515;
}
);
note = cid00140;
unicode = 170;
}
{
glyphname = guillemetleft;
layers = (
{
hints = (
{
horizontal = 1;
place = (75, 499);
place = (75, 499);
type = Stem;
},
{
place = (59, 510);
place = (59, 510);
type = Stem;
}
);
layerId = m01;
shapes = (
{
closed = 1;
nodes = (
(135,325,l),
(341,489,ls),
(347,494,o),
(350,500,o),
(350,508,cs),
(350,567,ls),
(350,575,o),
(347,576,o),
(341,571,cs),
(68,354,ls),
(62,349,o),
(59,342,o),
(59,334,cs),
(59,314,ls),
(59,306,o),
(62,300,o),
(68,295,cs),
(341,78,ls),
(347,73,o),
(350,74,o),
(350,82,cs),
(350,141,ls),
(350,149,o),
(347,156,o),
(341,161,cs)
);
},
{
closed = 1;
nodes = (
(361,325,l),
(560,481,ls),
(566,486,o),
(569,493,o),
(569,501,cs),
(569,567,ls),
(569,575,o),
(566,576,o),
(560,571,cs),
(254,331,ls),
(248,327,o),
(248,322,o),
(254,317,cs),
(560,78,ls),
(566,73,o),
(569,75,o),
(569,83,cs),
(569,149,ls),
(569,157,o),
(566,163,o),
(560,168,cs)
);
}
);
vertWidth = 1000;
width = 641;
}
);
note = cid00109;
unicode = 171;
}
{
glyphname = logicalnot;
layers = (
{
hints = (
{
horizontal = 1;
place = (322, 80);
place = (322, 80);
type = Stem;
},
{
place = (434, 84);
place = (434, 84);
type = Stem;
}
);
layerId = m01;
shapes = (
{
closed = 1;
nodes = (
(507,120,ls),
(514,120,o),
(518,124,o),
(518,130,cs),
(518,391,ls),
(518,398,o),
(514,402,o),
(507,402,cs),
(72,402,ls),
(64,402,o),
(60,398,o),
(60,391,cs),
(60,332,ls),
(60,326,o),
(64,322,o),
(72,322,cs),
(434,322,l),
(434,130,ls),
(434,124,o),
(439,120,o),
(447,120,cs)
);
}
);
vertWidth = 1000;
width = 650;
}
);
note = cid00153;
unicode = 172;
}
{
glyphname = softhyphen;
layers = (
{
hints = (
{
horizontal = 1;
place = (285, 76);
place = (285, 76);
type = Stem;
},
{
place = (83, 334);
place = (83, 334);
type = Stem;
}
);
layerId = m01;
shapes = (
{
closed = 1;
nodes = (
(407,285,ls),
(413,285,o),
(417,288,o),
(417,296,cs),
(417,350,ls),
(417,358,o),
(413,361,o),
(407,361,cs),
(93,361,ls),
(87,361,o),
(83,358,o),
(83,350,cs),
(83,296,ls),
(83,288,o),
(87,285,o),
(93,285,cs)
);
}
);
vertWidth = 1000;
width = 504;
}
);
note = cid00151;
unicode = 173;
}
{
glyphname = registered;
layers = (
{
hints = (
{
horizontal = 1;
place = (222, 45);
place = (222, 45);
type = Stem;
},
{
horizontal = 1;
place = (469, 44);
place = (469, 44);
type = Stem;
},
{
horizontal = 1;
place = (596, 44);
place = (596, 44);
type = Stem;
},
{
horizontal = 1;
place = (729, 44);
place = (729, 44);
type = Stem;
},
{
place = (58, 47);
place = (58, 47);
type = Stem;
},
{
place = (241, 47);
place = (241, 47);
type = Stem;
},
{
place = (385, 48);
place = (385, 48);
type = Stem;
},
{
place = (559, 46);
place = (559, 46);
type = Stem;
}
);
layerId = m01;
shapes = (
{
closed = 1;
nodes = (
(492,222,o),
(605,334,o),
(605,497,cs),
(605,660,o),
(492,773,o),
(332,773,cs),
(172,773,o),
(58,660,o),
(58,497,cs),
(58,334,o),
(172,222,o),
(332,222,cs)
);
},
{
closed = 1;
nodes = (
(189,267,o),
(105,370,o),
(105,497,cs),
(105,625,o),
(189,729,o),
(332,729,cs),
(475,729,o),
(559,625,o),
(559,497,cs),
(559,370,o),
(475,267,o),
(332,267,cs)
);
},
{
closed = 1;
nodes = (
(335,469,l),
(385,384,ls),
(389,378,o),
(396,374,o),
(403,374,cs),
(432,374,ls),
(440,374,o),
(442,378,o),
(438,384,cs),
(383,477,l),
(418,490,o),
(433,519,o),
(433,555,cs),
(432,603,o),
(404,640,o),
(330,640,cs),
(253,640,ls),
(246,640,o),
(241,635,o),
(241,628,cs),
(241,386,ls),
(241,379,o),
(246,374,o),
(253,374,cs),
(276,374,ls),
(283,374,o),
(288,379,o),
(288,386,cs),
(288,469,l)
);
},
{
closed = 1;
nodes = (
(288,596,l),
(329,596,ls),
(369,596,o),
(385,581,o),
(385,555,cs),
(385,528,o),
(369,513,o),
(329,513,cs),
(288,513,l)
);
}
);
vertWidth = 1000;
width = 671;
}
);
note = cid00154;
unicode = 174;
}
{
glyphname = macroncomb;
layers = (
{
hints = (
{
horizontal = 1;
place = (632, 69);
place = (632, 69);
type = Stem;
},
{
place = (80, 284);
place = (80, 284);
type = Stem;
}
);
layerId = m01;
shapes = (
{
closed = 1;
nodes = (
(92,701,ls),
(84,701,o),
(80,698,o),
(80,689,cs),
(80,644,ls),
(80,636,o),
(84,632,o),
(92,632,cs),
(352,632,ls),
(360,632,o),
(364,636,o),
(364,644,cs),
(364,689,ls),
(364,698,o),
(360,701,o),
(352,701,cs)
);
}
);
vertWidth = 1000;
width = 444;
}
);
note = cid00129;
unicode = (175,772);
}
{
glyphname = degree.full;
layers = (
{
hints = (
{
horizontal = 1;
place = (574, 46);
place = (574, 46);
type = Stem;
},
{
horizontal = 1;
place = (799, 47);
place = (799, 47);
type = Stem;
},
{
place = (5, 46);
place = (5, 46);
type = Stem;
},
{
place = (230, 47);
place = (230, 47);
type = Stem;
}
);
layerId = m01;
shapes = (
{
closed = 1;
nodes = (
(65,846,o),
(5,785,o),
(5,710,cs),
(5,634,o),
(65,574,o),
(141,574,cs),
(217,574,o),
(277,635,o),
(277,710,cs),
(277,786,o),
(216,846,o),
(141,846,cs)
);
},
{
closed = 1;
nodes = (
(190,799,o),
(230,760,o),
(230,710,cs),
(230,661,o),
(191,620,o),
(140,620,cs),
(90,620,o),
(51,661,o),
(51,710,cs),
(51,760,o),
(90,799,o),
(140,799,cs)
);
}
);
vertWidth = 1000;
width = 1000;
}
);
note = cid00707;
unicode = 176;
}
{
glyphname = plusminus.full;
layers = (
{
hints = (
{
horizontal = 1;
place = (9, 76);
place = (9, 76);
type = Stem;
},
{
horizontal = 1;
place = (406, 76);
place = (406, 76);
type = Stem;
},
{
place = (462, 77);
place = (462, 77);
type = Stem;
}
);
layerId = m01;
shapes = (
{
closed = 1;
nodes = (
(527,174,ls),
(535,174,o),
(539,178,o),
(539,186,cs),
(539,406,l),
(792,406,ls),
(800,406,o),
(804,410,o),
(804,418,cs),
(804,470,ls),
(804,478,o),
(800,482,o),
(792,482,cs),
(539,482,l),
(539,701,ls),
(539,709,o),
(535,713,o),
(527,713,cs),
(474,713,ls),
(466,713,o),
(462,709,o),
(462,701,cs),
(462,482,l),
(208,482,ls),
(200,482,o),
(196,478,o),
(196,470,cs),
(196,418,ls),
(196,410,o),
(200,406,o),
(208,406,cs),
(462,406,l),
(462,186,ls),
(462,178,o),
(466,174,o),
(474,174,cs)
);
},
{
closed = 1;
nodes = (
(792,9,ls),
(800,9,o),
(804,13,o),
(804,21,cs),
(804,73,ls),
(804,81,o),
(800,85,o),
(792,85,cs),
(208,85,ls),
(200,85,o),
(196,81,o),
(196,73,cs),
(196,21,ls),
(196,13,o),
(200,9,o),
(208,9,cs)
);
}
);
vertWidth = 1000;
width = 1000;
}
);
note = cid00694;
unicode = 177;
}
{
glyphname = twosuperior;
layers = (
{
hints = (
{
horizontal = 1;
place = (326, 61);
place = (326, 61);
type = Stem;
},
{
horizontal = 1;
place = (698, 63);
place = (698, 63);
type = Stem;
},
{
place = (279, 74);
place = (279, 74);
type = Stem;
}
);
layerId = m01;
shapes = (
{
closed = 1;
nodes = (
(357,326,ls),
(363,326,o),
(367,330,o),
(367,337,cs),
(367,378,ls),
(367,384,o),
(363,387,o),
(357,387,cs),
(174,387,l),
(233,445,ls),
(319,529,o),
(353,581,o),
(353,642,cs),
(353,715,o),
(293,761,o),
(212,761,cs),
(139,761,o),
(81,720,o),
(59,655,cs),
(57,648,o),
(59,644,o),
(65,642,c),
(110,633,l),
(115,630,o),
(119,633,o),
(122,639,cs),
(138,679,o),
(169,698,o),
(209,698,cs),
(249,698,o),
(279,675,o),
(279,638,cs),
(279,599,o),
(263,562,o),
(178,476,cs),
(63,360,ls),
(60,357,o),
(59,352,o),
(59,348,cs),
(59,337,ls),
(59,330,o),
(63,326,o),
(68,326,cs)
);
}
);
vertWidth = 1000;
width = 500;
}
);
note = cid00157;
unicode = 178;
}
{
glyphname = threesuperior;
layers = (
{
hints = (
{
horizontal = 1;
place = (315, 64);
place = (315, 64);
type = Stem;
},
{
horizontal = 1;
place = (520, 57);
place = (520, 57);
type = Stem;
},
{
horizontal = 1;
place = (698, 63);
place = (698, 63);
type = Stem;
},
{
place = (296, 74);
place = (296, 74);
type = Stem;
},
{
place = (286, 72);
place = (286, 72);
type = Stem;
}
);
layerId = m01;
shapes = (
{
closed = 1;
nodes = (
(296,315,o),
(370,367,o),
(370,444,cs),
(370,497,o),
(339,533,o),
(291,550,c),
(334,569,o),
(358,607,o),
(358,648,cs),
(358,716,o),
(298,761,o),
(211,761,cs),
(140,761,o),
(79,722,o),
(59,661,cs),
(57,655,o),
(60,649,o),
(67,647,cs),
(108,638,ls),
(114,637,o),
(119,639,o),
(123,645,c),
(136,678,o),
(167,698,o),
(208,698,cs),
(254,698,o),
(286,677,o),
(286,639,cs),
(286,603,o),
(258,577,o),
(207,577,cs),
(187,577,ls),
(180,577,o),
(175,573,o),
(175,567,cs),
(175,532,ls),
(175,525,o),
(180,520,o),
(187,520,cs),
(207,520,ls),
(263,520,o),
(296,491,o),
(296,451,cs),
(296,407,o),
(258,379,o),
(206,379,cs),
(157,379,o),
(122,406,o),
(106,443,cs),
(103,450,o),
(96,452,o),
(91,450,cs),
(52,439,ls),
(45,437,o),
(42,433,o),
(45,425,cs),
(68,362,o),
(125,315,o),
(209,315,cs)
);
}
);
vertWidth = 1000;
width = 500;
}
);
note = cid00158;
unicode = 179;
}
{
glyphname = acute.full;
layers = (
{
hints = (
{
horizontal = 1;
place = (588, 154);
place = (588, 154);
type = Stem;
},
{
place = (429, 179);
place = (429, 179);
type = Stem;
}
);
layerId = m01;
shapes = (
{
closed = 1;
nodes = (
(529,742,ls),
(521,742,o),
(515,739,o),
(511,732,cs),
(431,598,ls),
(426,591,o),
(428,588,o),
(436,588,cs),
(497,588,ls),
(505,588,o),
(512,591,o),
(516,597,cs),
(606,732,ls),
(611,739,o),
(609,742,o),
(601,742,cs)
);
}
);
vertWidth = 1000;
width = 1000;
}
);
note = cid00645;
unicode = 180;
}
{
glyphname = micro;
layers = (
{
hints = (
{
horizontal = 1;
place = (-18, 21);
target = up;
type = BottomGhost;
},
{
place = (82, 81);
place = (82, 81);
type = Stem;
},
{
place = (459, 81);
place = (459, 81);
type = Stem;
},
{
horizontal = 1;
place = (-24, 65);
place = (-24, 65);
type = Stem;
},
{
horizontal = 1;
place = (-33, 75);
place = (-33, 75);
type = Stem;
},
{
place = (480, 60);
place = (480, 60);
type = Stem;
}
);
layerId = m01;
shapes = (
{
closed = 1;
nodes = (
(646,-16,o),
(649,-12,o),
(649,-4,cs),
(649,39,ls),
(649,46,o),
(646,49,o),
(638,48,c),
(622,42,o),
(609,41,o),
(600,41,cs),
(565,42,o),
(540,67,o),
(540,123,cs),
(540,508,ls),
(540,514,o),
(536,518,o),
(529,518,cs),
(470,518,ls),
(463,518,o),
(459,514,o),
(459,507,cs),
(459,213,ls),
(459,92,o),
(382,42,o),
(312,42,cs),
(223,42,o),
(163,93,o),
(163,193,cs),
(163,508,ls),
(163,514,o),
(160,517,o),
(153,518,c),
(93,518,ls),
(89,518,o),
(86,516,o),
(82,508,c),
(82,-244,ls),
(82,-251,o),
(86,-255,o),
(93,-255,cs),
(153,-255,ls),
(159,-255,o),
(163,-251,o),
(163,-244,cs),
(163,47,l),
(185,-1,o),
(243,-33,o),
(312,-33,cs),
(382,-33,o),
(458,10,o),
(480,87,c),
(487,15,o),
(532,-24,o),
(588,-24,cs),
(602,-24,o),
(620,-22,o),
(638,-18,cs)
);
}
);
vertWidth = 1000;
width = 655;
}
);
note = cid00159;
unicode = 181;
}
{
glyphname = paragraph.full;
layers = (
{
hints = (
{
horizontal = 1;
place = (745, 61);
place = (745, 61);
type = Stem;
},
{
place = (449, 66);
place = (449, 66);
type = Stem;
},
{
place = (620, 66);
place = (620, 66);
type = Stem;
}
);
layerId = m01;
shapes = (
{
closed = 1;
nodes = (
(503,-68,ls),
(511,-68,o),
(515,-64,o),
(515,-56,cs),
(515,745,l),
(620,745,l),
(620,-56,ls),
(620,-64,o),
(624,-68,o),
(632,-68,cs),
(674,-68,ls),
(682,-68,o),
(686,-64,o),
(686,-56,cs),
(686,794,ls),
(686,802,o),
(682,806,o),
(674,806,cs),
(445,806,ls),
(297,806,o),
(192,704,o),
(192,552,cs),
(192,466,o),
(229,382,o),
(303,335,cs),
(342,310,o),
(392,298,o),
(449,298,c),
(449,-56,ls),
(449,-64,o),
(453,-68,o),
(461,-68,cs)
);
}
);
vertWidth = 1000;
width = 1000;
}
);
note = cid00778;
unicode = 182;
}
{
glyphname = periodcentered;
layers = (
{
hints = (
{
horizontal = 1;
place = (267, 120);
place = (267, 120);
type = Stem;
},
{
place = (112, 123);
place = (112, 123);
type = Stem;
}
);
layerId = m01;
shapes = (
{
closed = 1;
nodes = (
(208,267,o),
(235,292,o),
(235,327,cs),
(235,362,o),
(208,387,o),
(173,387,cs),
(138,387,o),
(112,362,o),
(112,327,cs),
(112,292,o),
(138,267,o),
(173,267,cs)
);
}
);
vertWidth = 1000;
width = 361;
}
);
note = cid00117;
unicode = (183,8729);
}
{
glyphname = cedillacomb;
layers = (
{
hints = (
{
horizontal = 1;
place = (-267, 59);
place = (-267, 59);
type = Stem;
},
{
horizontal = 1;
place = (-140, 141);
place = (-140, 141);
type = Stem;
},
{
place = (299, 72);
place = (299, 72);
type = Stem;
},
{
horizontal = 1;
place = (-140, 56);
place = (-140, 56);
type = Stem;
}
);
layerId = m01;
shapes = (
{
closed = 1;
nodes = (
(225,1,ls),
(217,1,o),
(212,-3,o),
(210,-11,cs),
(173,-128,ls),
(171,-136,o),
(174,-140,o),
(182,-140,cs),
(198,-140,o),
(214,-139,o),
(231,-140,cs),
(266,-140,o),
(299,-153,o),
(299,-174,cs),
(299,-195,o),
(272,-208,o),
(231,-208,cs),
(203,-208,o),
(177,-203,o),
(150,-197,cs),
(142,-195,o),
(139,-198,o),
(139,-206,cs),
(141,-240,ls),
(141,-248,o),
(145,-253,o),
(153,-256,cs),
(179,-263,o),
(207,-267,o),
(235,-267,cs),
(316,-267,o),
(371,-227,o),
(371,-173,cs),
(371,-119,o),
(318,-87,o),
(252,-84,c),
(276,-11,ls),
(278,-3,o),
(276,1,o),
(268,1,cs)
);
}
);
vertWidth = 1000;
width = 482;
}
);
note = cid00134;
unicode = (184,807);
}
{
glyphname = onesuperior;
layers = (
{
hints = (
{
horizontal = 1;
place = (326, 425);
place = (326, 425);
type = Stem;
},
{
place = (205, 72);
place = (205, 72);
type = Stem;
}
);
layerId = m01;
shapes = (
{
closed = 1;
nodes = (
(266,326,ls),
(273,326,o),
(277,330,o),
(277,336,cs),
(277,741,ls),
(277,748,o),
(273,751,o),
(266,751,cs),
(234,751,ls),
(229,751,o),
(226,751,o),
(222,748,cs),
(100,660,ls),
(96,657,o),
(94,653,o),
(97,646,cs),
(105,630,ls),
(108,624,o),
(112,623,o),
(118,625,cs),
(205,663,l),
(205,336,ls),
(205,330,o),
(209,326,o),
(216,326,cs)
);
}
);
vertWidth = 1000;
width = 500;
}
);
note = cid00160;
unicode = 185;
}
{
glyphname = ordmasculine;
layers = (
{
hints = (
{
horizontal = 1;
place = (321, 71);
place = (321, 71);
type = Stem;
},
{
horizontal = 1;
place = (706, 70);
place = (706, 70);
type = Stem;
},
{
place = (45, 78);
place = (45, 78);
type = Stem;
},
{
place = (405, 78);
place = (405, 78);
type = Stem;
}
);
layerId = m01;
shapes = (
{
closed = 1;
nodes = (
(133,776,o),
(45,681,o),
(45,549,cs),
(45,416,o),
(133,321,o),
(264,321,cs),
(396,321,o),
(483,416,o),
(483,549,cs),
(483,681,o),
(396,776,o),
(264,776,cs)
);
},
{
closed = 1;
nodes = (
(347,706,o),
(405,642,o),
(405,549,cs),
(405,455,o),
(347,392,o),
(264,392,cs),
(181,392,o),
(123,455,o),
(123,549,cs),
(123,642,o),
(181,706,o),
(264,706,cs)
);
}
);
vertWidth = 1000;
width = 528;
}
);
note = cid00144;
unicode = 186;
}
{
glyphname = guillemetright;
layers = (
{
hints = (
{
horizontal = 1;
place = (75, 499);
place = (75, 499);
type = Stem;
},
{
place = (72, 510);
place = (72, 510);
type = Stem;
}
);
layerId = m01;
shapes = (
{
closed = 1;
nodes = (
(280,325,l),
(81,168,ls),
(75,163,o),
(72,157,o),
(72,149,cs),
(72,83,ls),
(72,75,o),
(75,73,o),
(81,78,cs),
(387,317,ls),
(393,322,o),
(393,327,o),
(387,331,cs),
(81,571,ls),
(75,576,o),
(72,575,o),
(72,567,cs),
(72,501,ls),
(72,493,o),
(75,486,o),
(81,481,cs)
);
},
{
closed = 1;
nodes = (
(506,325,l),
(300,161,ls),
(294,156,o),
(291,149,o),
(291,141,cs),
(291,82,ls),
(291,74,o),
(294,73,o),
(300,78,cs),
(573,295,ls),
(579,300,o),
(582,306,o),
(582,314,cs),
(582,334,ls),
(582,342,o),
(579,349,o),
(573,354,cs),
(300,571,ls),
(294,576,o),
(291,575,o),
(291,567,cs),
(291,508,ls),
(291,500,o),
(294,494,o),
(300,489,cs)
);
}
);
vertWidth = 1000;
width = 641;
}
);
note = cid00123;
unicode = 187;
}
{
glyphname = onequarter;
layers = (
{
hints = (
{
horizontal = 1;
place = (63, 57);
place = (63, 57);
type = Stem;
},
{
place = (205, 72);
place = (205, 72);
type = Stem;
},
{
place = (787, 71);
place = (787, 71);
type = Stem;
}
);
layerId = m01;
shapes = (
{
closed = 1;
nodes = (
(266,326,ls),
(273,326,o),
(277,330,o),
(277,336,cs),
(277,741,ls),
(277,748,o),
(273,751,o),
(266,751,cs),
(234,751,ls),
(229,751,o),
(226,751,o),
(222,748,cs),
(100,660,ls),
(96,657,o),
(94,653,o),
(97,646,cs),
(105,630,ls),
(108,624,o),
(112,623,o),
(118,625,cs),
(205,663,l),
(205,336,ls),
(205,330,o),
(209,326,o),
(216,326,cs)
);
},
{
closed = 1;
nodes = (
(286,-25,ls),
(292,-25,o),
(296,-23,o),
(299,-18,cs),
(783,737,l),
(789,744,o),
(784,751,o),
(776,751,cs),
(715,751,ls),
(708,751,o),
(705,749,o),
(701,743,cs),
(217,-11,ls),
(212,-19,o),
(216,-25,o),
(224,-25,cs)
);
},
{
closed = 1;
nodes = (
(849,-25,ls),
(855,-25,o),
(858,-21,o),
(858,-14,cs),
(858,63,l),
(910,63,ls),
(916,63,o),
(921,67,o),
(921,72,cs),
(921,110,ls),
(921,117,o),
(916,120,o),
(910,120,cs),
(858,120,l),
(858,390,ls),
(858,397,o),
(855,400,o),
(849,400,cs),
(811,400,ls),
(805,400,o),
(801,398,o),
(798,394,cs),
(573,97,l),
(570,92,o),
(569,89,o),
(569,84,cs),
(569,72,ls),
(569,66,o),
(573,63,o),
(578,63,cs),
(787,63,l),
(787,-14,ls),
(787,-21,o),
(792,-25,o),
(798,-25,cs)
);
},
{
closed = 1;
nodes = (
(787,120,l),
(652,120,l),
(787,298,l)
);
}
);
vertWidth = 1000;
width = 1009;
}
);
note = cid00161;
unicode = 188;
}
{
glyphname = onehalf;
layers = (
{
hints = (
{
horizontal = 1;
place = (-25, 61);
place = (-25, 61);
type = Stem;
},
{
horizontal = 1;
place = (347, 63);
place = (347, 63);
type = Stem;
},
{
place = (205, 72);
place = (205, 72);
type = Stem;
},
{
place = (813, 74);
place = (813, 74);
type = Stem;
}
);
layerId = m01;
shapes = (
{
closed = 1;
nodes = (
(252,-25,ls),
(257,-25,o),
(261,-23,o),
(264,-18,cs),
(748,737,l),
(754,744,o),
(749,751,o),
(741,751,cs),
(680,751,ls),
(673,751,o),
(670,749,o),
(666,743,cs),
(182,-11,l),
(178,-19,o),
(181,-25,o),
(189,-25,cs)
);
},
{
closed = 1;
nodes = (
(266,326,ls),
(273,326,o),
(277,330,o),
(277,336,cs),
(277,741,ls),
(277,748,o),
(273,751,o),
(266,751,cs),
(234,751,ls),
(229,751,o),
(226,751,o),
(222,748,cs),
(100,660,ls),
(96,657,o),
(94,653,o),
(97,646,cs),
(105,630,ls),
(108,624,o),
(112,623,o),
(118,625,cs),
(205,663,l),
(205,336,ls),
(205,330,o),
(209,326,o),
(216,326,cs)
);
},
{
closed = 1;
nodes = (
(891,-25,ls),
(897,-25,o),
(901,-21,o),
(901,-14,cs),
(901,27,ls),
(901,33,o),
(897,36,o),
(891,36,cs),
(708,36,l),
(767,94,ls),
(853,178,o),
(887,230,o),
(887,291,cs),
(887,364,o),
(827,410,o),
(746,410,cs),
(673,410,o),
(615,369,o),
(593,304,cs),
(591,297,o),
(593,293,o),
(599,291,c),
(644,282,l),
(649,279,o),
(653,282,o),
(656,288,cs),
(672,328,o),
(703,347,o),
(743,347,cs),
(783,347,o),
(813,324,o),
(813,287,cs),
(813,248,o),
(797,211,o),
(712,125,cs),
(597,9,ls),
(594,6,o),
(593,1,o),
(593,-3,cs),
(593,-14,ls),
(593,-21,o),
(597,-25,o),
(602,-25,cs)
);
}
);
vertWidth = 1000;
width = 1009;
}
);
note = cid00162;
unicode = 189;
}
{
glyphname = threequarters;
layers = (
{
hints = (
{
horizontal = 1;
place = (63, 57);
place = (63, 57);
type = Stem;
},
{
horizontal = 1;
place = (315, 64);
place = (315, 64);
type = Stem;
},
{
horizontal = 1;
place = (520, 57);
place = (520, 57);
type = Stem;
},
{
horizontal = 1;
place = (698, 63);
place = (698, 63);
type = Stem;
},
{
place = (296, 74);
place = (296, 74);
type = Stem;
},
{
place = (787, 71);
place = (787, 71);
type = Stem;
},
{
place = (286, 72);
place = (286, 72);
type = Stem;
}
);
layerId = m01;
shapes = (
{
closed = 1;
nodes = (
(296,315,o),
(370,367,o),
(370,444,cs),
(370,497,o),
(339,533,o),
(291,550,c),
(334,569,o),
(358,607,o),
(358,648,cs),
(358,716,o),
(298,761,o),
(211,761,cs),
(140,761,o),
(79,722,o),
(59,661,cs),
(57,655,o),
(60,649,o),
(67,647,cs),
(108,638,ls),
(114,637,o),
(119,639,o),
(123,645,c),
(136,678,o),
(167,698,o),
(208,698,cs),
(254,698,o),
(286,677,o),
(286,639,cs),
(286,603,o),
(258,577,o),
(207,577,cs),
(187,577,ls),
(180,577,o),
(175,573,o),
(175,567,cs),
(175,532,ls),
(175,525,o),
(180,520,o),
(187,520,cs),
(207,520,ls),
(263,520,o),
(296,491,o),
(296,451,cs),
(296,407,o),
(258,379,o),
(206,379,cs),
(157,379,o),
(122,406,o),
(106,443,cs),
(103,450,o),
(96,452,o),
(91,450,cs),
(52,439,ls),
(45,437,o),
(42,433,o),
(45,425,cs),
(68,362,o),
(125,315,o),
(209,315,cs)
);
},
{
closed = 1;
nodes = (
(302,-25,ls),
(308,-25,o),
(312,-23,o),
(315,-18,cs),
(799,737,ls),
(804,744,o),
(800,751,o),
(792,751,cs),
(730,751,ls),
(724,751,o),
(721,749,o),
(717,743,cs),
(233,-11,ls),
(228,-19,o),
(231,-25,o),
(240,-25,cs)
);
},
{
closed = 1;
nodes = (
(849,-25,ls),
(855,-25,o),
(858,-21,o),
(858,-14,cs),
(858,63,l),
(910,63,ls),
(916,63,o),
(921,67,o),
(921,72,cs),
(921,110,ls),
(921,117,o),
(916,120,o),
(910,120,cs),
(858,120,l),
(858,390,ls),
(858,397,o),
(855,400,o),
(849,400,cs),
(811,400,ls),
(805,400,o),
(801,398,o),
(798,394,cs),
(573,97,l),
(570,92,o),
(569,89,o),
(569,84,cs),
(569,72,ls),
(569,66,o),
(573,63,o),
(578,63,cs),
(787,63,l),
(787,-14,ls),
(787,-21,o),
(792,-25,o),
(798,-25,cs)
);
},
{
closed = 1;
nodes = (
(787,120,l),
(652,120,l),
(787,298,l)
);
}
);
vertWidth = 1000;
width = 1009;
}
);
note = cid00163;
unicode = 190;
}
{
glyphname = questiondown;
layers = (
{
hints = (
{
horizontal = 1;
place = (-282, 87);
place = (-282, 87);
type = Stem;
},
{
horizontal = 1;
place = (99, 239);
place = (99, 239);
type = Stem;
},
{
place = (81, 92);
place = (81, 92);
type = Stem;
},
{
place = (314, 80);
place = (314, 80);
type = Stem;
},
{
horizontal = 1;
place = (99, 75);
place = (99, 75);
type = Stem;
},
{
horizontal = 1;
place = (402, 118);
place = (402, 118);
type = Stem;
},
{
place = (293, 122);
place = (293, 122);
type = Stem;
}
);
layerId = m01;
shapes = (
{
closed = 1;
nodes = (
(325,338,ls),
(319,338,o),
(314,335,o),
(314,326,cs),
(312,174,l),
(166,165,o),
(81,63,o),
(81,-66,cs),
(81,-192,o),
(176,-282,o),
(314,-282,cs),
(438,-282,o),
(529,-214,o),
(568,-98,cs),
(570,-91,o),
(568,-86,o),
(561,-84,cs),
(498,-67,ls),
(492,-65,o),
(487,-68,o),
(484,-74,c),
(454,-154,o),
(400,-195,o),
(320,-195,cs),
(228,-195,o),
(173,-138,o),
(173,-59,cs),
(173,33,o),
(230,99,o),
(343,99,cs),
(385,99,ls),
(393,99,o),
(397,103,o),
(397,111,cs),
(394,326,ls),
(394,335,o),
(389,338,o),
(383,338,cs)
);
},
{
closed = 1;
nodes = (
(320,520,o),
(293,495,o),
(293,460,cs),
(293,425,o),
(320,402,o),
(355,402,cs),
(388,402,o),
(415,425,o),
(415,460,cs),
(415,495,o),
(388,520,o),
(355,520,cs)
);
}
);
vertWidth = 1000;
width = 604;
}
);
note = cid00126;
unicode = 191;
}
{
glyphname = Agrave;
layers = (
{
hints = (
{
horizontal = 1;
place = (169, 83);
place = (169, 83);
type = Stem;
},
{
horizontal = 1;
place = (830, 154);
place = (830, 154);
type = Stem;
},
{
place = (27, 708);
place = (27, 708);
type = Stem;
}
);
layerId = m01;
shapes = (
{
closed = 1;
nodes = (
(110,-25,ls),
(116,-25,o),
(120,-23,o),
(124,-17,c),
(197,169,l),
(563,169,l),
(636,-17,ls),
(638,-23,o),
(644,-25,o),
(649,-25,cs),
(725,-25,ls),
(733,-25,o),
(737,-20,o),
(734,-12,cs),
(425,742,l),
(423,749,o),
(418,751,o),
(412,751,cs),
(350,751,ls),
(344,751,o),
(339,749,o),
(336,742,cs),
(29,-12,ls),
(25,-20,o),
(29,-25,o),
(37,-25,cs)
);
},
{
closed = 1;
nodes = (
(298,984,ls),
(290,984,o),
(288,981,o),
(293,974,cs),
(383,840,ls),
(387,833,o),
(393,830,o),
(401,830,cs),
(462,830,ls),
(471,830,o),
(472,833,o),
(468,840,cs),
(388,974,ls),
(383,981,o),
(377,984,o),
(369,984,cs)
);
},
{
closed = 1;
nodes = (
(532,252,l),
(228,252,l),
(379,641,l)
);
}
);
vertWidth = 1000;
width = 761;
}
);
note = cid00164;
unicode = 192;
}
{
glyphname = Aacute;
layers = (
{
hints = (
{
horizontal = 1;
place = (169, 83);
place = (169, 83);
type = Stem;
},
{
horizontal = 1;
place = (830, 154);
place = (830, 154);
type = Stem;
},
{
place = (27, 708);
place = (27, 708);
type = Stem;
}
);
layerId = m01;
shapes = (
{
closed = 1;
nodes = (
(110,-25,ls),
(116,-25,o),
(120,-23,o),
(124,-17,c),
(197,169,l),
(563,169,l),
(636,-17,ls),
(638,-23,o),
(644,-25,o),
(649,-25,cs),
(725,-25,ls),
(733,-25,o),
(737,-20,o),
(734,-12,cs),
(425,742,l),
(423,749,o),
(418,751,o),
(412,751,cs),
(350,751,ls),
(344,751,o),
(339,749,o),
(336,742,cs),
(29,-12,ls),
(25,-20,o),
(29,-25,o),
(37,-25,cs)
);
},
{
closed = 1;
nodes = (
(414,984,ls),
(406,984,o),
(400,981,o),
(396,974,cs),
(315,840,ls),
(311,833,o),
(313,830,o),
(321,830,cs),
(381,830,ls),
(389,830,o),
(396,833,o),
(400,839,cs),
(490,974,ls),
(495,981,o),
(493,984,o),
(485,984,cs)
);
},
{
closed = 1;
nodes = (
(532,252,l),
(228,252,l),
(379,641,l)
);
}
);
vertWidth = 1000;
width = 761;
}
);
note = cid00165;
unicode = 193;
}
{
glyphname = Acircumflex;
layers = (
{
hints = (
{
horizontal = 1;
place = (169, 83);
place = (169, 83);
type = Stem;
},
{
horizontal = 1;
place = (830, 155);
place = (830, 155);
type = Stem;
},
{
place = (27, 708);
place = (27, 708);
type = Stem;
},
{
horizontal = 1;
place = (925, 60);
place = (925, 60);
type = Stem;
}
);
layerId = m01;
shapes = (
{
closed = 1;
nodes = (
(110,-25,ls),
(116,-25,o),
(120,-23,o),
(124,-17,c),
(197,169,l),
(563,169,l),
(636,-17,ls),
(638,-23,o),
(644,-25,o),
(649,-25,cs),
(725,-25,ls),
(733,-25,o),
(737,-20,o),
(734,-12,cs),
(425,742,l),
(423,749,o),
(418,751,o),
(412,751,cs),
(350,751,ls),
(344,751,o),
(339,749,o),
(336,742,cs),
(29,-12,ls),
(25,-20,o),
(29,-25,o),
(37,-25,cs)
);
},
{
closed = 1;
nodes = (
(352,985,ls),
(344,985,o),
(337,982,o),
(332,976,cs),
(230,839,ls),
(226,833,o),
(227,830,o),
(235,830,cs),
(292,830,ls),
(300,830,o),
(306,833,o),
(312,839,c),
(382,925,l),
(451,839,ls),
(456,833,o),
(462,830,o),
(470,830,cs),
(528,830,ls),
(536,830,o),
(537,833,o),
(532,839,cs),
(430,976,ls),
(426,982,o),
(419,985,o),
(411,985,cs)
);
},
{
closed = 1;
nodes = (
(532,252,l),
(228,252,l),
(379,641,l)
);
}
);
vertWidth = 1000;
width = 761;
}
);
note = cid00166;
unicode = 194;
}
{
glyphname = Atilde;
layers = (
{
hints = (
{
horizontal = 1;
place = (169, 83);
place = (169, 83);
type = Stem;
},
{
horizontal = 1;
place = (858, 61);
place = (858, 61);
type = Stem;
},
{
place = (27, 708);
place = (27, 708);
type = Stem;
},
{
horizontal = 1;
place = (924, 61);
place = (924, 61);
type = Stem;
},
{
place = (217, 67);
place = (217, 67);
type = Stem;
}
);
layerId = m01;
shapes = (
{
closed = 1;
nodes = (
(110,-25,ls),
(116,-25,o),
(120,-23,o),
(124,-17,c),
(197,169,l),
(563,169,l),
(636,-17,ls),
(638,-23,o),
(644,-25,o),
(649,-25,cs),
(725,-25,ls),
(733,-25,o),
(737,-20,o),
(734,-12,cs),
(425,742,l),
(423,749,o),
(418,751,o),
(412,751,cs),
(350,751,ls),
(344,751,o),
(339,749,o),
(336,742,cs),
(29,-12,ls),
(25,-20,o),
(29,-25,o),
(37,-25,cs)
);
},
{
closed = 1;
nodes = (
(217,867,o),
(220,863,o),
(229,863,cs),
(272,863,ls),
(279,863,o),
(284,866,o),
(284,875,c),
(287,897,o),
(293,924,o),
(316,924,cs),
(346,924,o),
(374,858,o),
(444,858,cs),
(508,858,o),
(533,905,o),
(537,968,cs),
(537,976,o),
(533,980,o),
(525,980,cs),
(482,980,ls),
(474,980,o),
(470,976,o),
(469,968,cs),
(467,946,o),
(461,919,o),
(438,919,cs),
(408,919,o),
(380,985,o),
(309,985,cs),
(247,985,o),
(221,937,o),
(217,875,cs)
);
},
{
closed = 1;
nodes = (
(532,252,l),
(228,252,l),
(379,641,l)
);
}
);
vertWidth = 1000;
width = 761;
}
);
note = cid00167;
unicode = 195;
}
{
glyphname = Adieresis;
layers = (
{
hints = (
{
horizontal = 1;
place = (169, 83);
place = (169, 83);
type = Stem;
},
{
horizontal = 1;
place = (852, 102);
place = (852, 102);
type = Stem;
},
{
place = (246, 104);
place = (246, 104);
type = Stem;
},
{
place = (412, 104);
place = (412, 104);
type = Stem;
}
);
layerId = m01;
shapes = (
{
closed = 1;
nodes = (
(110,-25,ls),
(116,-25,o),
(120,-23,o),
(124,-17,c),
(197,169,l),
(563,169,l),
(636,-17,ls),
(638,-23,o),
(644,-25,o),
(649,-25,cs),
(725,-25,ls),
(733,-25,o),
(737,-20,o),
(734,-12,cs),
(425,742,l),
(423,749,o),
(418,751,o),
(412,751,cs),
(350,751,ls),
(344,751,o),
(339,749,o),
(336,742,cs),
(29,-12,ls),
(25,-20,o),
(29,-25,o),
(37,-25,cs)
);
},
{
closed = 1;
nodes = (
(269,954,o),
(246,932,o),
(246,903,cs),
(246,874,o),
(269,852,o),
(298,852,cs),
(328,852,o),
(350,874,o),
(350,903,cs),
(350,932,o),
(328,954,o),
(298,954,cs)
);
},
{
closed = 1;
nodes = (
(434,954,o),
(412,932,o),
(412,903,cs),
(412,874,o),
(434,852,o),
(464,852,cs),
(493,852,o),
(516,874,o),
(516,903,cs),
(516,932,o),
(494,954,o),
(464,954,cs)
);
},
{
closed = 1;
nodes = (
(532,252,l),
(228,252,l),
(379,641,l)
);
}
);
vertWidth = 1000;
width = 761;
}
);
note = cid00168;
unicode = 196;
}
{
glyphname = Aring;
layers = (
{
hints = (
{
horizontal = 1;
place = (169, 83);
place = (169, 83);
type = Stem;
},
{
horizontal = 1;
place = (807, 51);
place = (807, 51);
type = Stem;
},
{
horizontal = 1;
place = (961, 50);
place = (961, 50);
type = Stem;
},
{
place = (276, 55);
place = (276, 55);
type = Stem;
},
{
place = (431, 55);
place = (431, 55);
type = Stem;
}
);
layerId = m01;
shapes = (
{
closed = 1;
nodes = (
(110,-25,ls),
(116,-25,o),
(120,-23,o),
(124,-17,c),
(197,169,l),
(563,169,l),
(636,-17,ls),
(638,-23,o),
(644,-25,o),
(649,-25,cs),
(725,-25,ls),
(733,-25,o),
(737,-20,o),
(734,-12,cs),
(425,742,l),
(423,749,o),
(418,751,o),
(412,751,cs),
(350,751,ls),
(344,751,o),
(339,749,o),
(336,742,cs),
(29,-12,ls),
(25,-20,o),
(29,-25,o),
(37,-25,cs)
);
},
{
closed = 1;
nodes = (
(276,853,o),
(323,807,o),
(381,807,cs),
(439,807,o),
(486,853,o),
(486,910,cs),
(486,966,o),
(439,1011,o),
(381,1011,cs),
(323,1011,o),
(276,966,o),
(276,910,cs)
);
},
{
closed = 1;
nodes = (
(532,252,l),
(228,252,l),
(379,641,l)
);
},
{
closed = 1;
nodes = (
(331,937,o),
(354,961,o),
(381,961,cs),
(408,961,o),
(431,937,o),
(431,909,cs),
(431,881,o),
(408,858,o),
(381,858,cs),
(354,858,o),
(331,881,o),
(331,909,cs)
);
}
);
vertWidth = 1000;
width = 761;
}
);
note = cid00169;
unicode = 197;
}
{
glyphname = AE;
layers = (
{
hints = (
{
horizontal = 1;
place = (-22, 77);
place = (-22, 77);
type = Stem;
},
{
horizontal = 1;
place = (184, 73);
place = (184, 73);
type = Stem;
},
{
horizontal = 1;
place = (347, 75);
place = (347, 75);
type = Stem;
},
{
horizontal = 1;
place = (689, 75);
place = (689, 75);
type = Stem;
},
{
place = (541, 84);
place = (541, 84);
type = Stem;
}
);
layerId = m01;
shapes = (
{
closed = 1;
nodes = (
(502,764,ls),
(495,764,o),
(491,761,o),
(487,755,cs),
(29,-11,ls),
(25,-18,o),
(28,-22,o),
(36,-22,cs),
(102,-22,ls),
(109,-22,o),
(113,-19,o),
(117,-13,cs),
(237,184,l),
(541,184,l),
(541,-11,ls),
(541,-17,o),
(545,-22,o),
(552,-22,cs),
(1036,-22,ls),
(1042,-22,o),
(1047,-17,o),
(1047,-11,cs),
(1047,43,ls),
(1047,51,o),
(1042,55,o),
(1036,55,cs),
(625,55,l),
(625,347,l),
(987,347,ls),
(995,347,o),
(999,352,o),
(999,359,cs),
(999,411,ls),
(999,418,o),
(995,422,o),
(987,422,cs),
(625,422,l),
(625,689,l),
(1023,689,ls),
(1030,689,o),
(1035,693,o),
(1035,700,cs),
(1035,753,ls),
(1035,760,o),
(1030,764,o),
(1023,764,cs)
);
},
{
closed = 1;
nodes = (
(541,257,l),
(279,257,l),
(541,687,l)
);
}
);
vertWidth = 1000;
width = 1088;
}
);
note = cid00139;
unicode = 198;
}
{
glyphname = Ccedilla;
layers = (
{
hints = (
{
horizontal = 1;
place = (-267, 59);
place = (-267, 59);
type = Stem;
},
{
horizontal = 1;
place = (-140, 56);
place = (-140, 56);
type = Stem;
},
{
horizontal = 1;
place = (-39, 86);
place = (-39, 86);
type = Stem;
},
{
horizontal = 1;
place = (679, 87);
place = (679, 87);
type = Stem;
},
{
place = (61, 92);
place = (61, 92);
type = Stem;
},
{
place = (500, 72);
place = (500, 72);
type = Stem;
}
);
layerId = m01;
shapes = (
{
closed = 1;
nodes = (
(769,205,o),
(767,210,o),
(761,212,cs),
(697,231,ls),
(690,233,o),
(685,230,o),
(683,223,cs),
(643,109,o),
(555,47,o),
(431,47,cs),
(253,47,o),
(153,177,o),
(153,363,cs),
(153,548,o),
(252,679,o),
(431,679,cs),
(546,679,o),
(623,628,o),
(667,534,cs),
(669,529,o),
(674,526,o),
(681,528,cs),
(745,547,ls),
(753,549,o),
(755,555,o),
(753,562,c),
(700,691,o),
(589,766,o),
(430,766,cs),
(212,766,o),
(61,610,o),
(61,363,cs),
(61,127,o),
(196,-27,o),
(402,-39,c),
(374,-128,ls),
(372,-136,o),
(375,-140,o),
(383,-140,cs),
(399,-140,o),
(416,-139,o),
(432,-140,cs),
(468,-140,o),
(500,-153,o),
(500,-174,cs),
(500,-195,o),
(473,-208,o),
(432,-208,cs),
(404,-208,o),
(378,-203,o),
(351,-197,cs),
(343,-195,o),
(340,-198,o),
(340,-206,cs),
(342,-240,ls),
(342,-248,o),
(346,-253,o),
(354,-256,cs),
(380,-263,o),
(408,-267,o),
(436,-267,cs),
(517,-267,o),
(572,-227,o),
(572,-173,cs),
(572,-119,o),
(519,-87,o),
(453,-84,c),
(468,-38,l),
(626,-25,o),
(727,70,o),
(768,200,cs)
);
}
);
vertWidth = 1000;
width = 823;
}
);
note = cid00170;
unicode = 199;
}
{
glyphname = Egrave;
layers = (
{
hints = (
{
horizontal = 1;
place = (-25, 84);
place = (-25, 84);
type = Stem;
},
{
horizontal = 1;
place = (335, 83);
place = (335, 83);
type = Stem;
},
{
horizontal = 1;
place = (667, 84);
place = (667, 84);
type = Stem;
},
{
horizontal = 1;
place = (830, 154);
place = (830, 154);
type = Stem;
},
{
place = (95, 89);
place = (95, 89);
type = Stem;
}
);
layerId = m01;
shapes = (
{
closed = 1;
nodes = (
(587,-25,ls),
(593,-25,o),
(597,-21,o),
(597,-13,cs),
(597,48,ls),
(597,54,o),
(593,59,o),
(587,59,cs),
(184,59,l),
(184,335,l),
(540,335,ls),
(546,335,o),
(551,340,o),
(551,346,cs),
(551,406,ls),
(551,414,o),
(546,418,o),
(540,418,cs),
(184,418,l),
(184,667,l),
(574,667,ls),
(581,667,o),
(586,672,o),
(586,679,cs),
(586,740,ls),
(586,747,o),
(581,751,o),
(574,751,cs),
(107,751,ls),
(99,751,o),
(95,747,o),
(95,740,cs),
(95,-13,ls),
(95,-21,o),
(99,-25,o),
(107,-25,cs)
);
},
{
closed = 1;
nodes = (
(246,984,ls),
(238,984,o),
(236,981,o),
(240,974,cs),
(330,840,ls),
(335,833,o),
(341,830,o),
(349,830,cs),
(410,830,ls),
(418,830,o),
(420,833,o),
(416,840,cs),
(335,974,ls),
(331,981,o),
(325,984,o),
(317,984,cs)
);
}
);
vertWidth = 1000;
width = 638;
}
);
note = cid00171;
unicode = 200;
}
{
glyphname = Eacute;
layers = (
{
hints = (
{
horizontal = 1;
place = (-25, 84);
place = (-25, 84);
type = Stem;
},
{
horizontal = 1;
place = (335, 83);
place = (335, 83);
type = Stem;
},
{
horizontal = 1;
place = (667, 84);
place = (667, 84);
type = Stem;
},
{
horizontal = 1;
place = (830, 154);
place = (830, 154);
type = Stem;
},
{
place = (95, 89);
place = (95, 89);
type = Stem;
}
);
layerId = m01;
shapes = (
{
closed = 1;
nodes = (
(587,-25,ls),
(593,-25,o),
(597,-21,o),
(597,-13,cs),
(597,48,ls),
(597,54,o),
(593,59,o),
(587,59,cs),
(184,59,l),
(184,335,l),
(540,335,ls),
(546,335,o),
(551,340,o),
(551,346,cs),
(551,406,ls),
(551,414,o),
(546,418,o),
(540,418,cs),
(184,418,l),
(184,667,l),
(574,667,ls),
(581,667,o),
(586,672,o),
(586,679,cs),
(586,740,ls),
(586,747,o),
(581,751,o),
(574,751,cs),
(107,751,ls),
(99,751,o),
(95,747,o),
(95,740,cs),
(95,-13,ls),
(95,-21,o),
(99,-25,o),
(107,-25,cs)
);
},
{
closed = 1;
nodes = (
(382,984,ls),
(374,984,o),
(368,981,o),
(363,974,cs),
(283,840,ls),
(279,833,o),
(280,830,o),
(289,830,cs),
(349,830,ls),
(357,830,o),
(364,833,o),
(368,839,cs),
(458,974,ls),
(463,981,o),
(461,984,o),
(453,984,cs)
);
}
);
vertWidth = 1000;
width = 638;
}
);
note = cid00172;
unicode = 201;
}
{
glyphname = Ecircumflex;
layers = (
{
hints = (
{
horizontal = 1;
place = (-25, 84);
place = (-25, 84);
type = Stem;
},
{
horizontal = 1;
place = (335, 83);
place = (335, 83);
type = Stem;
},
{
horizontal = 1;
place = (667, 84);
place = (667, 84);
type = Stem;
},
{
horizontal = 1;
place = (830, 155);
place = (830, 155);
type = Stem;
},
{
place = (95, 89);
place = (95, 89);
type = Stem;
},
{
horizontal = 1;
place = (925, 60);
place = (925, 60);
type = Stem;
}
);
layerId = m01;
shapes = (
{
closed = 1;
nodes = (
(587,-25,ls),
(593,-25,o),
(597,-21,o),
(597,-13,cs),
(597,48,ls),
(597,54,o),
(593,59,o),
(587,59,cs),
(184,59,l),
(184,335,l),
(540,335,ls),
(546,335,o),
(551,340,o),
(551,346,cs),
(551,406,ls),
(551,414,o),
(546,418,o),
(540,418,cs),
(184,418,l),
(184,667,l),
(574,667,ls),
(581,667,o),
(586,672,o),
(586,679,cs),
(586,740,ls),
(586,747,o),
(581,751,o),
(574,751,cs),
(107,751,ls),
(99,751,o),
(95,747,o),
(95,740,cs),
(95,-13,ls),
(95,-21,o),
(99,-25,o),
(107,-25,cs)
);
},
{
closed = 1;
nodes = (
(319,985,ls),
(311,985,o),
(305,982,o),
(300,976,cs),
(198,839,ls),
(193,833,o),
(195,830,o),
(203,830,cs),
(260,830,ls),
(268,830,o),
(274,833,o),
(279,839,cs),
(350,925,l),
(419,839,ls),
(424,833,o),
(430,830,o),
(438,830,cs),
(495,830,ls),
(503,830,o),
(505,833,o),
(500,839,cs),
(398,976,ls),
(393,982,o),
(387,985,o),
(379,985,cs)
);
}
);
vertWidth = 1000;
width = 638;
}
);
note = cid00173;
unicode = 202;
}
{
glyphname = Edieresis;
layers = (
{
hints = (
{
horizontal = 1;
place = (-25, 84);
place = (-25, 84);
type = Stem;
},
{
horizontal = 1;
place = (335, 83);
place = (335, 83);
type = Stem;
},
{
horizontal = 1;
place = (667, 84);
place = (667, 84);
type = Stem;
},
{
place = (95, 89);
place = (95, 89);
type = Stem;
},
{
horizontal = 1;
place = (852, 102);
place = (852, 102);
type = Stem;
},
{
place = (214, 104);
place = (214, 104);
type = Stem;
},
{
place = (380, 104);
place = (380, 104);
type = Stem;
}
);
layerId = m01;
shapes = (
{
closed = 1;
nodes = (
(587,-25,ls),
(593,-25,o),
(597,-21,o),
(597,-13,cs),
(597,48,ls),
(597,54,o),
(593,59,o),
(587,59,cs),
(184,59,l),
(184,335,l),
(540,335,ls),
(546,335,o),
(551,340,o),
(551,346,cs),
(551,406,ls),
(551,414,o),
(546,418,o),
(540,418,cs),
(184,418,l),
(184,667,l),
(574,667,ls),
(581,667,o),
(586,672,o),
(586,679,cs),
(586,740,ls),
(586,747,o),
(581,751,o),
(574,751,cs),
(107,751,ls),
(99,751,o),
(95,747,o),
(95,740,cs),
(95,-13,ls),
(95,-21,o),
(99,-25,o),
(107,-25,cs)
);
},
{
closed = 1;
nodes = (
(237,954,o),
(214,932,o),
(214,903,cs),
(214,874,o),
(237,852,o),
(266,852,cs),
(295,852,o),
(318,874,o),
(318,903,cs),
(318,932,o),
(296,954,o),
(266,954,cs)
);
},
{
closed = 1;
nodes = (
(402,954,o),
(380,932,o),
(380,903,cs),
(380,874,o),
(402,852,o),
(432,852,cs),
(461,852,o),
(484,874,o),
(484,903,cs),
(484,932,o),
(462,954,o),
(432,954,cs)
);
}
);
vertWidth = 1000;
width = 638;
}
);
note = cid00174;
unicode = 203;
}
{
glyphname = Igrave;
layers = (
{
hints = (
{
horizontal = 1;
place = (830, 154);
place = (830, 154);
type = Stem;
},
{
place = (95, 89);
place = (95, 89);
type = Stem;
}
);
layerId = m01;
shapes = (
{
closed = 1;
nodes = (
(172,-25,ls),
(180,-25,o),
(184,-21,o),
(184,-13,cs),
(184,740,ls),
(184,747,o),
(180,751,o),
(172,751,cs),
(107,751,ls),
(99,751,o),
(95,747,o),
(95,740,cs),
(95,-13,ls),
(95,-21,o),
(99,-25,o),
(107,-25,cs)
);
},
{
closed = 1;
nodes = (
(36,984,ls),
(27,984,o),
(26,981,o),
(30,974,cs),
(120,840,ls),
(125,833,o),
(131,830,o),
(139,830,cs),
(200,830,ls),
(208,830,o),
(210,833,o),
(206,840,cs),
(125,974,ls),
(121,981,o),
(115,984,o),
(107,984,cs)
);
}
);
vertWidth = 1000;
width = 279;
}
);
note = cid00175;
unicode = 204;
}
{
glyphname = Iacute;
layers = (
{
hints = (
{
horizontal = 1;
place = (830, 154);
place = (830, 154);
type = Stem;
},
{
place = (95, 89);
place = (95, 89);
type = Stem;
}
);
layerId = m01;
shapes = (
{
closed = 1;
nodes = (
(172,-25,ls),
(180,-25,o),
(184,-21,o),
(184,-13,cs),
(184,740,ls),
(184,747,o),
(180,751,o),
(172,751,cs),
(107,751,ls),
(99,751,o),
(95,747,o),
(95,740,cs),
(95,-13,ls),
(95,-21,o),
(99,-25,o),
(107,-25,cs)
);
},
{
closed = 1;
nodes = (
(171,984,ls),
(163,984,o),
(157,981,o),
(153,974,cs),
(73,840,ls),
(68,833,o),
(70,830,o),
(78,830,cs),
(139,830,ls),
(147,830,o),
(154,833,o),
(158,839,cs),
(248,974,ls),
(253,981,o),
(251,984,o),
(243,984,cs)
);
}
);
vertWidth = 1000;
width = 279;
}
);
note = cid00176;
unicode = 205;
}
{
glyphname = Icircumflex;
layers = (
{
hints = (
{
horizontal = 1;
place = (830, 155);
place = (830, 155);
type = Stem;
},
{
place = (95, 89);
place = (95, 89);
type = Stem;
},
{
horizontal = 1;
place = (925, 60);
place = (925, 60);
type = Stem;
}
);
layerId = m01;
shapes = (
{
closed = 1;
nodes = (
(172,-25,ls),
(180,-25,o),
(184,-21,o),
(184,-13,cs),
(184,740,ls),
(184,747,o),
(180,751,o),
(172,751,cs),
(107,751,ls),
(99,751,o),
(95,747,o),
(95,740,cs),
(95,-13,ls),
(95,-21,o),
(99,-25,o),
(107,-25,cs)
);
},
{
closed = 1;
nodes = (
(109,985,ls),
(101,985,o),
(95,982,o),
(90,976,cs),
(-12,839,ls),
(-17,833,o),
(-15,830,o),
(-7,830,cs),
(50,830,ls),
(58,830,o),
(64,833,o),
(69,839,cs),
(139,925,l),
(209,839,ls),
(214,833,o),
(220,830,o),
(228,830,cs),
(285,830,ls),
(293,830,o),
(295,833,o),
(290,839,cs),
(188,976,ls),
(183,982,o),
(177,985,o),
(169,985,cs)
);
}
);
vertWidth = 1000;
width = 279;
}
);
note = cid00177;
unicode = 206;
}
{
glyphname = Ntilde;
layers = (
{
hints = (
{
horizontal = 1;
place = (858, 61);
place = (858, 61);
type = Stem;
},
{
place = (95, 86);
place = (95, 86);
type = Stem;
},
{
place = (610, 86);
place = (610, 86);
type = Stem;
},
{
horizontal = 1;
place = (924, 61);
place = (924, 61);
type = Stem;
},
{
place = (240, 67);
place = (240, 67);
type = Stem;
}
);
layerId = m01;
shapes = (
{
closed = 1;
nodes = (
(170,-25,ls),
(177,-25,o),
(181,-21,o),
(181,-13,cs),
(181,610,l),
(600,-18,l),
(605,-23,o),
(608,-25,o),
(614,-25,cs),
(685,-25,ls),
(691,-25,o),
(696,-21,o),
(696,-13,cs),
(696,740,ls),
(696,747,o),
(691,751,o),
(685,751,cs),
(622,751,ls),
(614,751,o),
(610,747,o),
(610,740,cs),
(610,118,l),
(191,743,ls),
(187,749,o),
(184,751,o),
(178,751,cs),
(107,751,ls),
(99,751,o),
(95,747,o),
(95,740,cs),
(95,-13,ls),
(95,-21,o),
(99,-25,o),
(107,-25,cs)
);
},
{
closed = 1;
nodes = (
(240,867,o),
(243,863,o),
(252,863,cs),
(295,863,ls),
(303,863,o),
(307,866,o),
(307,875,c),
(310,897,o),
(316,924,o),
(339,924,cs),
(369,924,o),
(397,858,o),
(467,858,cs),
(531,858,o),
(556,905,o),
(560,968,cs),
(560,976,o),
(556,980,o),
(548,980,cs),
(505,980,ls),
(497,980,o),
(493,976,o),
(492,968,cs),
(490,946,o),
(484,919,o),
(461,919,cs),
(431,919,o),
(403,985,o),
(332,985,cs),
(270,985,o),
(244,937,o),
(240,875,cs)
);
}
);
vertWidth = 1000;
width = 791;
}
);
note = cid00180;
unicode = 209;
}
{
glyphname = Ograve;
layers = (
{
hints = (
{
horizontal = 1;
place = (-40, 87);
place = (-40, 87);
type = Stem;
},
{
horizontal = 1;
place = (679, 87);
place = (679, 87);
type = Stem;
},
{
horizontal = 1;
place = (830, 154);
place = (830, 154);
type = Stem;
},
{
place = (61, 92);
place = (61, 92);
type = Stem;
},
{
place = (723, 91);
place = (723, 91);
type = Stem;
}
);
layerId = m01;
shapes = (
{
closed = 1;
nodes = (
(659,-40,o),
(814,118,o),
(814,363,cs),
(814,609,o),
(659,766,o),
(438,766,cs),
(218,766,o),
(61,609,o),
(61,363,cs),
(61,118,o),
(218,-40,o),
(438,-40,cs)
);
},
{
closed = 1;
nodes = (
(335,984,ls),
(326,984,o),
(325,981,o),
(329,974,cs),
(419,840,ls),
(424,833,o),
(430,830,o),
(438,830,cs),
(499,830,ls),
(507,830,o),
(509,833,o),
(505,840,cs),
(424,974,ls),
(420,981,o),
(414,984,o),
(406,984,cs)
);
},
{
closed = 1;
nodes = (
(258,47,o),
(153,181,o),
(153,363,cs),
(153,545,o),
(258,679,o),
(438,679,cs),
(618,679,o),
(723,546,o),
(723,363,cs),
(723,181,o),
(618,47,o),
(438,47,cs)
);
}
);
vertWidth = 1000;
width = 875;
}
);
note = cid00181;
unicode = 210;
}
{
glyphname = Oacute;
layers = (
{
hints = (
{
horizontal = 1;
place = (-40, 87);
place = (-40, 87);
type = Stem;
},
{
horizontal = 1;
place = (679, 87);
place = (679, 87);
type = Stem;
},
{
horizontal = 1;
place = (830, 154);
place = (830, 154);
type = Stem;
},
{
place = (61, 92);
place = (61, 92);
type = Stem;
},
{
place = (723, 91);
place = (723, 91);
type = Stem;
}
);
layerId = m01;
shapes = (
{
closed = 1;
nodes = (
(659,-40,o),
(814,118,o),
(814,363,cs),
(814,609,o),
(659,766,o),
(438,766,cs),
(218,766,o),
(61,609,o),
(61,363,cs),
(61,118,o),
(218,-40,o),
(438,-40,cs)
);
},
{
closed = 1;
nodes = (
(470,984,ls),
(462,984,o),
(456,981,o),
(452,974,cs),
(372,840,ls),
(367,833,o),
(369,830,o),
(377,830,cs),
(438,830,ls),
(446,830,o),
(453,833,o),
(457,839,cs),
(547,974,ls),
(552,981,o),
(550,984,o),
(542,984,cs)
);
},
{
closed = 1;
nodes = (
(258,47,o),
(153,181,o),
(153,363,cs),
(153,545,o),
(258,679,o),
(438,679,cs),
(618,679,o),
(723,546,o),
(723,363,cs),
(723,181,o),
(618,47,o),
(438,47,cs)
);
}
);
vertWidth = 1000;
width = 875;
}
);
note = cid00182;
unicode = 211;
}
{
glyphname = Ocircumflex;
layers = (
{
hints = (
{
horizontal = 1;
place = (-40, 87);
place = (-40, 87);
type = Stem;
},
{
horizontal = 1;
place = (679, 87);
place = (679, 87);
type = Stem;
},
{
horizontal = 1;
place = (830, 155);
place = (830, 155);
type = Stem;
},
{
place = (61, 92);
place = (61, 92);
type = Stem;
},
{
place = (723, 91);
place = (723, 91);
type = Stem;
},
{
horizontal = 1;
place = (925, 60);
place = (925, 60);
type = Stem;
}
);
layerId = m01;
shapes = (
{
closed = 1;
nodes = (
(659,-40,o),
(814,118,o),
(814,363,cs),
(814,609,o),
(659,766,o),
(438,766,cs),
(218,766,o),
(61,609,o),
(61,363,cs),
(61,118,o),
(218,-40,o),
(438,-40,cs)
);
},
{
closed = 1;
nodes = (
(408,985,ls),
(400,985,o),
(394,982,o),
(389,976,cs),
(287,839,ls),
(282,833,o),
(284,830,o),
(292,830,cs),
(349,830,ls),
(357,830,o),
(363,833,o),
(368,839,cs),
(438,925,l),
(508,839,ls),
(513,833,o),
(519,830,o),
(527,830,cs),
(584,830,ls),
(592,830,o),
(594,833,o),
(589,839,cs),
(487,976,ls),
(482,982,o),
(476,985,o),
(468,985,cs)
);
},
{
closed = 1;
nodes = (
(258,47,o),
(153,181,o),
(153,363,cs),
(153,545,o),
(258,679,o),
(438,679,cs),
(618,679,o),
(723,546,o),
(723,363,cs),
(723,181,o),
(618,47,o),
(438,47,cs)
);
}
);
vertWidth = 1000;
width = 875;
}
);
note = cid00183;
unicode = 212;
}
{
glyphname = Otilde;
layers = (
{
hints = (
{
horizontal = 1;
place = (-40, 87);
place = (-40, 87);
type = Stem;
},
{
horizontal = 1;
place = (679, 87);
place = (679, 87);
type = Stem;
},
{
horizontal = 1;
place = (858, 61);
place = (858, 61);
type = Stem;
},
{
place = (61, 92);
place = (61, 92);
type = Stem;
},
{
place = (723, 91);
place = (723, 91);
type = Stem;
},
{
horizontal = 1;
place = (924, 61);
place = (924, 61);
type = Stem;
}
);
layerId = m01;
shapes = (
{
closed = 1;
nodes = (
(659,-40,o),
(814,118,o),
(814,363,cs),
(814,609,o),
(659,766,o),
(438,766,cs),
(218,766,o),
(61,609,o),
(61,363,cs),
(61,118,o),
(218,-40,o),
(438,-40,cs)
);
},
{
closed = 1;
nodes = (
(273,867,o),
(277,863,o),
(285,863,cs),
(328,863,ls),
(336,863,o),
(340,866,o),
(341,875,cs),
(343,897,o),
(350,924,o),
(372,924,cs),
(403,924,o),
(431,858,o),
(501,858,cs),
(565,858,o),
(590,905,o),
(593,968,cs),
(594,976,o),
(590,980,o),
(582,980,cs),
(539,980,ls),
(531,980,o),
(527,976,o),
(526,968,cs),
(524,946,o),
(518,919,o),
(495,919,cs),
(465,919,o),
(436,985,o),
(366,985,cs),
(303,985,o),
(278,937,o),
(274,875,cs)
);
},
{
closed = 1;
nodes = (
(258,47,o),
(153,181,o),
(153,363,cs),
(153,545,o),
(258,679,o),
(438,679,cs),
(618,679,o),
(723,546,o),
(723,363,cs),
(723,181,o),
(618,47,o),
(438,47,cs)
);
}
);
vertWidth = 1000;
width = 875;
}
);
note = cid00184;
unicode = 213;
}
{
glyphname = Odieresis;
layers = (
{
hints = (
{
horizontal = 1;
place = (-40, 87);
place = (-40, 87);
type = Stem;
},
{
horizontal = 1;
place = (679, 87);
place = (679, 87);
type = Stem;
},
{
horizontal = 1;
place = (852, 102);
place = (852, 102);
type = Stem;
},
{
place = (61, 92);
place = (61, 92);
type = Stem;
},
{
place = (303, 104);
place = (303, 104);
type = Stem;
},
{
place = (469, 103);
place = (469, 103);
type = Stem;
},
{
place = (723, 91);
place = (723, 91);
type = Stem;
}
);
layerId = m01;
shapes = (
{
closed = 1;
nodes = (
(659,-40,o),
(814,118,o),
(814,363,cs),
(814,609,o),
(659,766,o),
(438,766,cs),
(218,766,o),
(61,609,o),
(61,363,cs),
(61,118,o),
(218,-40,o),
(438,-40,cs)
);
},
{
closed = 1;
nodes = (
(326,954,o),
(303,932,o),
(303,903,cs),
(303,874,o),
(326,852,o),
(355,852,cs),
(384,852,o),
(407,874,o),
(407,903,cs),
(407,932,o),
(385,954,o),
(355,954,cs)
);
},
{
closed = 1;
nodes = (
(491,954,o),
(469,932,o),
(469,903,cs),
(469,874,o),
(491,852,o),
(521,852,cs),
(550,852,o),
(572,874,o),
(572,903,cs),
(572,932,o),
(550,954,o),
(521,954,cs)
);
},
{
closed = 1;
nodes = (
(258,47,o),
(153,181,o),
(153,363,cs),
(153,545,o),
(258,679,o),
(438,679,cs),
(618,679,o),
(723,546,o),
(723,363,cs),
(723,181,o),
(618,47,o),
(438,47,cs)
);
}
);
vertWidth = 1000;
width = 875;
}
);
note = cid00185;
unicode = 214;
}
{
glyphname = multiply.full;
layers = (
{
hints = (
{
horizontal = 1;
place = (162, 440);
place = (162, 440);
type = Stem;
},
{
place = (281, 439);
place = (281, 439);
type = Stem;
}
);
layerId = m01;
shapes = (
{
closed = 1;
nodes = (
(323,166,ls),
(327,161,o),
(335,161,o),
(339,166,c),
(499,327,l),
(660,166,l),
(665,162,o),
(672,161,o),
(678,166,c),
(717,206,ls),
(721,210,o),
(722,218,o),
(717,222,c),
(556,383,l),
(715,542,ls),
(720,547,o),
(720,554,o),
(716,559,cs),
(679,597,ls),
(675,602,o),
(666,600,o),
(662,596,cs),
(502,437,l),
(340,598,l),
(336,603,o),
(328,604,o),
(324,598,c),
(284,558,l),
(280,553,o),
(279,546,o),
(284,541,cs),
(446,381,l),
(286,220,ls),
(281,215,o),
(282,207,o),
(286,203,cs)
);
}
);
vertWidth = 1000;
width = 1000;
}
);
note = cid00695;
unicode = 215;
}
{
glyphname = Oslash;
layers = (
{
hints = (
{
horizontal = 1;
place = (-40, 87);
place = (-40, 87);
type = Stem;
},
{
horizontal = 1;
place = (679, 87);
place = (679, 87);
type = Stem;
},
{
place = (61, 92);
place = (61, 92);
type = Stem;
},
{
place = (723, 91);
place = (723, 91);
type = Stem;
}
);
layerId = m01;
shapes = (
{
closed = 1;
nodes = (
(510,679,o),
(569,658,o),
(615,621,c),
(214,154,l),
(174,209,o),
(153,281,o),
(153,363,cs),
(153,545,o),
(258,679,o),
(438,679,cs)
);
},
{
closed = 1;
nodes = (
(364,47,o),
(303,69,o),
(257,108,c),
(659,577,l),
(701,522,o),
(723,448,o),
(723,363,cs),
(723,181,o),
(618,47,o),
(438,47,cs)
);
},
{
closed = 1;
nodes = (
(659,-40,o),
(814,118,o),
(814,363,cs),
(814,480,o),
(779,577,o),
(718,646,c),
(814,758,ls),
(820,764,o),
(819,770,o),
(813,775,cs),
(783,799,ls),
(777,804,o),
(771,803,o),
(766,797,cs),
(674,689,l),
(611,739,o),
(530,766,o),
(438,766,cs),
(218,766,o),
(61,609,o),
(61,363,cs),
(61,249,o),
(95,153,o),
(154,84,c),
(61,-25,ls),
(56,-31,o),
(57,-36,o),
(63,-41,cs),
(93,-64,ls),
(99,-69,o),
(105,-69,o),
(110,-62,c),
(199,40,l),
(262,-11,o),
(344,-40,o),
(438,-40,cs)
);
}
);
vertWidth = 1000;
width = 875;
}
);
note = cid00142;
unicode = 216;
}
{
glyphname = Ugrave;
layers = (
{
hints = (
{
horizontal = 1;
place = (-40, 87);
place = (-40, 87);
type = Stem;
},
{
horizontal = 1;
place = (830, 154);
place = (830, 154);
type = Stem;
},
{
place = (86, 88);
place = (86, 88);
type = Stem;
},
{
place = (596, 89);
place = (596, 89);
type = Stem;
}
);
layerId = m01;
shapes = (
{
closed = 1;
nodes = (
(531,-40,o),
(685,45,o),
(685,291,cs),
(685,740,ls),
(685,747,o),
(681,751,o),
(673,751,cs),
(608,751,ls),
(600,751,o),
(596,747,o),
(596,740,cs),
(596,304,ls),
(596,122,o),
(501,47,o),
(385,47,cs),
(267,47,o),
(174,122,o),
(174,304,cs),
(174,740,ls),
(174,747,o),
(170,751,o),
(163,751,cs),
(97,751,ls),
(90,751,o),
(86,747,o),
(86,740,cs),
(86,291,ls),
(86,45,o),
(238,-40,o),
(385,-40,cs)
);
},
{
closed = 1;
nodes = (
(290,984,ls),
(281,984,o),
(280,981,o),
(284,974,cs),
(374,840,ls),
(379,833,o),
(385,830,o),
(393,830,cs),
(454,830,ls),
(462,830,o),
(464,833,o),
(460,840,cs),
(379,974,ls),
(375,981,o),
(369,984,o),
(361,984,cs)
);
}
);
vertWidth = 1000;
width = 771;
}
);
note = cid00187;
unicode = 217;
}
{
glyphname = Ucircumflex;
layers = (
{
hints = (
{
horizontal = 1;
place = (-40, 87);
place = (-40, 87);
type = Stem;
},
{
horizontal = 1;
place = (830, 155);
place = (830, 155);
type = Stem;
},
{
place = (86, 88);
place = (86, 88);
type = Stem;
},
{
place = (596, 89);
place = (596, 89);
type = Stem;
},
{
horizontal = 1;
place = (925, 60);
place = (925, 60);
type = Stem;
}
);
layerId = m01;
shapes = (
{
closed = 1;
nodes = (
(531,-40,o),
(685,45,o),
(685,291,cs),
(685,740,ls),
(685,747,o),
(681,751,o),
(673,751,cs),
(608,751,ls),
(600,751,o),
(596,747,o),
(596,740,cs),
(596,304,ls),
(596,122,o),
(501,47,o),
(385,47,cs),
(267,47,o),
(174,122,o),
(174,304,cs),
(174,740,ls),
(174,747,o),
(170,751,o),
(163,751,cs),
(97,751,ls),
(90,751,o),
(86,747,o),
(86,740,cs),
(86,291,ls),
(86,45,o),
(238,-40,o),
(385,-40,cs)
);
},
{
closed = 1;
nodes = (
(363,985,ls),
(355,985,o),
(349,982,o),
(344,976,cs),
(242,839,ls),
(237,833,o),
(239,830,o),
(247,830,cs),
(304,830,ls),
(312,830,o),
(318,833,o),
(323,839,cs),
(393,925,l),
(463,839,ls),
(468,833,o),
(474,830,o),
(482,830,cs),
(539,830,ls),
(547,830,o),
(549,833,o),
(544,839,cs),
(442,976,ls),
(437,982,o),
(431,985,o),
(423,985,cs)
);
}
);
vertWidth = 1000;
width = 771;
}
);
note = cid00189;
unicode = 219;
}
{
glyphname = Udieresis;
layers = (
{
hints = (
{
horizontal = 1;
place = (-40, 87);
place = (-40, 87);
type = Stem;
},
{
horizontal = 1;
place = (852, 102);
place = (852, 102);
type = Stem;
},
{
place = (86, 88);
place = (86, 88);
type = Stem;
},
{
place = (258, 104);
place = (258, 104);
type = Stem;
},
{
place = (424, 103);
place = (424, 103);
type = Stem;
},
{
place = (596, 89);
place = (596, 89);
type = Stem;
}
);
layerId = m01;
shapes = (
{
closed = 1;
nodes = (
(531,-40,o),
(685,45,o),
(685,291,cs),
(685,740,ls),
(685,747,o),
(681,751,o),
(673,751,cs),
(608,751,ls),
(600,751,o),
(596,747,o),
(596,740,cs),
(596,304,ls),
(596,122,o),
(501,47,o),
(385,47,cs),
(267,47,o),
(174,122,o),
(174,304,cs),
(174,740,ls),
(174,747,o),
(170,751,o),
(163,751,cs),
(97,751,ls),
(90,751,o),
(86,747,o),
(86,740,cs),
(86,291,ls),
(86,45,o),
(238,-40,o),
(385,-40,cs)
);
},
{
closed = 1;
nodes = (
(281,954,o),
(258,932,o),
(258,903,cs),
(258,874,o),
(281,852,o),
(310,852,cs),
(339,852,o),
(362,874,o),
(362,903,cs),
(362,932,o),
(340,954,o),
(310,954,cs)
);
},
{
closed = 1;
nodes = (
(446,954,o),
(424,932,o),
(424,903,cs),
(424,874,o),
(446,852,o),
(476,852,cs),
(505,852,o),
(527,874,o),
(527,903,cs),
(527,932,o),
(505,954,o),
(476,954,cs)
);
}
);
vertWidth = 1000;
width = 771;
}
);
note = cid00190;
unicode = 220;
}
{
glyphname = Yacute;
layers = (
{
hints = (
{
horizontal = 1;
place = (830, 154);
place = (830, 154);
type = Stem;
},
{
place = (315, 88);
place = (315, 88);
type = Stem;
}
);
layerId = m01;
shapes = (
{
closed = 1;
nodes = (
(392,-25,ls),
(398,-25,o),
(403,-21,o),
(403,-13,cs),
(403,282,l),
(689,737,ls),
(693,744,o),
(689,751,o),
(681,751,cs),
(607,751,ls),
(600,751,o),
(596,749,o),
(594,743,c),
(360,359,l),
(125,743,l),
(123,749,o),
(118,751,o),
(112,751,cs),
(36,751,ls),
(27,751,o),
(24,744,o),
(29,737,cs),
(315,280,l),
(315,-13,ls),
(315,-21,o),
(319,-25,o),
(326,-25,cs)
);
},
{
closed = 1;
nodes = (
(388,984,ls),
(380,984,o),
(374,981,o),
(370,974,cs),
(290,840,ls),
(285,833,o),
(287,830,o),
(295,830,cs),
(356,830,ls),
(364,830,o),
(371,833,o),
(375,839,cs),
(465,974,ls),
(470,981,o),
(468,984,o),
(460,984,cs)
);
}
);
vertWidth = 1000;
width = 717;
}
);
note = cid00191;
unicode = 221;
}
{
glyphname = Thorn;
layers = (
{
hints = (
{
horizontal = 1;
place = (122, 83);
place = (122, 83);
type = Stem;
},
{
horizontal = 1;
place = (553, 83);
place = (553, 83);
type = Stem;
},
{
place = (95, 89);
place = (95, 89);
type = Stem;
},
{
place = (531, 92);
place = (531, 92);
type = Stem;
}
);
layerId = m01;
shapes = (
{
closed = 1;
nodes = (
(184,636,l),
(183,739,ls),
(183,747,o),
(179,751,o),
(171,751,cs),
(107,751,ls),
(99,751,o),
(95,747,o),
(95,740,cs),
(95,-13,ls),
(95,-21,o),
(99,-25,o),
(107,-25,cs),
(172,-25,ls),
(180,-25,o),
(184,-21,o),
(184,-13,cs),
(184,122,l),
(332,122,ls),
(532,122,o),
(623,217,o),
(623,379,cs),
(623,539,o),
(531,636,o),
(332,636,cs)
);
},
{
closed = 1;
nodes = (
(184,205,l),
(184,553,l),
(327,553,ls),
(467,553,o),
(531,494,o),
(531,381,cs),
(531,263,o),
(467,205,o),
(327,205,cs)
);
}
);
vertWidth = 1000;
width = 672;
}
);
note = cid00192;
unicode = 222;
}
{
glyphname = germandbls;
layers = (
{
hints = (
{
horizontal = 1;
place = (-35, 70);
place = (-35, 70);
type = Stem;
},
{
horizontal = 1;
place = (363, 74);
place = (363, 74);
type = Stem;
},
{
horizontal = 1;
place = (721, 71);
place = (721, 71);
type = Stem;
},
{
place = (73, 82);
place = (73, 82);
type = Stem;
},
{
place = (485, 84);
place = (485, 84);
type = Stem;
},
{
horizontal = 1;
place = (-22, 57);
place = (-22, 57);
type = Stem;
},
{
place = (439, 78);
place = (439, 78);
type = Stem;
}
);
layerId = m01;
shapes = (
{
closed = 1;
nodes = (
(73,-10,ls),
(73,-18,o),
(77,-22,o),
(84,-22,cs),
(144,-22,ls),
(151,-22,o),
(155,-18,o),
(155,-10,cs),
(155,550,ls),
(155,645,o),
(199,721,o),
(301,721,cs),
(385,721,o),
(440,661,o),
(439,583,cs),
(438,499,o),
(379,440,o),
(296,437,cs),
(288,437,o),
(285,433,o),
(285,426,cs),
(285,374,ls),
(285,366,o),
(288,363,o),
(296,363,cs),
(323,363,l),
(417,354,o),
(485,293,o),
(485,204,cs),
(485,99,o),
(396,35,o),
(264,35,cs),
(242,35,l),
(234,36,o),
(230,33,o),
(230,25,cs),
(230,-23,ls),
(230,-31,o),
(234,-35,o),
(242,-35,cs),
(422,-38,o),
(570,32,o),
(569,198,cs),
(569,309,o),
(499,384,o),
(394,408,c),
(473,433,o),
(517,508,o),
(517,590,cs),
(517,708,o),
(427,792,o),
(302,792,cs),
(146,792,o),
(73,685,o),
(73,553,cs)
);
}
);
vertWidth = 1000;
width = 620;
}
);
note = cid00150;
unicode = 223;
}
{
glyphname = acircumflex;
layers = (
{
hints = (
{
horizontal = 1;
place = (-36, 79);
place = (-36, 79);
type = Stem;
},
{
horizontal = 1;
place = (441, 78);
place = (441, 78);
type = Stem;
},
{
horizontal = 1;
place = (588, 155);
place = (588, 155);
type = Stem;
},
{
place = (44, 87);
place = (44, 87);
type = Stem;
},
{
place = (499, 77);
place = (499, 77);
type = Stem;
},
{
horizontal = 1;
place = (683, 60);
place = (683, 60);
type = Stem;
}
);
layerId = m01;
shapes = (
{
closed = 1;
nodes = (
(384,-36,o),
(458,6,o),
(496,72,c),
(499,-13,ls),
(499,-22,o),
(504,-25,o),
(511,-25,cs),
(565,-25,ls),
(572,-25,o),
(576,-21,o),
(576,-13,cs),
(576,498,ls),
(576,505,o),
(572,509,o),
(565,509,cs),
(511,509,ls),
(504,509,o),
(499,506,o),
(499,498,cs),
(496,413,l),
(458,478,o),
(384,519,o),
(299,519,cs),
(144,519,o),
(44,404,o),
(44,242,cs),
(44,80,o),
(144,-36,o),
(299,-36,cs)
);
},
{
closed = 1;
nodes = (
(288,743,ls),
(280,743,o),
(274,740,o),
(269,734,cs),
(167,597,ls),
(162,591,o),
(164,588,o),
(172,588,cs),
(229,588,ls),
(237,588,o),
(243,591,o),
(248,597,cs),
(318,683,l),
(388,597,ls),
(393,591,o),
(399,588,o),
(407,588,cs),
(464,588,ls),
(472,588,o),
(474,591,o),
(469,597,cs),
(367,734,ls),
(362,740,o),
(356,743,o),
(348,743,cs)
);
},
{
closed = 1;
nodes = (
(206,43,o),
(131,123,o),
(131,242,cs),
(131,361,o),
(206,441,o),
(315,441,cs),
(424,441,o),
(499,361,o),
(499,242,cs),
(499,123,o),
(424,43,o),
(315,43,cs)
);
}
);
vertWidth = 1000;
width = 659;
}
);
note = cid00195;
unicode = 226;
}
{
glyphname = atilde;
layers = (
{
hints = (
{
horizontal = 1;
place = (-36, 79);
place = (-36, 79);
type = Stem;
},
{
horizontal = 1;
place = (441, 78);
place = (441, 78);
type = Stem;
},
{
horizontal = 1;
place = (616, 61);
place = (616, 61);
type = Stem;
},
{
place = (44, 87);
place = (44, 87);
type = Stem;
},
{
place = (499, 77);
place = (499, 77);
type = Stem;
},
{
horizontal = 1;
place = (682, 61);
place = (682, 61);
type = Stem;
}
);
layerId = m01;
shapes = (
{
closed = 1;
nodes = (
(384,-36,o),
(458,6,o),
(496,72,c),
(499,-13,ls),
(499,-22,o),
(504,-25,o),
(511,-25,cs),
(565,-25,ls),
(572,-25,o),
(576,-21,o),
(576,-13,cs),
(576,498,ls),
(576,505,o),
(572,509,o),
(565,509,cs),
(511,509,ls),
(504,509,o),
(499,506,o),
(499,498,cs),
(496,413,l),
(458,478,o),
(384,519,o),
(299,519,cs),
(144,519,o),
(44,404,o),
(44,242,cs),
(44,80,o),
(144,-36,o),
(299,-36,cs)
);
},
{
closed = 1;
nodes = (
(153,625,o),
(157,621,o),
(165,621,cs),
(208,621,ls),
(216,621,o),
(220,624,o),
(221,633,cs),
(223,655,o),
(230,682,o),
(252,682,cs),
(283,682,o),
(311,616,o),
(381,616,cs),
(445,616,o),
(470,663,o),
(473,726,cs),
(474,734,o),
(470,738,o),
(462,738,cs),
(419,738,ls),
(411,738,o),
(407,734,o),
(406,726,cs),
(404,704,o),
(398,677,o),
(375,677,cs),
(345,677,o),
(316,743,o),
(246,743,cs),
(183,743,o),
(158,695,o),
(154,633,cs)
);
},
{
closed = 1;
nodes = (
(206,43,o),
(131,123,o),
(131,242,cs),
(131,361,o),
(206,441,o),
(315,441,cs),
(424,441,o),
(499,361,o),
(499,242,cs),
(499,123,o),
(424,43,o),
(315,43,cs)
);
}
);
vertWidth = 1000;
width = 659;
}
);
note = cid00196;
unicode = 227;
}
{
glyphname = adieresis;
layers = (
{
hints = (
{
horizontal = 1;
place = (-36, 79);
place = (-36, 79);
type = Stem;
},
{
horizontal = 1;
place = (441, 78);
place = (441, 78);
type = Stem;
},
{
horizontal = 1;
place = (610, 102);
place = (610, 102);
type = Stem;
},
{
place = (44, 87);
place = (44, 87);
type = Stem;
},
{
place = (183, 104);
place = (183, 104);
type = Stem;
},
{
place = (349, 103);
place = (349, 103);
type = Stem;
},
{
place = (499, 77);
place = (499, 77);
type = Stem;
}
);
layerId = m01;
shapes = (
{
closed = 1;
nodes = (
(384,-36,o),
(458,6,o),
(496,72,c),
(499,-13,ls),
(499,-22,o),
(504,-25,o),
(511,-25,cs),
(565,-25,ls),
(572,-25,o),
(576,-21,o),
(576,-13,cs),
(576,498,ls),
(576,505,o),
(572,509,o),
(565,509,cs),
(511,509,ls),
(504,509,o),
(499,506,o),
(499,498,cs),
(496,413,l),
(458,478,o),
(384,519,o),
(299,519,cs),
(144,519,o),
(44,404,o),
(44,242,cs),
(44,80,o),
(144,-36,o),
(299,-36,cs)
);
},
{
closed = 1;
nodes = (
(206,712,o),
(183,690,o),
(183,661,cs),
(183,632,o),
(206,610,o),
(235,610,cs),
(264,610,o),
(287,632,o),
(287,661,cs),
(287,690,o),
(265,712,o),
(235,712,cs)
);
},
{
closed = 1;
nodes = (
(371,712,o),
(349,690,o),
(349,661,cs),
(349,632,o),
(371,610,o),
(401,610,cs),
(430,610,o),
(452,632,o),
(452,661,cs),
(452,690,o),
(430,712,o),
(401,712,cs)
);
},
{
closed = 1;
nodes = (
(206,43,o),
(131,123,o),
(131,242,cs),
(131,361,o),
(206,441,o),
(315,441,cs),
(424,441,o),
(499,361,o),
(499,242,cs),
(499,123,o),
(424,43,o),
(315,43,cs)
);
}
);
vertWidth = 1000;
width = 659;
}
);
note = cid00197;
unicode = 228;
}
{
glyphname = aring;
layers = (
{
hints = (
{
horizontal = 1;
place = (-36, 79);
place = (-36, 79);
type = Stem;
},
{
horizontal = 1;
place = (441, 78);
place = (441, 78);
type = Stem;
},
{
horizontal = 1;
place = (565, 51);
place = (565, 51);
type = Stem;
},
{
horizontal = 1;
place = (719, 50);
place = (719, 50);
type = Stem;
},
{
place = (44, 87);
place = (44, 87);
type = Stem;
},
{
place = (213, 55);
place = (213, 55);
type = Stem;
},
{
place = (368, 54);
place = (368, 54);
type = Stem;
},
{
place = (499, 77);
place = (499, 77);
type = Stem;
}
);
layerId = m01;
shapes = (
{
closed = 1;
nodes = (
(384,-36,o),
(458,6,o),
(496,72,c),
(499,-13,ls),
(499,-22,o),
(504,-25,o),
(511,-25,cs),
(565,-25,ls),
(572,-25,o),
(576,-21,o),
(576,-13,cs),
(576,498,ls),
(576,505,o),
(572,509,o),
(565,509,cs),
(511,509,ls),
(504,509,o),
(499,506,o),
(499,498,cs),
(496,413,l),
(458,478,o),
(384,519,o),
(299,519,cs),
(144,519,o),
(44,404,o),
(44,242,cs),
(44,80,o),
(144,-36,o),
(299,-36,cs)
);
},
{
closed = 1;
nodes = (
(213,611,o),
(260,565,o),
(318,565,cs),
(375,565,o),
(422,611,o),
(422,668,cs),
(422,724,o),
(375,769,o),
(318,769,cs),
(260,769,o),
(213,724,o),
(213,668,cs)
);
},
{
closed = 1;
nodes = (
(206,43,o),
(131,123,o),
(131,242,cs),
(131,361,o),
(206,441,o),
(315,441,cs),
(424,441,o),
(499,361,o),
(499,242,cs),
(499,123,o),
(424,43,o),
(315,43,cs)
);
},
{
closed = 1;
nodes = (
(268,695,o),
(290,719,o),
(318,719,cs),
(345,719,o),
(368,695,o),
(368,667,cs),
(368,639,o),
(345,616,o),
(318,616,cs),
(290,616,o),
(268,639,o),
(268,667,cs)
);
}
);
vertWidth = 1000;
width = 659;
}
);
note = cid00198;
unicode = 229;
}
{
glyphname = ae;
layers = (
{
hints = (
{
horizontal = 1;
place = (-36, 78);
place = (-36, 78);
type = Stem;
},
{
horizontal = 1;
place = (215, 67);
place = (215, 67);
type = Stem;
},
{
horizontal = 1;
place = (443, 76);
place = (443, 76);
type = Stem;
},
{
place = (44, 87);
place = (44, 87);
type = Stem;
},
{
place = (454, 106);
place = (454, 106);
type = Stem;
},
{
place = (886, 90);
place = (886, 90);
type = Stem;
},
{
horizontal = 1;
place = (-48, 75);
place = (-48, 75);
type = Stem;
},
{
horizontal = 1;
place = (218, 72);
place = (218, 72);
type = Stem;
},
{
horizontal = 1;
place = (447, 72);
place = (447, 72);
type = Stem;
}
);
layerId = m01;
shapes = (
{
closed = 1;
nodes = (
(836,-36,o),
(917,10,o),
(963,104,cs),
(966,110,o),
(963,116,o),
(956,118,cs),
(904,137,ls),
(897,139,o),
(892,138,o),
(889,131,cs),
(859,73,o),
(811,42,o),
(733,42,cs),
(635,42,o),
(571,108,o),
(560,215,c),
(964,215,ls),
(971,215,o),
(976,219,o),
(976,227,cs),
(978,400,o),
(891,519,o),
(733,519,cs),
(632,519,o),
(554,472,o),
(515,397,c),
(486,473,o),
(397,519,o),
(300,519,cs),
(194,519,o),
(108,476,o),
(64,384,cs),
(60,377,o),
(61,372,o),
(69,369,c),
(116,344,ls),
(123,340,o),
(129,342,o),
(133,349,cs),
(164,415,o),
(219,447,o),
(296,447,cs),
(392,447,o),
(454,385,o),
(454,302,cs),
(454,264,l),
(406,279,o),
(344,290,o),
(284,290,cs),
(138,290,o),
(44,223,o),
(44,116,cs),
(44,21,o),
(120,-48,o),
(246,-48,cs),
(339,-48,o),
(457,-10,o),
(507,101,c),
(550,14,o),
(629,-36,o),
(733,-36,cs)
);
},
{
closed = 1;
nodes = (
(184,27,o),
(131,67,o),
(131,123,cs),
(131,180,o),
(187,218,o),
(296,218,cs),
(357,218,o),
(422,207,o),
(467,185,c),
(443,71,o),
(335,27,o),
(258,27,cs)
);
},
{
closed = 1;
nodes = (
(822,443,o),
(878,379,o),
(886,282,c),
(561,282,l),
(575,382,o),
(642,443,o),
(733,443,cs)
);
}
);
vertWidth = 1000;
width = 1010;
}
);
note = cid00145;
unicode = 230;
}
{
glyphname = ccedilla;
layers = (
{
hints = (
{
horizontal = 1;
place = (-267, 59);
place = (-267, 59);
type = Stem;
},
{
horizontal = 1;
place = (-140, 56);
place = (-140, 56);
type = Stem;
},
{
horizontal = 1;
place = (441, 78);
place = (441, 78);
type = Stem;
},
{
place = (44, 87);
place = (44, 87);
type = Stem;
},
{
place = (368, 72);
place = (368, 72);
type = Stem;
},
{
horizontal = 1;
place = (-140, 183);
place = (-140, 183);
type = Stem;
}
);
layerId = m01;
shapes = (
{
closed = 1;
nodes = (
(545,122,o),
(543,127,o),
(536,129,cs),
(479,144,ls),
(472,146,o),
(468,144,o),
(465,138,cs),
(438,76,o),
(388,43,o),
(314,43,cs),
(190,43,o),
(131,136,o),
(131,242,cs),
(131,348,o),
(189,441,o),
(314,441,cs),
(386,441,o),
(434,410,o),
(462,351,cs),
(465,345,o),
(469,342,o),
(476,344,cs),
(528,360,ls),
(536,362,o),
(538,367,o),
(536,373,cs),
(499,471,o),
(421,519,o),
(310,519,cs),
(148,519,o),
(44,405,o),
(44,242,cs),
(44,93,o),
(131,-17,o),
(271,-34,c),
(242,-128,ls),
(240,-136,o),
(243,-140,o),
(251,-140,cs),
(267,-140,o),
(283,-139,o),
(300,-140,cs),
(335,-140,o),
(368,-153,o),
(368,-174,cs),
(368,-195,o),
(341,-208,o),
(300,-208,cs),
(272,-208,o),
(246,-203,o),
(219,-197,cs),
(211,-195,o),
(208,-198,o),
(208,-206,cs),
(210,-240,ls),
(210,-248,o),
(214,-253,o),
(222,-256,cs),
(248,-263,o),
(276,-267,o),
(304,-267,cs),
(385,-267,o),
(440,-227,o),
(440,-173,cs),
(440,-119,o),
(387,-87,o),
(321,-84,c),
(337,-35,l),
(434,-27,o),
(506,22,o),
(542,116,cs)
);
}
);
vertWidth = 1000;
width = 580;
}
);
note = cid00199;
unicode = 231;
}
{
glyphname = egrave;
layers = (
{
hints = (
{
horizontal = 1;
place = (-36, 78);
place = (-36, 78);
type = Stem;
},
{
horizontal = 1;
place = (215, 67);
place = (215, 67);
type = Stem;
},
{
horizontal = 1;
place = (443, 76);
place = (443, 76);
type = Stem;
},
{
horizontal = 1;
place = (588, 154);
place = (588, 154);
type = Stem;
},
{
place = (44, 88);
place = (44, 88);
type = Stem;
},
{
place = (458, 90);
place = (458, 90);
type = Stem;
}
);
layerId = m01;
shapes = (
{
closed = 1;
nodes = (
(408,-36,o),
(489,10,o),
(535,104,cs),
(538,110,o),
(535,116,o),
(528,118,cs),
(476,137,ls),
(469,139,o),
(464,138,o),
(461,131,cs),
(431,73,o),
(383,42,o),
(305,42,cs),
(207,42,o),
(143,108,o),
(132,215,c),
(536,215,ls),
(543,215,o),
(548,219,o),
(548,227,cs),
(550,400,o),
(463,519,o),
(305,519,cs),
(146,519,o),
(44,403,o),
(44,242,cs),
(44,82,o),
(145,-36,o),
(305,-36,cs)
);
},
{
closed = 1;
nodes = (
(200,742,ls),
(191,742,o),
(190,739,o),
(194,732,cs),
(284,598,ls),
(289,591,o),
(295,588,o),
(303,588,cs),
(364,588,ls),
(372,588,o),
(374,591,o),
(370,598,cs),
(289,732,ls),
(285,739,o),
(279,742,o),
(271,742,cs)
);
},
{
closed = 1;
nodes = (
(394,443,o),
(450,379,o),
(458,282,c),
(133,282,l),
(147,382,o),
(214,443,o),
(305,443,cs)
);
}
);
vertWidth = 1000;
width = 583;
}
);
note = cid00200;
unicode = 232;
}
{
glyphname = eacute;
layers = (
{
hints = (
{
horizontal = 1;
place = (-36, 78);
place = (-36, 78);
type = Stem;
},
{
horizontal = 1;
place = (215, 67);
place = (215, 67);
type = Stem;
},
{
horizontal = 1;
place = (443, 76);
place = (443, 76);
type = Stem;
},
{
horizontal = 1;
place = (588, 154);
place = (588, 154);
type = Stem;
},
{
place = (44, 88);
place = (44, 88);
type = Stem;
},
{
place = (458, 90);
place = (458, 90);
type = Stem;
}
);
layerId = m01;
shapes = (
{
closed = 1;
nodes = (
(408,-36,o),
(489,10,o),
(535,104,cs),
(538,110,o),
(535,116,o),
(528,118,cs),
(476,137,ls),
(469,139,o),
(464,138,o),
(461,131,cs),
(431,73,o),
(383,42,o),
(305,42,cs),
(207,42,o),
(143,108,o),
(132,215,c),
(536,215,ls),
(543,215,o),
(548,219,o),
(548,227,cs),
(550,400,o),
(463,519,o),
(305,519,cs),
(146,519,o),
(44,403,o),
(44,242,cs),
(44,82,o),
(145,-36,o),
(305,-36,cs)
);
},
{
closed = 1;
nodes = (
(335,742,ls),
(327,742,o),
(321,739,o),
(317,732,cs),
(237,598,ls),
(232,591,o),
(234,588,o),
(242,588,cs),
(303,588,ls),
(311,588,o),
(318,591,o),
(322,597,cs),
(412,732,ls),
(417,739,o),
(415,742,o),
(407,742,cs)
);
},
{
closed = 1;
nodes = (
(394,443,o),
(450,379,o),
(458,282,c),
(133,282,l),
(147,382,o),
(214,443,o),
(305,443,cs)
);
}
);
vertWidth = 1000;
width = 583;
}
);
note = cid00201;
unicode = 233;
}
{
glyphname = ecircumflex;
layers = (
{
hints = (
{
horizontal = 1;
place = (-36, 78);
place = (-36, 78);
type = Stem;
},
{
horizontal = 1;
place = (215, 67);
place = (215, 67);
type = Stem;
},
{
horizontal = 1;
place = (443, 76);
place = (443, 76);
type = Stem;
},
{
horizontal = 1;
place = (588, 155);
place = (588, 155);
type = Stem;
},
{
place = (44, 88);
place = (44, 88);
type = Stem;
},
{
place = (458, 90);
place = (458, 90);
type = Stem;
},
{
horizontal = 1;
place = (683, 60);
place = (683, 60);
type = Stem;
}
);
layerId = m01;
shapes = (
{
closed = 1;
nodes = (
(408,-36,o),
(489,10,o),
(535,104,cs),
(538,110,o),
(535,116,o),
(528,118,cs),
(476,137,ls),
(469,139,o),
(464,138,o),
(461,131,cs),
(431,73,o),
(383,42,o),
(305,42,cs),
(207,42,o),
(143,108,o),
(132,215,c),
(536,215,ls),
(543,215,o),
(548,219,o),
(548,227,cs),
(550,400,o),
(463,519,o),
(305,519,cs),
(146,519,o),
(44,403,o),
(44,242,cs),
(44,82,o),
(145,-36,o),
(305,-36,cs)
);
},
{
closed = 1;
nodes = (
(273,743,ls),
(265,743,o),
(259,740,o),
(254,734,cs),
(152,597,ls),
(147,591,o),
(149,588,o),
(157,588,cs),
(214,588,ls),
(222,588,o),
(228,591,o),
(233,597,cs),
(303,683,l),
(373,597,ls),
(378,591,o),
(384,588,o),
(392,588,cs),
(449,588,ls),
(457,588,o),
(459,591,o),
(454,597,cs),
(352,734,ls),
(347,740,o),
(341,743,o),
(333,743,cs)
);
},
{
closed = 1;
nodes = (
(394,443,o),
(450,379,o),
(458,282,c),
(133,282,l),
(147,382,o),
(214,443,o),
(305,443,cs)
);
}
);
vertWidth = 1000;
width = 583;
}
);
note = cid00202;
unicode = 234;
}
{
glyphname = edieresis;
layers = (
{
hints = (
{
horizontal = 1;
place = (-36, 78);
place = (-36, 78);
type = Stem;
},
{
horizontal = 1;
place = (215, 67);
place = (215, 67);
type = Stem;
},
{
horizontal = 1;
place = (443, 76);
place = (443, 76);
type = Stem;
},
{
horizontal = 1;
place = (610, 102);
place = (610, 102);
type = Stem;
},
{
place = (44, 88);
place = (44, 88);
type = Stem;
},
{
place = (168, 104);
place = (168, 104);
type = Stem;
},
{
place = (458, 90);
place = (458, 90);
type = Stem;
},
{
place = (334, 103);
place = (334, 103);
type = Stem;
}
);
layerId = m01;
shapes = (
{
closed = 1;
nodes = (
(408,-36,o),
(489,10,o),
(535,104,cs),
(538,110,o),
(535,116,o),
(528,118,cs),
(476,137,ls),
(469,139,o),
(464,138,o),
(461,131,cs),
(431,73,o),
(383,42,o),
(305,42,cs),
(207,42,o),
(143,108,o),
(132,215,c),
(536,215,ls),
(543,215,o),
(548,219,o),
(548,227,cs),
(550,400,o),
(463,519,o),
(305,519,cs),
(146,519,o),
(44,403,o),
(44,242,cs),
(44,82,o),
(145,-36,o),
(305,-36,cs)
);
},
{
closed = 1;
nodes = (
(191,712,o),
(168,690,o),
(168,661,cs),
(168,632,o),
(191,610,o),
(220,610,cs),
(249,610,o),
(272,632,o),
(272,661,cs),
(272,690,o),
(250,712,o),
(220,712,cs)
);
},
{
closed = 1;
nodes = (
(356,712,o),
(334,690,o),
(334,661,cs),
(334,632,o),
(356,610,o),
(386,610,cs),
(415,610,o),
(437,632,o),
(437,661,cs),
(437,690,o),
(415,712,o),
(386,712,cs)
);
},
{
closed = 1;
nodes = (
(394,443,o),
(450,379,o),
(458,282,c),
(133,282,l),
(147,382,o),
(214,443,o),
(305,443,cs)
);
}
);
vertWidth = 1000;
width = 583;
}
);
note = cid00203;
unicode = 235;
}
{
glyphname = igrave;
layers = (
{
hints = (
{
horizontal = 1;
place = (588, 154);
place = (588, 154);
type = Stem;
},
{
place = (84, 82);
place = (84, 82);
type = Stem;
}
);
layerId = m01;
shapes = (
{
closed = 1;
nodes = (
(96,509,ls),
(88,509,o),
(84,505,o),
(84,497,cs),
(84,-13,ls),
(84,-21,o),
(88,-25,o),
(96,-25,cs),
(154,-25,ls),
(162,-25,o),
(166,-21,o),
(166,-13,cs),
(166,497,ls),
(166,505,o),
(162,509,o),
(154,509,cs)
);
},
{
closed = 1;
nodes = (
(22,742,ls),
(13,742,o),
(12,739,o),
(16,732,cs),
(106,598,ls),
(111,591,o),
(117,588,o),
(125,588,cs),
(186,588,ls),
(194,588,o),
(196,591,o),
(192,598,cs),
(111,732,ls),
(107,739,o),
(101,742,o),
(93,742,cs)
);
}
);
vertWidth = 1000;
width = 249;
}
);
note = cid00204;
unicode = 236;
}
{
glyphname = iacute;
layers = (
{
hints = (
{
horizontal = 1;
place = (588, 154);
place = (588, 154);
type = Stem;
},
{
place = (84, 82);
place = (84, 82);
type = Stem;
}
);
layerId = m01;
shapes = (
{
closed = 1;
nodes = (
(96,509,ls),
(88,509,o),
(84,505,o),
(84,497,cs),
(84,-13,ls),
(84,-21,o),
(88,-25,o),
(96,-25,cs),
(154,-25,ls),
(162,-25,o),
(166,-21,o),
(166,-13,cs),
(166,497,ls),
(166,505,o),
(162,509,o),
(154,509,cs)
);
},
{
closed = 1;
nodes = (
(157,742,ls),
(149,742,o),
(143,739,o),
(139,732,cs),
(59,598,ls),
(54,591,o),
(56,588,o),
(64,588,cs),
(125,588,ls),
(133,588,o),
(140,591,o),
(144,597,cs),
(234,732,ls),
(239,739,o),
(237,742,o),
(229,742,cs)
);
}
);
vertWidth = 1000;
width = 249;
}
);
note = cid00205;
unicode = 237;
}
{
glyphname = icircumflex;
layers = (
{
hints = (
{
horizontal = 1;
place = (588, 155);
place = (588, 155);
type = Stem;
},
{
place = (84, 82);
place = (84, 82);
type = Stem;
},
{
horizontal = 1;
place = (683, 60);
place = (683, 60);
type = Stem;
}
);
layerId = m01;
shapes = (
{
closed = 1;
nodes = (
(96,509,ls),
(88,509,o),
(84,505,o),
(84,497,cs),
(84,-13,ls),
(84,-21,o),
(88,-25,o),
(96,-25,cs),
(154,-25,ls),
(162,-25,o),
(166,-21,o),
(166,-13,cs),
(166,497,ls),
(166,505,o),
(162,509,o),
(154,509,cs)
);
},
{
closed = 1;
nodes = (
(95,743,ls),
(87,743,o),
(81,740,o),
(76,734,cs),
(-26,597,ls),
(-31,591,o),
(-29,588,o),
(-21,588,cs),
(36,588,ls),
(44,588,o),
(50,591,o),
(55,597,cs),
(125,683,l),
(195,597,ls),
(200,591,o),
(206,588,o),
(214,588,cs),
(271,588,ls),
(279,588,o),
(281,591,o),
(276,597,cs),
(174,734,ls),
(169,740,o),
(163,743,o),
(155,743,cs)
);
}
);
vertWidth = 1000;
width = 249;
}
);
note = cid00206;
unicode = 238;
}
{
glyphname = idieresis;
layers = (
{
hints = (
{
horizontal = 1;
place = (610, 102);
place = (610, 102);
type = Stem;
},
{
place = (84, 82);
place = (84, 82);
type = Stem;
},
{
place = (-10, 104);
place = (-10, 104);
type = Stem;
},
{
place = (156, 103);
place = (156, 103);
type = Stem;
}
);
layerId = m01;
shapes = (
{
closed = 1;
nodes = (
(96,509,ls),
(88,509,o),
(84,505,o),
(84,497,cs),
(84,-13,ls),
(84,-21,o),
(88,-25,o),
(96,-25,cs),
(154,-25,ls),
(162,-25,o),
(166,-21,o),
(166,-13,cs),
(166,497,ls),
(166,505,o),
(162,509,o),
(154,509,cs)
);
},
{
closed = 1;
nodes = (
(13,712,o),
(-10,690,o),
(-10,661,cs),
(-10,632,o),
(13,610,o),
(42,610,cs),
(71,610,o),
(94,632,o),
(94,661,cs),
(94,690,o),
(72,712,o),
(42,712,cs)
);
},
{
closed = 1;
nodes = (
(178,712,o),
(156,690,o),
(156,661,cs),
(156,632,o),
(178,610,o),
(208,610,cs),
(237,610,o),
(259,632,o),
(259,661,cs),
(259,690,o),
(237,712,o),
(208,712,cs)
);
}
);
vertWidth = 1000;
width = 249;
}
);
note = cid00207;
unicode = 239;
}
{
glyphname = eth;
layers = (
{
hints = (
{
horizontal = 1;
place = (-38, 74);
place = (-38, 74);
type = Stem;
},
{
horizontal = 1;
place = (420, 73);
place = (420, 73);
type = Stem;
},
{
horizontal = 1;
place = (701, 73);
place = (701, 73);
type = Stem;
},
{
place = (45, 83);
place = (45, 83);
type = Stem;
},
{
place = (504, 83);
place = (504, 83);
type = Stem;
},
{
place = (509, 78);
place = (509, 78);
type = Stem;
}
);
layerId = m01;
shapes = (
{
closed = 1;
nodes = (
(174,550,ls),
(169,545,o),
(169,540,o),
(175,535,cs),
(205,508,ls),
(210,504,o),
(216,504,o),
(220,509,c),
(368,636,l),
(460,578,o),
(499,486,o),
(509,379,c),
(472,450,o),
(397,493,o),
(305,493,cs),
(152,493,o),
(45,379,o),
(45,233,cs),
(45,78,o),
(158,-38,o),
(312,-38,cs),
(547,-38,o),
(587,186,o),
(587,317,cs),
(587,491,o),
(529,612,o),
(426,686,c),
(513,761,ls),
(518,766,o),
(517,771,o),
(512,776,cs),
(481,802,ls),
(476,807,o),
(471,807,o),
(466,802,cs),
(371,719,l),
(301,754,o),
(217,771,o),
(120,774,cs),
(112,774,o),
(109,770,o),
(108,763,cs),
(105,712,ls),
(105,705,o),
(109,701,o),
(116,701,cs),
(186,699,o),
(252,689,o),
(309,666,c)
);
},
{
closed = 1;
nodes = (
(128,336,o),
(201,420,o),
(316,420,cs),
(416,420,o),
(504,353,o),
(504,238,cs),
(504,123,o),
(433,36,o),
(316,36,cs),
(201,36,o),
(128,121,o),
(128,231,cs)
);
}
);
vertWidth = 1000;
width = 679;
}
);
note = cid00208;
unicode = 240;
}
{
glyphname = ntilde;
layers = (
{
hints = (
{
horizontal = 1;
place = (441, 78);
place = (441, 78);
type = Stem;
},
{
horizontal = 1;
place = (616, 61);
place = (616, 61);
type = Stem;
},
{
place = (82, 85);
place = (82, 85);
type = Stem;
},
{
place = (462, 84);
place = (462, 84);
type = Stem;
},
{
place = (82, 78);
place = (82, 78);
type = Stem;
},
{
horizontal = 1;
place = (682, 61);
place = (682, 61);
type = Stem;
}
);
layerId = m01;
shapes = (
{
closed = 1;
nodes = (
(156,-25,ls),
(163,-25,o),
(167,-21,o),
(167,-13,cs),
(167,257,ls),
(167,384,o),
(257,441,o),
(333,441,cs),
(422,441,o),
(462,389,o),
(462,287,cs),
(462,-13,ls),
(462,-21,o),
(466,-25,o),
(474,-25,cs),
(536,-25,ls),
(542,-25,o),
(546,-21,o),
(546,-13,cs),
(546,322,ls),
(546,445,o),
(476,519,o),
(355,519,cs),
(282,519,o),
(204,483,o),
(164,413,c),
(160,498,ls),
(160,506,o),
(155,509,o),
(148,509,cs),
(94,509,ls),
(87,509,o),
(82,505,o),
(82,498,cs),
(82,-13,ls),
(82,-21,o),
(87,-25,o),
(94,-25,cs)
);
},
{
closed = 1;
nodes = (
(160,625,o),
(164,621,o),
(172,621,cs),
(215,621,ls),
(223,621,o),
(227,624,o),
(228,633,cs),
(230,655,o),
(237,682,o),
(259,682,cs),
(290,682,o),
(318,616,o),
(388,616,cs),
(452,616,o),
(477,663,o),
(480,726,cs),
(481,734,o),
(477,738,o),
(469,738,cs),
(426,738,ls),
(418,738,o),
(414,734,o),
(413,726,cs),
(411,704,o),
(405,677,o),
(382,677,cs),
(352,677,o),
(323,743,o),
(253,743,cs),
(190,743,o),
(165,695,o),
(161,633,cs)
);
}
);
vertWidth = 1000;
width = 626;
}
);
note = cid00209;
unicode = 241;
}
{
glyphname = ograve;
layers = (
{
hints = (
{
horizontal = 1;
place = (-36, 79);
place = (-36, 79);
type = Stem;
},
{
horizontal = 1;
place = (441, 78);
place = (441, 78);
type = Stem;
},
{
horizontal = 1;
place = (588, 154);
place = (588, 154);
type = Stem;
},
{
place = (44, 87);
place = (44, 87);
type = Stem;
},
{
place = (499, 88);
place = (499, 88);
type = Stem;
}
);
layerId = m01;
shapes = (
{
closed = 1;
nodes = (
(479,-36,o),
(587,82,o),
(587,242,cs),
(587,403,o),
(479,519,o),
(315,519,cs),
(151,519,o),
(44,403,o),
(44,242,cs),
(44,82,o),
(151,-36,o),
(315,-36,cs)
);
},
{
closed = 1;
nodes = (
(213,742,ls),
(204,742,o),
(203,739,o),
(207,732,cs),
(297,598,ls),
(302,591,o),
(308,588,o),
(316,588,cs),
(377,588,ls),
(385,588,o),
(387,591,o),
(383,598,cs),
(302,732,ls),
(298,739,o),
(292,742,o),
(284,742,cs)
);
},
{
closed = 1;
nodes = (
(206,43,o),
(131,123,o),
(131,242,cs),
(131,361,o),
(206,441,o),
(315,441,cs),
(424,441,o),
(499,361,o),
(499,242,cs),
(499,123,o),
(424,43,o),
(315,43,cs)
);
}
);
vertWidth = 1000;
width = 630;
}
);
note = cid00210;
unicode = 242;
}
{
glyphname = oacute;
layers = (
{
hints = (
{
horizontal = 1;
place = (-36, 79);
place = (-36, 79);
type = Stem;
},
{
horizontal = 1;
place = (441, 78);
place = (441, 78);
type = Stem;
},
{
horizontal = 1;
place = (588, 154);
place = (588, 154);
type = Stem;
},
{
place = (44, 87);
place = (44, 87);
type = Stem;
},
{
place = (499, 88);
place = (499, 88);
type = Stem;
}
);
layerId = m01;
shapes = (
{
closed = 1;
nodes = (
(479,-36,o),
(587,82,o),
(587,242,cs),
(587,403,o),
(479,519,o),
(315,519,cs),
(151,519,o),
(44,403,o),
(44,242,cs),
(44,82,o),
(151,-36,o),
(315,-36,cs)
);
},
{
closed = 1;
nodes = (
(349,742,ls),
(341,742,o),
(335,739,o),
(331,732,cs),
(251,598,ls),
(246,591,o),
(248,588,o),
(256,588,cs),
(317,588,ls),
(325,588,o),
(332,591,o),
(336,597,cs),
(426,732,ls),
(431,739,o),
(429,742,o),
(421,742,cs)
);
},
{
closed = 1;
nodes = (
(206,43,o),
(131,123,o),
(131,242,cs),
(131,361,o),
(206,441,o),
(315,441,cs),
(424,441,o),
(499,361,o),
(499,242,cs),
(499,123,o),
(424,43,o),
(315,43,cs)
);
}
);
vertWidth = 1000;
width = 630;
}
);
note = cid00211;
unicode = 243;
}
{
glyphname = ocircumflex;
layers = (
{
hints = (
{
horizontal = 1;
place = (-36, 79);
place = (-36, 79);
type = Stem;
},
{
horizontal = 1;
place = (441, 78);
place = (441, 78);
type = Stem;
},
{
horizontal = 1;
place = (588, 155);
place = (588, 155);
type = Stem;
},
{
place = (44, 87);
place = (44, 87);
type = Stem;
},
{
place = (499, 88);
place = (499, 88);
type = Stem;
},
{
horizontal = 1;
place = (683, 60);
place = (683, 60);
type = Stem;
}
);
layerId = m01;
shapes = (
{
closed = 1;
nodes = (
(479,-36,o),
(587,82,o),
(587,242,cs),
(587,403,o),
(479,519,o),
(315,519,cs),
(151,519,o),
(44,403,o),
(44,242,cs),
(44,82,o),
(151,-36,o),
(315,-36,cs)
);
},
{
closed = 1;
nodes = (
(317,683,l),
(387,597,ls),
(392,591,o),
(398,588,o),
(406,588,cs),
(463,588,ls),
(471,588,o),
(473,591,o),
(468,597,cs),
(366,734,ls),
(361,740,o),
(355,743,o),
(347,743,cs),
(287,743,ls),
(279,743,o),
(273,740,o),
(268,734,cs),
(166,597,ls),
(161,591,o),
(163,588,o),
(171,588,cs),
(228,588,ls),
(236,588,o),
(242,591,o),
(247,597,cs)
);
},
{
closed = 1;
nodes = (
(206,43,o),
(131,123,o),
(131,242,cs),
(131,361,o),
(206,441,o),
(315,441,cs),
(424,441,o),
(499,361,o),
(499,242,cs),
(499,123,o),
(424,43,o),
(315,43,cs)
);
}
);
vertWidth = 1000;
width = 630;
}
);
note = cid00212;
unicode = 244;
}
{
glyphname = otilde;
layers = (
{
hints = (
{
horizontal = 1;
place = (-36, 79);
place = (-36, 79);
type = Stem;
},
{
horizontal = 1;
place = (441, 78);
place = (441, 78);
type = Stem;
},
{
horizontal = 1;
place = (616, 61);
place = (616, 61);
type = Stem;
},
{
place = (44, 87);
place = (44, 87);
type = Stem;
},
{
place = (499, 88);
place = (499, 88);
type = Stem;
},
{
horizontal = 1;
place = (682, 61);
place = (682, 61);
type = Stem;
}
);
layerId = m01;
shapes = (
{
closed = 1;
nodes = (
(479,-36,o),
(587,82,o),
(587,242,cs),
(587,403,o),
(479,519,o),
(315,519,cs),
(151,519,o),
(44,403,o),
(44,242,cs),
(44,82,o),
(151,-36,o),
(315,-36,cs)
);
},
{
closed = 1;
nodes = (
(151,625,o),
(155,621,o),
(163,621,cs),
(206,621,ls),
(214,621,o),
(218,624,o),
(219,633,cs),
(221,655,o),
(228,682,o),
(250,682,cs),
(281,682,o),
(309,616,o),
(379,616,cs),
(443,616,o),
(468,663,o),
(471,726,cs),
(472,734,o),
(468,738,o),
(460,738,cs),
(417,738,ls),
(409,738,o),
(405,734,o),
(404,726,cs),
(402,704,o),
(396,677,o),
(373,677,cs),
(343,677,o),
(314,743,o),
(244,743,cs),
(181,743,o),
(156,695,o),
(152,633,cs)
);
},
{
closed = 1;
nodes = (
(206,43,o),
(131,123,o),
(131,242,cs),
(131,361,o),
(206,441,o),
(315,441,cs),
(424,441,o),
(499,361,o),
(499,242,cs),
(499,123,o),
(424,43,o),
(315,43,cs)
);
}
);
vertWidth = 1000;
width = 630;
}
);
note = cid00213;
unicode = 245;
}
{
glyphname = odieresis;
layers = (
{
hints = (
{
horizontal = 1;
place = (-36, 79);
place = (-36, 79);
type = Stem;
},
{
horizontal = 1;
place = (441, 78);
place = (441, 78);
type = Stem;
},
{
horizontal = 1;
place = (610, 102);
place = (610, 102);
type = Stem;
},
{
place = (44, 87);
place = (44, 87);
type = Stem;
},
{
place = (181, 104);
place = (181, 104);
type = Stem;
},
{
place = (347, 103);
place = (347, 103);
type = Stem;
},
{
place = (499, 88);
place = (499, 88);
type = Stem;
}
);
layerId = m01;
shapes = (
{
closed = 1;
nodes = (
(479,-36,o),
(587,82,o),
(587,242,cs),
(587,403,o),
(479,519,o),
(315,519,cs),
(151,519,o),
(44,403,o),
(44,242,cs),
(44,82,o),
(151,-36,o),
(315,-36,cs)
);
},
{
closed = 1;
nodes = (
(204,712,o),
(181,690,o),
(181,661,cs),
(181,632,o),
(204,610,o),
(233,610,cs),
(262,610,o),
(285,632,o),
(285,661,cs),
(285,690,o),
(263,712,o),
(233,712,cs)
);
},
{
closed = 1;
nodes = (
(369,712,o),
(347,690,o),
(347,661,cs),
(347,632,o),
(369,610,o),
(399,610,cs),
(428,610,o),
(450,632,o),
(450,661,cs),
(450,690,o),
(428,712,o),
(399,712,cs)
);
},
{
closed = 1;
nodes = (
(206,43,o),
(131,123,o),
(131,242,cs),
(131,361,o),
(206,441,o),
(315,441,cs),
(424,441,o),
(499,361,o),
(499,242,cs),
(499,123,o),
(424,43,o),
(315,43,cs)
);
}
);
vertWidth = 1000;
width = 630;
}
);
note = cid00214;
unicode = 246;
}
{
glyphname = divide.full;
layers = (
{
hints = (
{
horizontal = 1;
place = (120, 113);
place = (120, 113);
type = Stem;
},
{
horizontal = 1;
place = (339, 81);
place = (339, 81);
type = Stem;
},
{
horizontal = 1;
place = (522, 113);
place = (522, 113);
type = Stem;
},
{
place = (440, 116);
place = (440, 116);
type = Stem;
}
);
layerId = m01;
shapes = (
{
closed = 1;
nodes = (
(531,522,o),
(556,546,o),
(556,579,cs),
(556,612,o),
(531,635,o),
(498,635,cs),
(465,635,o),
(440,612,o),
(440,579,cs),
(440,546,o),
(465,522,o),
(498,522,cs)
);
},
{
closed = 1;
nodes = (
(735,339,ls),
(741,339,o),
(746,345,o),
(746,350,cs),
(746,409,ls),
(746,414,o),
(741,420,o),
(735,420,cs),
(265,420,ls),
(260,420,o),
(255,414,o),
(255,409,cs),
(255,350,ls),
(255,345,o),
(260,339,o),
(265,339,cs)
);
},
{
closed = 1;
nodes = (
(531,120,o),
(556,143,o),
(556,178,cs),
(556,209,o),
(531,233,o),
(498,233,cs),
(465,233,o),
(440,209,o),
(440,178,cs),
(440,143,o),
(465,120,o),
(498,120,cs)
);
}
);
vertWidth = 1000;
width = 1000;
}
);
note = cid00696;
unicode = 247;
}
{
glyphname = oslash;
layers = (
{
hints = (
{
horizontal = 1;
place = (-36, 79);
place = (-36, 79);
type = Stem;
},
{
horizontal = 1;
place = (441, 78);
place = (441, 78);
type = Stem;
},
{
place = (45, 87);
place = (45, 87);
type = Stem;
},
{
place = (500, 88);
place = (500, 88);
type = Stem;
}
);
layerId = m01;
shapes = (
{
closed = 1;
nodes = (
(480,-36,o),
(588,82,o),
(588,242,cs),
(588,317,o),
(564,382,o),
(523,430,c),
(582,496,ls),
(587,502,o),
(586,507,o),
(581,511,cs),
(559,530,ls),
(553,535,o),
(548,535,o),
(543,529,cs),
(486,465,l),
(441,499,o),
(383,519,o),
(316,519,cs),
(152,519,o),
(45,403,o),
(45,242,cs),
(45,164,o),
(70,97,o),
(114,48,c),
(48,-27,ls),
(43,-32,o),
(44,-37,o),
(49,-42,cs),
(71,-61,ls),
(76,-66,o),
(82,-65,o),
(87,-60,cs),
(152,13,l),
(196,-18,o),
(251,-36,o),
(316,-36,cs)
);
},
{
closed = 1;
nodes = (
(132,361,o),
(207,441,o),
(316,441,cs),
(361,441,o),
(400,427,o),
(431,403,c),
(171,111,l),
(146,145,o),
(132,190,o),
(132,242,cs)
);
},
{
closed = 1;
nodes = (
(274,43,o),
(237,55,o),
(208,76,c),
(465,365,l),
(487,332,o),
(500,290,o),
(500,242,cs),
(500,123,o),
(425,43,o),
(316,43,cs)
);
}
);
vertWidth = 1000;
width = 631;
}
);
note = cid00148;
unicode = 248;
}
{
glyphname = ucircumflex;
layers = (
{
hints = (
{
horizontal = 1;
place = (-36, 79);
place = (-36, 79);
type = Stem;
},
{
horizontal = 1;
place = (588, 155);
place = (588, 155);
type = Stem;
},
{
place = (79, 85);
place = (79, 85);
type = Stem;
},
{
place = (456, 84);
place = (456, 84);
type = Stem;
},
{
place = (463, 77);
place = (463, 77);
type = Stem;
},
{
horizontal = 1;
place = (683, 60);
place = (683, 60);
type = Stem;
}
);
layerId = m01;
shapes = (
{
closed = 1;
nodes = (
(342,-36,o),
(421,0,o),
(460,72,c),
(463,-13,ls),
(463,-22,o),
(468,-25,o),
(475,-25,cs),
(530,-25,ls),
(536,-25,o),
(540,-21,o),
(540,-13,cs),
(540,498,ls),
(540,505,o),
(536,509,o),
(530,509,cs),
(467,509,ls),
(460,509,o),
(456,505,o),
(456,498,cs),
(456,227,ls),
(456,100,o),
(367,43,o),
(292,43,cs),
(204,43,o),
(164,95,o),
(164,198,cs),
(164,498,ls),
(164,505,o),
(160,509,o),
(152,509,cs),
(90,509,ls),
(84,509,o),
(79,505,o),
(79,498,cs),
(79,162,ls),
(79,39,o),
(150,-36,o),
(270,-36,cs)
);
},
{
closed = 1;
nodes = (
(283,743,ls),
(275,743,o),
(269,740,o),
(264,734,cs),
(162,597,ls),
(157,591,o),
(159,588,o),
(167,588,cs),
(224,588,ls),
(232,588,o),
(238,591,o),
(243,597,cs),
(313,683,l),
(383,597,ls),
(388,591,o),
(394,588,o),
(402,588,cs),
(459,588,ls),
(467,588,o),
(469,591,o),
(464,597,cs),
(362,734,ls),
(357,740,o),
(351,743,o),
(343,743,cs)
);
}
);
vertWidth = 1000;
width = 623;
}
);
note = cid00218;
unicode = 251;
}
{
glyphname = yacute;
layers = (
{
hints = (
{
horizontal = 1;
place = (588, 154);
place = (588, 154);
type = Stem;
},
{
place = (27, 516);
place = (27, 516);
type = Stem;
}
);
layerId = m01;
shapes = (
{
closed = 1;
nodes = (
(228,-255,ls),
(235,-255,o),
(239,-253,o),
(242,-247,cs),
(542,496,ls),
(545,503,o),
(542,509,o),
(534,509,cs),
(465,509,ls),
(460,509,o),
(456,507,o),
(452,500,c),
(293,97,l),
(125,500,ls),
(122,507,o),
(117,509,o),
(111,509,cs),
(37,509,ls),
(29,509,o),
(25,505,o),
(29,496,cs),
(249,-7,l),
(154,-243,l),
(152,-250,o),
(155,-255,o),
(163,-255,cs)
);
},
{
closed = 1;
nodes = (
(323,742,ls),
(315,742,o),
(309,739,o),
(305,732,cs),
(225,598,ls),
(220,591,o),
(222,588,o),
(230,588,cs),
(291,588,ls),
(299,588,o),
(306,591,o),
(310,597,cs),
(400,732,ls),
(405,739,o),
(403,742,o),
(395,742,cs)
);
}
);
vertWidth = 1000;
width = 571;
}
);
note = cid00220;
unicode = 253;
}
{
glyphname = thorn;
layers = (
{
hints = (
{
horizontal = 1;
place = (-36, 79);
place = (-36, 79);
type = Stem;
},
{
horizontal = 1;
place = (441, 78);
place = (441, 78);
type = Stem;
},
{
place = (82, 82);
place = (82, 82);
type = Stem;
},
{
place = (527, 88);
place = (527, 88);
type = Stem;
},
{
place = (82, 85);
place = (82, 85);
type = Stem;
},
{
place = (82, 78);
place = (82, 78);
type = Stem;
}
);
layerId = m01;
shapes = (
{
closed = 1;
nodes = (
(164,757,ls),
(164,763,o),
(159,768,o),
(153,768,cs),
(93,768,ls),
(87,768,o),
(82,763,o),
(82,757,cs),
(82,-244,l),
(83,-252,o),
(87,-255,o),
(93,-255,cs),
(156,-255,ls),
(163,-255,o),
(167,-251,o),
(167,-244,cs),
(167,67,l),
(206,4,o),
(278,-36,o),
(359,-36,cs),
(516,-36,o),
(615,80,o),
(615,242,cs),
(615,404,o),
(516,519,o),
(359,519,cs),
(276,519,o),
(203,478,o),
(164,413,c)
);
},
{
closed = 1;
nodes = (
(235,43,o),
(160,123,o),
(160,242,cs),
(160,361,o),
(235,441,o),
(344,441,cs),
(452,441,o),
(527,361,o),
(527,242,cs),
(527,123,o),
(452,43,o),
(344,43,cs)
);
}
);
vertWidth = 1000;
width = 659;
}
);
note = cid00221;
unicode = 254;
}
{
glyphname = ydieresis;
layers = (
{
hints = (
{
horizontal = 1;
place = (610, 102);
place = (610, 102);
type = Stem;
},
{
place = (156, 104);
place = (156, 104);
type = Stem;
},
{
place = (322, 103);
place = (322, 103);
type = Stem;
}
);
layerId = m01;
shapes = (
{
closed = 1;
nodes = (
(228,-255,ls),
(235,-255,o),
(239,-253,o),
(242,-247,cs),
(542,496,ls),
(545,503,o),
(542,509,o),
(534,509,cs),
(465,509,ls),
(460,509,o),
(456,507,o),
(452,500,c),
(293,97,l),
(125,500,ls),
(122,507,o),
(117,509,o),
(111,509,cs),
(37,509,ls),
(29,509,o),
(25,505,o),
(29,496,cs),
(249,-7,l),
(154,-243,l),
(152,-250,o),
(155,-255,o),
(163,-255,cs)
);
},
{
closed = 1;
nodes = (
(179,712,o),
(156,690,o),
(156,661,cs),
(156,632,o),
(179,610,o),
(208,610,cs),
(237,610,o),
(260,632,o),
(260,661,cs),
(260,690,o),
(238,712,o),
(208,712,cs)
);
},
{
closed = 1;
nodes = (
(344,712,o),
(322,690,o),
(322,661,cs),
(322,632,o),
(344,610,o),
(374,610,cs),
(403,610,o),
(425,632,o),
(425,661,cs),
(425,690,o),
(403,712,o),
(374,712,cs)
);
}
);
vertWidth = 1000;
width = 571;
}
);
note = cid00222;
unicode = 255;
}
{
glyphname = Amacron;
layers = (
{
hints = (
{
horizontal = 1;
place = (169, 83);
place = (169, 83);
type = Stem;
},
{
horizontal = 1;
place = (874, 69);
place = (874, 69);
type = Stem;
},
{
place = (27, 708);
place = (27, 708);
type = Stem;
}
);
layerId = m01;
shapes = (
{
closed = 1;
nodes = (
(110,-25,ls),
(116,-25,o),
(120,-23,o),
(124,-17,c),
(197,169,l),
(563,169,l),
(636,-17,ls),
(638,-23,o),
(644,-25,o),
(649,-25,cs),
(725,-25,ls),
(733,-25,o),
(737,-20,o),
(734,-12,cs),
(425,742,l),
(423,749,o),
(418,751,o),
(412,751,cs),
(350,751,ls),
(344,751,o),
(339,749,o),
(336,742,cs),
(29,-12,ls),
(25,-20,o),
(29,-25,o),
(37,-25,cs)
);
},
{
closed = 1;
nodes = (
(252,943,ls),
(244,943,o),
(240,940,o),
(240,931,cs),
(240,886,ls),
(240,878,o),
(244,874,o),
(252,874,cs),
(511,874,ls),
(519,874,o),
(523,878,o),
(523,886,cs),
(523,931,ls),
(523,940,o),
(519,943,o),
(511,943,cs)
);
},
{
closed = 1;
nodes = (
(532,252,l),
(228,252,l),
(379,641,l)
);
}
);
vertWidth = 1000;
width = 761;
}
);
note = cid25718;
unicode = 256;
}
{
glyphname = amacron;
layers = (
{
hints = (
{
horizontal = 1;
place = (-36, 79);
place = (-36, 79);
type = Stem;
},
{
horizontal = 1;
place = (441, 78);
place = (441, 78);
type = Stem;
},
{
horizontal = 1;
place = (632, 69);
place = (632, 69);
type = Stem;
},
{
place = (44, 87);
place = (44, 87);
type = Stem;
},
{
place = (499, 77);
place = (499, 77);
type = Stem;
}
);
layerId = m01;
shapes = (
{
closed = 1;
nodes = (
(384,-36,o),
(458,6,o),
(496,72,c),
(499,-13,ls),
(499,-22,o),
(504,-25,o),
(511,-25,cs),
(565,-25,ls),
(572,-25,o),
(576,-21,o),
(576,-13,cs),
(576,498,ls),
(576,505,o),
(572,509,o),
(565,509,cs),
(511,509,ls),
(504,509,o),
(499,506,o),
(499,498,cs),
(496,413,l),
(458,478,o),
(384,519,o),
(299,519,cs),
(144,519,o),
(44,404,o),
(44,242,cs),
(44,80,o),
(144,-36,o),
(299,-36,cs)
);
},
{
closed = 1;
nodes = (
(188,701,ls),
(180,701,o),
(176,698,o),
(176,689,cs),
(176,644,ls),
(176,636,o),
(180,632,o),
(188,632,cs),
(448,632,ls),
(456,632,o),
(460,636,o),
(460,644,cs),
(460,689,ls),
(460,698,o),
(456,701,o),
(448,701,cs)
);
},
{
closed = 1;
nodes = (
(206,43,o),
(131,123,o),
(131,242,cs),
(131,361,o),
(206,441,o),
(315,441,cs),
(424,441,o),
(499,361,o),
(499,242,cs),
(499,123,o),
(424,43,o),
(315,43,cs)
);
}
);
vertWidth = 1000;
width = 659;
}
);
note = cid25719;
unicode = 257;
}
{
glyphname = Abreve;
layers = (
{
hints = (
{
horizontal = 1;
place = (169, 83);
place = (169, 83);
type = Stem;
},
{
horizontal = 1;
place = (835, 64);
place = (835, 64);
type = Stem;
},
{
place = (27, 708);
place = (27, 708);
type = Stem;
}
);
layerId = m01;
shapes = (
{
closed = 1;
nodes = (
(110,-25,ls),
(116,-25,o),
(120,-23,o),
(124,-17,c),
(197,169,l),
(563,169,l),
(636,-17,ls),
(638,-23,o),
(644,-25,o),
(649,-25,cs),
(725,-25,ls),
(733,-25,o),
(737,-20,o),
(734,-12,cs),
(425,742,l),
(423,749,o),
(418,751,o),
(412,751,cs),
(350,751,ls),
(344,751,o),
(339,749,o),
(336,742,cs),
(29,-12,ls),
(25,-20,o),
(29,-25,o),
(37,-25,cs)
);
},
{
closed = 1;
nodes = (
(306,974,o),
(302,977,o),
(294,977,cs),
(242,977,ls),
(233,977,o),
(230,973,o),
(230,965,c),
(238,886,o),
(296,835,o),
(380,835,cs),
(465,835,o),
(522,886,o),
(530,965,cs),
(531,973,o),
(527,977,o),
(519,977,cs),
(467,977,ls),
(459,977,o),
(455,974,o),
(454,965,cs),
(449,929,o),
(427,899,o),
(380,899,cs),
(333,899,o),
(312,929,o),
(307,965,cs)
);
},
{
closed = 1;
nodes = (
(532,252,l),
(228,252,l),
(379,641,l)
);
}
);
vertWidth = 1000;
width = 761;
}
);
note = cid25720;
unicode = 258;
}
{
glyphname = abreve;
layers = (
{
hints = (
{
horizontal = 1;
place = (-36, 79);
place = (-36, 79);
type = Stem;
},
{
horizontal = 1;
place = (441, 78);
place = (441, 78);
type = Stem;
},
{
horizontal = 1;
place = (593, 64);
place = (593, 64);
type = Stem;
},
{
place = (44, 87);
place = (44, 87);
type = Stem;
},
{
place = (499, 77);
place = (499, 77);
type = Stem;
}
);
layerId = m01;
shapes = (
{
closed = 1;
nodes = (
(384,-36,o),
(458,6,o),
(496,72,c),
(499,-13,ls),
(499,-22,o),
(504,-25,o),
(511,-25,cs),
(565,-25,ls),
(572,-25,o),
(576,-21,o),
(576,-13,cs),
(576,498,ls),
(576,505,o),
(572,509,o),
(565,509,cs),
(511,509,ls),
(504,509,o),
(499,506,o),
(499,498,cs),
(496,413,l),
(458,478,o),
(384,519,o),
(299,519,cs),
(144,519,o),
(44,404,o),
(44,242,cs),
(44,80,o),
(144,-36,o),
(299,-36,cs)
);
},
{
closed = 1;
nodes = (
(242,732,o),
(238,735,o),
(231,735,cs),
(178,735,ls),
(170,735,o),
(166,731,o),
(167,723,cs),
(175,644,o),
(233,593,o),
(317,593,cs),
(401,593,o),
(459,644,o),
(467,723,cs),
(468,731,o),
(464,735,o),
(456,735,cs),
(403,735,ls),
(396,735,o),
(392,732,o),
(390,723,c),
(386,687,o),
(364,657,o),
(317,657,cs),
(270,657,o),
(248,687,o),
(244,723,c)
);
},
{
closed = 1;
nodes = (
(206,43,o),
(131,123,o),
(131,242,cs),
(131,361,o),
(206,441,o),
(315,441,cs),
(424,441,o),
(499,361,o),
(499,242,cs),
(499,123,o),
(424,43,o),
(315,43,cs)
);
}
);
vertWidth = 1000;
width = 659;
}
);
note = cid25721;
unicode = 259;
}
{
glyphname = Aogonek;
layers = (
{
hints = (
{
horizontal = 1;
place = (-228, 68);
place = (-228, 68);
type = Stem;
},
{
horizontal = 1;
place = (-11, 21);
target = up;
type = BottomGhost;
},
{
horizontal = 1;
place = (169, 83);
place = (169, 83);
type = Stem;
},
{
place = (558, 76);
place = (558, 76);
type = Stem;
}
);
layerId = m01;
shapes = (
{
closed = 1;
nodes = (
(110,-25,ls),
(116,-25,o),
(120,-23,o),
(124,-17,c),
(197,169,l),
(563,169,l),
(634,-11,l),
(593,-25,o),
(558,-77,o),
(558,-120,cs),
(558,-174,o),
(606,-228,o),
(694,-228,cs),
(711,-228,o),
(772,-224,o),
(772,-199,cs),
(773,-161,ls),
(773,-153,o),
(770,-150,o),
(755,-154,cs),
(746,-157,o),
(730,-160,o),
(712,-160,cs),
(666,-160,o),
(634,-139,o),
(634,-99,cs),
(634,-62,o),
(661,-39,o),
(690,-25,c),
(725,-25,ls),
(733,-25,o),
(737,-20,o),
(734,-12,cs),
(425,742,l),
(423,749,o),
(418,751,o),
(412,751,cs),
(350,751,ls),
(344,751,o),
(339,749,o),
(336,742,cs),
(29,-12,ls),
(25,-20,o),
(29,-25,o),
(37,-25,cs)
);
},
{
closed = 1;
nodes = (
(532,252,l),
(228,252,l),
(379,641,l)
);
}
);
vertWidth = 1000;
width = 761;
}
);
note = cid25722;
unicode = 260;
}
{
glyphname = aogonek;
layers = (
{
hints = (
{
horizontal = 1;
place = (-228, 68);
place = (-228, 68);
type = Stem;
},
{
horizontal = 1;
place = (-36, 79);
place = (-36, 79);
type = Stem;
},
{
horizontal = 1;
place = (441, 78);
place = (441, 78);
type = Stem;
},
{
place = (44, 87);
place = (44, 87);
type = Stem;
},
{
place = (499, 77);
place = (499, 77);
type = Stem;
},
{
horizontal = 1;
place = (-10, 21);
target = up;
type = BottomGhost;
},
{
place = (416, 76);
place = (416, 76);
type = Stem;
}
);
layerId = m01;
shapes = (
{
closed = 1;
nodes = (
(384,-36,o),
(458,6,o),
(496,72,c),
(499,-10,l),
(453,-19,o),
(416,-75,o),
(416,-120,cs),
(416,-174,o),
(465,-228,o),
(552,-228,cs),
(569,-228,o),
(630,-224,o),
(630,-199,cs),
(631,-161,ls),
(632,-153,o),
(628,-150,o),
(613,-154,cs),
(604,-157,o),
(588,-160,o),
(571,-160,cs),
(524,-160,o),
(492,-139,o),
(492,-99,cs),
(492,-62,o),
(519,-39,o),
(548,-25,c),
(565,-25,ls),
(572,-25,o),
(576,-21,o),
(576,-13,cs),
(576,498,ls),
(576,505,o),
(572,509,o),
(565,509,cs),
(511,509,ls),
(504,509,o),
(499,506,o),
(499,498,cs),
(496,413,l),
(458,478,o),
(384,519,o),
(299,519,cs),
(144,519,o),
(44,404,o),
(44,242,cs),
(44,80,o),
(144,-36,o),
(299,-36,cs)
);
},
{
closed = 1;
nodes = (
(206,43,o),
(131,123,o),
(131,242,cs),
(131,361,o),
(206,441,o),
(315,441,cs),
(424,441,o),
(499,361,o),
(499,242,cs),
(499,123,o),
(424,43,o),
(315,43,cs)
);
}
);
vertWidth = 1000;
width = 659;
}
);
note = cid25723;
unicode = 261;
}
{
glyphname = Cacute;
layers = (
{
hints = (
{
horizontal = 1;
place = (-40, 87);
place = (-40, 87);
type = Stem;
},
{
horizontal = 1;
place = (679, 87);
place = (679, 87);
type = Stem;
},
{
horizontal = 1;
place = (830, 154);
place = (830, 154);
type = Stem;
},
{
place = (61, 92);
place = (61, 92);
type = Stem;
}
);
layerId = m01;
shapes = (
{
closed = 1;
nodes = (
(609,-40,o),
(724,59,o),
(768,200,cs),
(769,205,o),
(767,210,o),
(761,212,cs),
(697,231,ls),
(690,233,o),
(685,230,o),
(683,223,cs),
(643,109,o),
(555,47,o),
(431,47,cs),
(253,47,o),
(153,177,o),
(153,363,cs),
(153,548,o),
(252,679,o),
(431,679,cs),
(546,679,o),
(623,628,o),
(667,534,cs),
(669,529,o),
(674,526,o),
(681,528,cs),
(745,547,ls),
(753,549,o),
(755,555,o),
(753,562,c),
(700,691,o),
(589,766,o),
(430,766,cs),
(212,766,o),
(61,610,o),
(61,363,cs),
(61,117,o),
(208,-40,o),
(429,-40,cs)
);
},
{
closed = 1;
nodes = (
(462,984,ls),
(454,984,o),
(448,981,o),
(444,974,cs),
(364,840,ls),
(359,833,o),
(361,830,o),
(369,830,cs),
(430,830,ls),
(438,830,o),
(445,833,o),
(449,839,cs),
(539,974,ls),
(544,981,o),
(542,984,o),
(534,984,cs)
);
}
);
vertWidth = 1000;
width = 823;
}
);
note = cid25724;
unicode = 262;
}
{
glyphname = cacute;
layers = (
{
hints = (
{
horizontal = 1;
place = (-36, 79);
place = (-36, 79);
type = Stem;
},
{
horizontal = 1;
place = (441, 78);
place = (441, 78);
type = Stem;
},
{
horizontal = 1;
place = (588, 154);
place = (588, 154);
type = Stem;
},
{
place = (44, 87);
place = (44, 87);
type = Stem;
}
);
layerId = m01;
shapes = (
{
closed = 1;
nodes = (
(420,-36,o),
(503,13,o),
(542,116,cs),
(545,122,o),
(543,127,o),
(536,129,cs),
(479,144,ls),
(472,146,o),
(468,144,o),
(465,138,cs),
(438,76,o),
(388,43,o),
(314,43,cs),
(190,43,o),
(131,136,o),
(131,242,cs),
(131,348,o),
(189,441,o),
(314,441,cs),
(386,441,o),
(434,410,o),
(462,351,cs),
(465,345,o),
(469,342,o),
(476,344,cs),
(528,360,ls),
(536,362,o),
(538,367,o),
(536,373,cs),
(499,471,o),
(421,519,o),
(310,519,cs),
(148,519,o),
(44,405,o),
(44,242,cs),
(44,80,o),
(147,-36,o),
(310,-36,cs)
);
},
{
closed = 1;
nodes = (
(341,742,ls),
(333,742,o),
(327,739,o),
(323,732,cs),
(243,598,ls),
(238,591,o),
(240,588,o),
(248,588,cs),
(309,588,ls),
(317,588,o),
(324,591,o),
(328,597,cs),
(418,732,ls),
(423,739,o),
(421,742,o),
(413,742,cs)
);
}
);
vertWidth = 1000;
width = 580;
}
);
note = cid25725;
unicode = 263;
}
{
glyphname = cdotaccent;
layers = (
{
hints = (
{
horizontal = 1;
place = (-36, 79);
place = (-36, 79);
type = Stem;
},
{
horizontal = 1;
place = (441, 78);
place = (441, 78);
type = Stem;
},
{
horizontal = 1;
place = (610, 104);
place = (610, 104);
type = Stem;
},
{
place = (44, 87);
place = (44, 87);
type = Stem;
},
{
place = (255, 107);
place = (255, 107);
type = Stem;
}
);
layerId = m01;
shapes = (
{
closed = 1;
nodes = (
(420,-36,o),
(503,13,o),
(542,116,cs),
(545,122,o),
(543,127,o),
(536,129,cs),
(479,144,ls),
(472,146,o),
(468,144,o),
(465,138,cs),
(438,76,o),
(388,43,o),
(314,43,cs),
(190,43,o),
(131,136,o),
(131,242,cs),
(131,348,o),
(189,441,o),
(314,441,cs),
(386,441,o),
(434,410,o),
(462,351,cs),
(465,345,o),
(469,342,o),
(476,344,cs),
(528,360,ls),
(536,362,o),
(538,367,o),
(536,373,cs),
(499,471,o),
(421,519,o),
(310,519,cs),
(148,519,o),
(44,405,o),
(44,242,cs),
(44,80,o),
(147,-36,o),
(310,-36,cs)
);
},
{
closed = 1;
nodes = (
(279,714,o),
(255,690,o),
(255,661,cs),
(255,634,o),
(279,610,o),
(309,610,cs),
(338,610,o),
(362,634,o),
(362,661,cs),
(362,690,o),
(338,714,o),
(309,714,cs)
);
}
);
vertWidth = 1000;
width = 580;
}
);
note = cid25727;
unicode = 267;
}
{
glyphname = Ccaron;
layers = (
{
hints = (
{
horizontal = 1;
place = (-40, 87);
place = (-40, 87);
type = Stem;
},
{
horizontal = 1;
place = (679, 87);
place = (679, 87);
type = Stem;
},
{
horizontal = 1;
place = (828, 155);
place = (828, 155);
type = Stem;
},
{
place = (61, 92);
place = (61, 92);
type = Stem;
}
);
layerId = m01;
shapes = (
{
closed = 1;
nodes = (
(609,-40,o),
(724,59,o),
(768,200,cs),
(769,205,o),
(767,210,o),
(761,212,cs),
(697,231,ls),
(690,233,o),
(685,230,o),
(683,223,cs),
(643,109,o),
(555,47,o),
(431,47,cs),
(253,47,o),
(153,177,o),
(153,363,cs),
(153,548,o),
(252,679,o),
(431,679,cs),
(546,679,o),
(623,628,o),
(667,534,cs),
(669,529,o),
(674,526,o),
(681,528,cs),
(745,547,ls),
(753,549,o),
(755,555,o),
(753,562,c),
(700,691,o),
(589,766,o),
(430,766,cs),
(212,766,o),
(61,610,o),
(61,363,cs),
(61,117,o),
(208,-40,o),
(429,-40,cs)
);
},
{
closed = 1;
nodes = (
(460,828,ls),
(468,828,o),
(474,831,o),
(479,837,cs),
(581,974,ls),
(586,980,o),
(584,983,o),
(576,983,cs),
(519,983,ls),
(511,983,o),
(505,980,o),
(500,974,cs),
(430,888,l),
(360,974,ls),
(355,980,o),
(349,983,o),
(341,983,cs),
(284,983,ls),
(276,983,o),
(274,980,o),
(279,974,cs),
(381,837,ls),
(386,831,o),
(392,828,o),
(400,828,cs)
);
}
);
vertWidth = 1000;
width = 823;
}
);
note = cid25728;
unicode = 268;
}
{
glyphname = ccaron;
layers = (
{
hints = (
{
horizontal = 1;
place = (-36, 79);
place = (-36, 79);
type = Stem;
},
{
horizontal = 1;
place = (441, 78);
place = (441, 78);
type = Stem;
},
{
horizontal = 1;
place = (586, 155);
place = (586, 155);
type = Stem;
},
{
place = (44, 87);
place = (44, 87);
type = Stem;
}
);
layerId = m01;
shapes = (
{
closed = 1;
nodes = (
(420,-36,o),
(503,13,o),
(542,116,cs),
(545,122,o),
(543,127,o),
(536,129,cs),
(479,144,ls),
(472,146,o),
(468,144,o),
(465,138,cs),
(438,76,o),
(388,43,o),
(314,43,cs),
(190,43,o),
(131,136,o),
(131,242,cs),
(131,348,o),
(189,441,o),
(314,441,cs),
(386,441,o),
(434,410,o),
(462,351,cs),
(465,345,o),
(469,342,o),
(476,344,cs),
(528,360,ls),
(536,362,o),
(538,367,o),
(536,373,cs),
(499,471,o),
(421,519,o),
(310,519,cs),
(148,519,o),
(44,405,o),
(44,242,cs),
(44,80,o),
(147,-36,o),
(310,-36,cs)
);
},
{
closed = 1;
nodes = (
(339,586,ls),
(347,586,o),
(353,589,o),
(358,595,cs),
(460,732,ls),
(465,738,o),
(463,741,o),
(455,741,cs),
(398,741,ls),
(390,741,o),
(384,738,o),
(379,732,cs),
(309,646,l),
(239,732,ls),
(234,738,o),
(228,741,o),
(220,741,cs),
(163,741,ls),
(155,741,o),
(153,738,o),
(158,732,cs),
(260,595,ls),
(265,589,o),
(271,586,o),
(279,586,cs)
);
}
);
vertWidth = 1000;
width = 580;
}
);
note = cid25729;
unicode = 269;
}
{
glyphname = Dcaron;
layers = (
{
hints = (
{
horizontal = 1;
place = (-25, 84);
place = (-25, 84);
type = Stem;
},
{
horizontal = 1;
place = (667, 84);
place = (667, 84);
type = Stem;
},
{
horizontal = 1;
place = (828, 155);
place = (828, 155);
type = Stem;
},
{
place = (95, 89);
place = (95, 89);
type = Stem;
},
{
place = (637, 92);
place = (637, 92);
type = Stem;
}
);
layerId = m01;
shapes = (
{
closed = 1;
nodes = (
(338,-25,ls),
(602,-25,o),
(729,127,o),
(729,363,cs),
(729,600,o),
(602,751,o),
(338,751,cs),
(107,751,ls),
(99,751,o),
(95,747,o),
(95,740,cs),
(95,-13,ls),
(95,-21,o),
(99,-25,o),
(107,-25,cs)
);
},
{
closed = 1;
nodes = (
(396,828,ls),
(404,828,o),
(410,831,o),
(415,837,cs),
(517,974,ls),
(522,980,o),
(520,983,o),
(512,983,cs),
(455,983,ls),
(447,983,o),
(441,980,o),
(436,974,cs),
(366,888,l),
(296,974,ls),
(291,980,o),
(285,983,o),
(277,983,cs),
(220,983,ls),
(212,983,o),
(210,980,o),
(215,974,cs),
(317,837,ls),
(322,831,o),
(328,828,o),
(336,828,cs)
);
},
{
closed = 1;
nodes = (
(184,667,l),
(328,667,ls),
(536,667,o),
(637,554,o),
(637,363,cs),
(637,173,o),
(536,59,o),
(328,59,cs),
(184,59,l)
);
}
);
vertWidth = 1000;
width = 791;
}
);
note = cid25730;
unicode = 270;
}
{
glyphname = dcaron;
layers = (
{
hints = (
{
horizontal = 1;
place = (-36, 79);
place = (-36, 79);
type = Stem;
},
{
horizontal = 1;
place = (441, 78);
place = (441, 78);
type = Stem;
},
{
place = (44, 87);
place = (44, 87);
type = Stem;
},
{
place = (492, 84);
place = (492, 84);
type = Stem;
},
{
place = (499, 77);
place = (499, 77);
type = Stem;
},
{
place = (676, 121);
place = (676, 121);
type = Stem;
}
);
layerId = m01;
shapes = (
{
closed = 1;
nodes = (
(384,-36,o),
(458,6,o),
(496,72,c),
(499,-13,ls),
(499,-22,o),
(504,-25,o),
(511,-25,cs),
(565,-25,ls),
(572,-25,o),
(576,-21,o),
(576,-13,cs),
(576,757,ls),
(576,764,o),
(572,768,o),
(565,768,cs),
(503,768,ls),
(496,768,o),
(492,764,o),
(492,757,cs),
(492,419,l),
(452,481,o),
(381,519,o),
(299,519,cs),
(144,519,o),
(44,404,o),
(44,242,cs),
(44,80,o),
(144,-36,o),
(299,-36,cs)
);
},
{
closed = 1;
nodes = (
(686,548,ls),
(684,541,o),
(686,538,o),
(694,538,cs),
(720,538,ls),
(728,538,o),
(733,541,o),
(736,548,cs),
(775,630,ls),
(790,662,o),
(797,682,o),
(797,706,cs),
(797,738,o),
(771,761,o),
(737,761,cs),
(703,761,o),
(676,737,o),
(676,705,cs),
(676,676,o),
(696,655,o),
(724,651,c)
);
},
{
closed = 1;
nodes = (
(206,43,o),
(131,123,o),
(131,242,cs),
(131,361,o),
(206,441,o),
(315,441,cs),
(424,441,o),
(499,361,o),
(499,242,cs),
(499,123,o),
(424,43,o),
(315,43,cs)
);
}
);
vertWidth = 1000;
width = 709;
}
);
note = cid25731;
unicode = 271;
}
{
glyphname = Dcroat;
layers = (
{
hints = (
{
horizontal = 1;
place = (-25, 84);
place = (-25, 84);
type = Stem;
},
{
horizontal = 1;
place = (325, 75);
place = (325, 75);
type = Stem;
},
{
horizontal = 1;
place = (667, 84);
place = (667, 84);
type = Stem;
},
{
place = (95, 89);
place = (95, 89);
type = Stem;
},
{
place = (637, 92);
place = (637, 92);
type = Stem;
}
);
layerId = m01;
shapes = (
{
closed = 1;
nodes = (
(-15,336,ls),
(-15,328,o),
(-11,325,o),
(-4,325,cs),
(95,325,l),
(95,-13,ls),
(95,-21,o),
(99,-25,o),
(107,-25,cs),
(338,-25,ls),
(602,-25,o),
(729,127,o),
(729,363,cs),
(729,600,o),
(602,751,o),
(338,751,cs),
(107,751,ls),
(99,751,o),
(95,747,o),
(95,740,cs),
(95,400,l),
(-4,400,ls),
(-11,400,o),
(-15,396,o),
(-15,389,cs)
);
},
{
closed = 1;
nodes = (
(184,667,l),
(328,667,ls),
(536,667,o),
(637,554,o),
(637,363,cs),
(637,173,o),
(536,59,o),
(328,59,cs),
(184,59,l),
(184,325,l),
(425,325,ls),
(432,325,o),
(436,328,o),
(436,336,cs),
(436,389,ls),
(436,396,o),
(432,400,o),
(425,400,cs),
(184,400,l)
);
}
);
vertWidth = 1000;
width = 791;
}
);
note = cid25732;
unicode = 272;
}
{
glyphname = dcroat;
layers = (
{
hints = (
{
horizontal = 1;
place = (-36, 79);
place = (-36, 79);
type = Stem;
},
{
horizontal = 1;
place = (441, 78);
place = (441, 78);
type = Stem;
},
{
horizontal = 1;
place = (616, 52);
place = (616, 52);
type = Stem;
},
{
place = (44, 87);
place = (44, 87);
type = Stem;
},
{
place = (492, 84);
place = (492, 84);
type = Stem;
},
{
place = (499, 77);
place = (499, 77);
type = Stem;
}
);
layerId = m01;
shapes = (
{
closed = 1;
nodes = (
(492,668,l),
(373,668,ls),
(365,668,o),
(361,664,o),
(361,656,cs),
(361,628,ls),
(361,620,o),
(365,616,o),
(373,616,cs),
(492,616,l),
(492,419,l),
(452,481,o),
(381,519,o),
(299,519,cs),
(144,519,o),
(44,404,o),
(44,242,cs),
(44,80,o),
(144,-36,o),
(299,-36,cs),
(384,-36,o),
(458,6,o),
(496,72,c),
(499,-13,ls),
(499,-22,o),
(504,-25,o),
(511,-25,cs),
(565,-25,ls),
(572,-25,o),
(576,-21,o),
(576,-13,cs),
(576,616,l),
(653,616,ls),
(661,616,o),
(665,620,o),
(665,628,cs),
(665,656,ls),
(665,664,o),
(661,668,o),
(653,668,cs),
(576,668,l),
(576,757,ls),
(576,764,o),
(572,768,o),
(565,768,cs),
(503,768,ls),
(496,768,o),
(492,764,o),
(492,757,cs)
);
},
{
closed = 1;
nodes = (
(206,43,o),
(131,123,o),
(131,242,cs),
(131,361,o),
(206,441,o),
(315,441,cs),
(424,441,o),
(499,361,o),
(499,242,cs),
(499,123,o),
(424,43,o),
(315,43,cs)
);
}
);
vertWidth = 1000;
width = 659;
}
);
note = cid25733;
unicode = 273;
}
{
glyphname = Emacron;
layers = (
{
hints = (
{
horizontal = 1;
place = (-25, 84);
place = (-25, 84);
type = Stem;
},
{
horizontal = 1;
place = (335, 83);
place = (335, 83);
type = Stem;
},
{
horizontal = 1;
place = (667, 84);
place = (667, 84);
type = Stem;
},
{
horizontal = 1;
place = (874, 69);
place = (874, 69);
type = Stem;
},
{
place = (95, 89);
place = (95, 89);
type = Stem;
}
);
layerId = m01;
shapes = (
{
closed = 1;
nodes = (
(587,-25,ls),
(593,-25,o),
(597,-21,o),
(597,-13,cs),
(597,48,ls),
(597,54,o),
(593,59,o),
(587,59,cs),
(184,59,l),
(184,335,l),
(540,335,ls),
(546,335,o),
(551,340,o),
(551,346,cs),
(551,406,ls),
(551,414,o),
(546,418,o),
(540,418,cs),
(184,418,l),
(184,667,l),
(574,667,ls),
(581,667,o),
(586,672,o),
(586,679,cs),
(586,740,ls),
(586,747,o),
(581,751,o),
(574,751,cs),
(107,751,ls),
(99,751,o),
(95,747,o),
(95,740,cs),
(95,-13,ls),
(95,-21,o),
(99,-25,o),
(107,-25,cs)
);
},
{
closed = 1;
nodes = (
(220,943,ls),
(212,943,o),
(208,940,o),
(208,931,cs),
(208,886,ls),
(208,878,o),
(212,874,o),
(220,874,cs),
(479,874,ls),
(487,874,o),
(491,878,o),
(491,886,cs),
(491,931,ls),
(491,940,o),
(487,943,o),
(479,943,cs)
);
}
);
vertWidth = 1000;
width = 638;
}
);
note = cid25734;
unicode = 274;
}
{
glyphname = emacron;
layers = (
{
hints = (
{
horizontal = 1;
place = (-36, 78);
place = (-36, 78);
type = Stem;
},
{
horizontal = 1;
place = (215, 67);
place = (215, 67);
type = Stem;
},
{
horizontal = 1;
place = (443, 76);
place = (443, 76);
type = Stem;
},
{
horizontal = 1;
place = (632, 69);
place = (632, 69);
type = Stem;
},
{
place = (44, 88);
place = (44, 88);
type = Stem;
},
{
place = (458, 90);
place = (458, 90);
type = Stem;
}
);
layerId = m01;
shapes = (
{
closed = 1;
nodes = (
(408,-36,o),
(489,10,o),
(535,104,cs),
(538,110,o),
(535,116,o),
(528,118,cs),
(476,137,ls),
(469,139,o),
(464,138,o),
(461,131,cs),
(431,73,o),
(383,42,o),
(305,42,cs),
(207,42,o),
(143,108,o),
(132,215,c),
(536,215,ls),
(543,215,o),
(548,219,o),
(548,227,cs),
(550,400,o),
(463,519,o),
(305,519,cs),
(146,519,o),
(44,403,o),
(44,242,cs),
(44,82,o),
(145,-36,o),
(305,-36,cs)
);
},
{
closed = 1;
nodes = (
(173,701,ls),
(165,701,o),
(161,698,o),
(161,689,cs),
(161,644,ls),
(161,636,o),
(165,632,o),
(173,632,cs),
(433,632,ls),
(441,632,o),
(445,636,o),
(445,644,cs),
(445,689,ls),
(445,698,o),
(441,701,o),
(433,701,cs)
);
},
{
closed = 1;
nodes = (
(394,443,o),
(450,379,o),
(458,282,c),
(133,282,l),
(147,382,o),
(214,443,o),
(305,443,cs)
);
}
);
vertWidth = 1000;
width = 583;
}
);
note = cid25735;
unicode = 275;
}
{
glyphname = edotaccent;
layers = (
{
hints = (
{
horizontal = 1;
place = (-36, 78);
place = (-36, 78);
type = Stem;
},
{
horizontal = 1;
place = (215, 67);
place = (215, 67);
type = Stem;
},
{
horizontal = 1;
place = (443, 76);
place = (443, 76);
type = Stem;
},
{
horizontal = 1;
place = (610, 104);
place = (610, 104);
type = Stem;
},
{
place = (44, 88);
place = (44, 88);
type = Stem;
},
{
place = (249, 107);
place = (249, 107);
type = Stem;
},
{
place = (458, 90);
place = (458, 90);
type = Stem;
}
);
layerId = m01;
shapes = (
{
closed = 1;
nodes = (
(408,-36,o),
(489,10,o),
(535,104,cs),
(538,110,o),
(535,116,o),
(528,118,cs),
(476,137,ls),
(469,139,o),
(464,138,o),
(461,131,cs),
(431,73,o),
(383,42,o),
(305,42,cs),
(207,42,o),
(143,108,o),
(132,215,c),
(536,215,ls),
(543,215,o),
(548,219,o),
(548,227,cs),
(550,400,o),
(463,519,o),
(305,519,cs),
(146,519,o),
(44,403,o),
(44,242,cs),
(44,82,o),
(145,-36,o),
(305,-36,cs)
);
},
{
closed = 1;
nodes = (
(273,714,o),
(249,690,o),
(249,661,cs),
(249,634,o),
(273,610,o),
(303,610,cs),
(332,610,o),
(356,634,o),
(356,661,cs),
(356,690,o),
(332,714,o),
(303,714,cs)
);
},
{
closed = 1;
nodes = (
(394,443,o),
(450,379,o),
(458,282,c),
(133,282,l),
(147,382,o),
(214,443,o),
(305,443,cs)
);
}
);
vertWidth = 1000;
width = 583;
}
);
note = cid25737;
unicode = 279;
}
{
glyphname = Eogonek;
layers = (
{
hints = (
{
horizontal = 1;
place = (-228, 68);
place = (-228, 68);
type = Stem;
},
{
horizontal = 1;
place = (-25, 84);
place = (-25, 84);
type = Stem;
},
{
horizontal = 1;
place = (335, 83);
place = (335, 83);
type = Stem;
},
{
horizontal = 1;
place = (667, 84);
place = (667, 84);
type = Stem;
},
{
place = (95, 89);
place = (95, 89);
type = Stem;
},
{
place = (387, 76);
place = (387, 76);
type = Stem;
}
);
layerId = m01;
shapes = (
{
closed = 1;
nodes = (
(587,-25,ls),
(593,-25,o),
(597,-21,o),
(597,-13,cs),
(597,48,ls),
(597,54,o),
(593,59,o),
(587,59,cs),
(184,59,l),
(184,335,l),
(540,335,ls),
(546,335,o),
(551,340,o),
(551,346,cs),
(551,406,ls),
(551,414,o),
(546,418,o),
(540,418,cs),
(184,418,l),
(184,667,l),
(574,667,ls),
(581,667,o),
(586,672,o),
(586,679,cs),
(586,740,ls),
(586,747,o),
(581,751,o),
(574,751,cs),
(107,751,ls),
(99,751,o),
(95,747,o),
(95,740,cs),
(95,-13,ls),
(95,-21,o),
(99,-25,o),
(107,-25,cs),
(439,-25,l),
(407,-48,o),
(387,-85,o),
(387,-120,cs),
(387,-174,o),
(436,-228,o),
(523,-228,cs),
(542,-228,o),
(599,-224,o),
(602,-199,c),
(603,-161,ls),
(603,-153,o),
(599,-150,o),
(584,-154,cs),
(576,-157,o),
(560,-160,o),
(542,-160,cs),
(496,-160,o),
(463,-139,o),
(463,-99,cs),
(463,-62,o),
(490,-39,o),
(520,-25,c)
);
}
);
vertWidth = 1000;
width = 638;
}
);
note = cid25738;
unicode = 280;
}
{
glyphname = eogonek;
layers = (
{
hints = (
{
horizontal = 1;
place = (-228, 68);
place = (-228, 68);
type = Stem;
},
{
horizontal = 1;
place = (-36, 78);
place = (-36, 78);
type = Stem;
},
{
horizontal = 1;
place = (215, 67);
place = (215, 67);
type = Stem;
},
{
horizontal = 1;
place = (443, 76);
place = (443, 76);
type = Stem;
},
{
place = (44, 88);
place = (44, 88);
type = Stem;
},
{
place = (254, 76);
place = (254, 76);
type = Stem;
},
{
place = (458, 90);
place = (458, 90);
type = Stem;
}
);
layerId = m01;
shapes = (
{
closed = 1;
nodes = (
(538,110,o),
(535,116,o),
(528,118,cs),
(476,137,ls),
(469,139,o),
(464,138,o),
(461,131,cs),
(431,73,o),
(383,42,o),
(305,42,cs),
(207,42,o),
(143,108,o),
(132,215,c),
(536,215,ls),
(543,215,o),
(548,219,o),
(548,227,cs),
(550,400,o),
(463,519,o),
(305,519,cs),
(146,519,o),
(44,403,o),
(44,242,cs),
(44,86,o),
(140,-30,o),
(293,-36,c),
(269,-59,o),
(254,-90,o),
(254,-120,cs),
(254,-174,o),
(303,-228,o),
(390,-228,cs),
(407,-228,o),
(468,-224,o),
(468,-199,cs),
(469,-161,ls),
(470,-153,o),
(466,-150,o),
(451,-154,cs),
(442,-157,o),
(426,-160,o),
(409,-160,cs),
(362,-160,o),
(330,-139,o),
(330,-99,cs),
(330,-62,o),
(357,-39,o),
(386,-25,c),
(451,-6,o),
(502,36,o),
(535,104,cs)
);
},
{
closed = 1;
nodes = (
(394,443,o),
(450,379,o),
(458,282,c),
(133,282,l),
(147,382,o),
(214,443,o),
(305,443,cs)
);
}
);
vertWidth = 1000;
width = 583;
}
);
note = cid25739;
unicode = 281;
}
